<svg xmlns="http://www.w3.org/2000/svg" xmlns:xlink="http://www.w3.org/1999/xlink" width="239.015" height="60.538" viewBox="0 0 239.015 60.538">
  <defs>
    <clipPath id="clip-path">
      <rect id="Rectangle_41" data-name="Rectangle 41" width="233.902" height="59.996" transform="translate(0 0)" fill="#fff"/>
    </clipPath>
  </defs>
  <g id="about_logo" transform="translate(-1696.48 51)">
    <rect id="Rectangle_42" data-name="Rectangle 42" width="239.015" height="60.184" transform="translate(1696.48 -50.645)" fill="none"/>
    <g id="Group_513" data-name="Group 513" transform="translate(1699.26 -51)">
      <g id="Group_510" data-name="Group 510" transform="translate(0 0)" clip-path="url(#clip-path)">
        <path id="Path_242" data-name="Path 242" d="M169.9,37.626a6.806,6.806,0,0,1-3.589,6.205,14.034,14.034,0,0,1-7.317,1.76h-12.5v5.163h-5.511V29.661h18.014a14.5,14.5,0,0,1,7.317,1.69,6.864,6.864,0,0,1,3.589,6.275m-5.487,0a2.034,2.034,0,0,0-1.435-1.853,6.639,6.639,0,0,0-3.033-.625H146.486v4.885h13.453a7.34,7.34,0,0,0,3.033-.556,2.063,2.063,0,0,0,1.435-1.852" transform="translate(-73.682 -15.503)" fill="#fff"/>
        <path id="Path_243" data-name="Path 243" d="M236.01,37.626q0,4.585-4.584,6.715l3.172,6.507h-6.159l-2.57-5.256H212.6V50.8H207.09V29.661H225.5a12.888,12.888,0,0,1,7.062,1.9,6.812,6.812,0,0,1,3.45,6.067m-5.487,0q0-1.251-1.991-1.945A9.667,9.667,0,0,0,225.5,35.2H212.6v4.886h12.851a9.4,9.4,0,0,0,3.079-.51q1.991-.671,1.991-1.945" transform="translate(-108.238 -15.503)" fill="#fff"/>
        <path id="Path_244" data-name="Path 244" d="M306.146,40.22A10.217,10.217,0,0,1,295.61,50.756h-12.55a10.31,10.31,0,0,1-7.572-2.987,10.188,10.188,0,0,1-3.01-7.548,10.254,10.254,0,0,1,10.582-10.558h12.55A10.217,10.217,0,0,1,306.146,40.22m-5.488,0a4.913,4.913,0,0,0-1.378-3.67,5.228,5.228,0,0,0-3.716-1.4h-12.5a5.185,5.185,0,0,0-3.705,1.4,4.935,4.935,0,0,0-1.366,3.67,4.927,4.927,0,0,0,1.366,3.682,5.057,5.057,0,0,0,3.705,1.343h12.5A5.1,5.1,0,0,0,299.28,43.9a4.9,4.9,0,0,0,1.378-3.682" transform="translate(-142.414 -15.503)" fill="#fff"/>
        <path id="Path_245" data-name="Path 245" d="M374.39.193q5.9,0,7.641,4.469a4.8,4.8,0,0,1,.162,1.644q-.324,3.218-7.549,6.391a9.594,9.594,0,0,1-3.936.926q-.624-.115-.278-.532.765-.463,4.353-2.663,4.608-3.334,4.608-4.7,0-.879-2.386-1.065h-1.69q-11.6,0-23.317,8.173Q349.1,15.29,349.1,17.188q0,2.131,9.61,4.33,7.78,2.385,7.78,6.715,0,5.024-8.428,9.215a17.434,17.434,0,0,1-6.854,1.853q-4.771-.394-5.3-2.94a2.954,2.954,0,0,1,0-1.274q1.921-6.252,26.534-12.318.95-.3.95.254-8.984,3.011-14.414,4.99a36.014,36.014,0,0,0-8.474,4.156q-3.045,2.177-2.466,3.311a1.187,1.187,0,0,0,1.064.255q5.326,0,11.972-4.793,2.13-1.922,2.245-3.4.14-3.126-9.747-5.094-7.9-2.2-7.9-5.789,0-8.73,16.949-14.31Q370.8.193,374.39.193" transform="translate(-180.672 -0.101)" fill="#fff"/>
        <path id="Path_246" data-name="Path 246" d="M433.825,50.756h-5.487V45.592H410.416v5.163H404.9V38.9q0-4.608,4.515-7.155a17.457,17.457,0,0,1,8.661-2.084H420.7a17.259,17.259,0,0,1,8.683,2.084,7.831,7.831,0,0,1,4.445,7.155Zm-5.487-10.721V38.9q0-1.945-2.987-2.987a14.084,14.084,0,0,0-4.654-.764h-2.616q-4.539,0-6.484,1.76a3.074,3.074,0,0,0-1.181,2.037v1.088Z" transform="translate(-211.628 -15.503)" fill="#fff"/>
        <rect id="Rectangle_40" data-name="Rectangle 40" width="5.511" height="21.14" transform="translate(225.995 14.159)" fill="#fff"/>
        <path id="Path_249" data-name="Path 249" d="M3.208,1.74V-6.738H.42V-8.218h7.2v1.479H4.745V1.74Zm5.9,0V-5.728h1.465V1.74ZM10.534-6.88,8.059-8.218l.925-1.166,2.034,1.778ZM12.569,1.74V-5.728h1.479v1.593l-.27.171a2.406,2.406,0,0,1,.363-.711,2.743,2.743,0,0,1,.612-.6,3.274,3.274,0,0,1,.782-.42,2.445,2.445,0,0,1,.861-.156,2.763,2.763,0,0,1,1.124.213,1.945,1.945,0,0,1,.8.64,2.816,2.816,0,0,1,.455,1.067l-.228-.057.1-.242a2.4,2.4,0,0,1,.434-.619,3.394,3.394,0,0,1,.633-.519,3.223,3.223,0,0,1,.754-.356,2.548,2.548,0,0,1,.782-.128,2.581,2.581,0,0,1,1.387.341,2.083,2.083,0,0,1,.825,1.038,4.72,4.72,0,0,1,.277,1.736V1.74H22.256v-4.4A2.828,2.828,0,0,0,22.092-3.7a1.21,1.21,0,0,0-.491-.6,1.594,1.594,0,0,0-.839-.2,2.048,2.048,0,0,0-.747.135,1.837,1.837,0,0,0-.6.377,1.735,1.735,0,0,0-.4.562,1.714,1.714,0,0,0-.142.7V1.74H17.391V-2.684a2.547,2.547,0,0,0-.171-.989,1.331,1.331,0,0,0-.5-.619,1.427,1.427,0,0,0-.8-.213,1.992,1.992,0,0,0-.74.135,1.921,1.921,0,0,0-.6.37,1.658,1.658,0,0,0-.4.555,1.679,1.679,0,0,0-.142.69v4.5Zm17.113,0V-5.728h1.465v1.536l-.256.171a2.147,2.147,0,0,1,.555-.918,3.308,3.308,0,0,1,.982-.683,2.751,2.751,0,0,1,1.166-.263,2.77,2.77,0,0,1,1.423.334,2.048,2.048,0,0,1,.854,1.017,4.5,4.5,0,0,1,.285,1.721V1.74H34.689V-2.712a2.834,2.834,0,0,0-.171-1.06,1.163,1.163,0,0,0-.526-.612,1.646,1.646,0,0,0-.882-.164,2.186,2.186,0,0,0-.782.135,1.9,1.9,0,0,0-.619.377,1.777,1.777,0,0,0-.413.562,1.611,1.611,0,0,0-.149.69V1.74H29.682Zm8.464,0V-8.787h1.465v4.595l-.256.171a2.147,2.147,0,0,1,.555-.918,3.308,3.308,0,0,1,.982-.683,2.751,2.751,0,0,1,1.166-.263,2.77,2.77,0,0,1,1.423.334,2.048,2.048,0,0,1,.854,1.017,4.5,4.5,0,0,1,.285,1.721V1.74H43.153V-2.712a2.834,2.834,0,0,0-.171-1.06,1.163,1.163,0,0,0-.526-.612,1.646,1.646,0,0,0-.882-.164,2.186,2.186,0,0,0-.782.135,1.9,1.9,0,0,0-.619.377,1.777,1.777,0,0,0-.413.562,1.611,1.611,0,0,0-.149.69V1.74H38.146Zm11.338.142A2.954,2.954,0,0,1,47.8,1.37,3.671,3.671,0,0,1,46.582-.024a4.278,4.278,0,0,1-.455-1.992,4.213,4.213,0,0,1,.462-2,3.542,3.542,0,0,1,1.252-1.373,3.251,3.251,0,0,1,1.771-.5,3.187,3.187,0,0,1,1.067.171,2.685,2.685,0,0,1,.846.477,2.728,2.728,0,0,1,.6.7,2.2,2.2,0,0,1,.292.854l-.327-.114V-5.728h1.479V1.74H52.087V-.038l.341-.1a2.015,2.015,0,0,1-.349.747,2.808,2.808,0,0,1-.669.647,3.623,3.623,0,0,1-.9.455A3.117,3.117,0,0,1,49.484,1.883ZM49.868.531A2.145,2.145,0,0,0,51.048.2a2.254,2.254,0,0,0,.8-.9,2.874,2.874,0,0,0,.292-1.316,2.8,2.8,0,0,0-.292-1.295,2.266,2.266,0,0,0-.8-.9,2.145,2.145,0,0,0-1.181-.327,2.085,2.085,0,0,0-1.159.327,2.285,2.285,0,0,0-.8.9,2.8,2.8,0,0,0-.292,1.295A2.874,2.874,0,0,0,47.912-.7a2.273,2.273,0,0,0,.8.9A2.085,2.085,0,0,0,49.868.531Zm.939-7.411L48.331-8.218l.925-1.166L51.29-7.606ZM62.215,1.883a2.558,2.558,0,0,1-1.387-.37,2.432,2.432,0,0,1-.91-1.038,3.659,3.659,0,0,1-.32-1.593V-5.728h1.465v4.211a2.833,2.833,0,0,0,.206,1.131,1.615,1.615,0,0,0,.6.733A1.689,1.689,0,0,0,62.813.6a2.032,2.032,0,0,0,.754-.135,1.773,1.773,0,0,0,.59-.377,1.73,1.73,0,0,0,.391-.583,1.9,1.9,0,0,0,.142-.74v-4.5a1.746,1.746,0,0,0,.619-.1,1.02,1.02,0,0,0,.434-.306A1.369,1.369,0,0,0,66-6.646a2.628,2.628,0,0,0,.085-.7h1.166A3.552,3.552,0,0,1,67.1-6.3a2.062,2.062,0,0,1-.484.832,2.031,2.031,0,0,1-.889.519l.427-.811v7.5H64.691V-.095l.185.285a2.5,2.5,0,0,1-.6.868,3.063,3.063,0,0,1-.932.6A2.879,2.879,0,0,1,62.215,1.883ZM68.2,1.74V-5.728h1.465v1.536l-.256.171a2.147,2.147,0,0,1,.555-.918,3.308,3.308,0,0,1,.982-.683,2.751,2.751,0,0,1,1.166-.263,2.77,2.77,0,0,1,1.423.334,2.048,2.048,0,0,1,.854,1.017,4.5,4.5,0,0,1,.285,1.721V1.74H73.212V-2.712a2.833,2.833,0,0,0-.171-1.06,1.163,1.163,0,0,0-.526-.612,1.646,1.646,0,0,0-.882-.164,2.186,2.186,0,0,0-.782.135,1.9,1.9,0,0,0-.619.377,1.777,1.777,0,0,0-.413.562,1.611,1.611,0,0,0-.149.69V1.74H68.2ZM80.011,5.012a5.248,5.248,0,0,1-1.586-.249,3.768,3.768,0,0,1-1.273-.647l.541-1.138a3.2,3.2,0,0,0,.669.377,4.491,4.491,0,0,0,.811.256,3.956,3.956,0,0,0,.839.092,2.98,2.98,0,0,0,1.309-.256,1.754,1.754,0,0,0,.8-.754,2.569,2.569,0,0,0,.27-1.238V.019l.156.1a1.592,1.592,0,0,1-.462.846,3.023,3.023,0,0,1-.974.661,2.945,2.945,0,0,1-1.195.256,3.587,3.587,0,0,1-1.9-.505A3.645,3.645,0,0,1,76.7,0a4.062,4.062,0,0,1-.484-2,4.111,4.111,0,0,1,.477-2A3.592,3.592,0,0,1,78-5.38a3.534,3.534,0,0,1,1.871-.505,3.175,3.175,0,0,1,.825.107,3.18,3.18,0,0,1,.74.3,3.962,3.962,0,0,1,.612.42,2.318,2.318,0,0,1,.441.484,1.329,1.329,0,0,1,.213.484l-.313.114v-1.75h1.465V1.285a4.432,4.432,0,0,1-.263,1.586,3.135,3.135,0,0,1-.761,1.166,3.3,3.3,0,0,1-1.209.725A4.848,4.848,0,0,1,80.011,5.012ZM80.068.531A2.343,2.343,0,0,0,81.306.2a2.248,2.248,0,0,0,.839-.9A2.774,2.774,0,0,0,82.444-2a2.763,2.763,0,0,0-.306-1.316,2.3,2.3,0,0,0-.839-.9,2.306,2.306,0,0,0-1.23-.327,2.242,2.242,0,0,0-1.216.334,2.355,2.355,0,0,0-.839.91A2.733,2.733,0,0,0,77.707-2a2.733,2.733,0,0,0,.306,1.3,2.3,2.3,0,0,0,.839.9A2.279,2.279,0,0,0,80.068.531ZM91.136,5.012l1.508-3.485.014,1.166L88.931-5.728h1.707L92.971-.237A3.759,3.759,0,0,1,93.141.2q.1.292.171.576l-.37.085q.114-.3.22-.6t.206-.6l1.949-5.391h1.736L93.981,1.74,92.715,5.012ZM92-6.88l-.484-.725,2.034-1.778.925,1.166ZM98.376,4.287l-.541-.654a2.991,2.991,0,0,0,.811-.654,1.073,1.073,0,0,0,.313-.64.589.589,0,0,0-.071-.277,1.987,1.987,0,0,0-.3-.377,1.675,1.675,0,0,1-.37-.455.939.939,0,0,1-.085-.4.684.684,0,0,1,.242-.548A.931.931,0,0,1,99,.076a1.1,1.1,0,0,1,.647.206,1.366,1.366,0,0,1,.455.569,2.005,2.005,0,0,1,.164.832,2.435,2.435,0,0,1-.142.825,2.791,2.791,0,0,1-.4.74,3.314,3.314,0,0,1-.6.612A2.816,2.816,0,0,1,98.376,4.287Zm10.726-2.4a3.425,3.425,0,0,1-1.856-.512,3.668,3.668,0,0,1-1.295-1.394A4.092,4.092,0,0,1,105.475-2a4.092,4.092,0,0,1,.477-1.977,3.668,3.668,0,0,1,1.295-1.394,3.425,3.425,0,0,1,1.856-.512,4.028,4.028,0,0,1,1.814.405,2.951,2.951,0,0,1,1.245,1.1l-.811,1a2.667,2.667,0,0,0-.583-.6,3.141,3.141,0,0,0-.754-.427,2.1,2.1,0,0,0-.768-.156,2.242,2.242,0,0,0-1.216.334,2.4,2.4,0,0,0-.846.918A2.723,2.723,0,0,0,106.869-2,2.589,2.589,0,0,0,107.2-.7a2.56,2.56,0,0,0,.868.918,2.193,2.193,0,0,0,1.195.341,2.228,2.228,0,0,0,.747-.128,2.637,2.637,0,0,0,.7-.384,3.614,3.614,0,0,0,.64-.626l.811,1a3.358,3.358,0,0,1-1.3,1.053A3.964,3.964,0,0,1,109.1,1.883Zm7.8,0a3.792,3.792,0,0,1-1.956-.505A3.684,3.684,0,0,1,113.583,0a3.969,3.969,0,0,1-.5-2,3.969,3.969,0,0,1,.5-2,3.684,3.684,0,0,1,1.359-1.38,3.792,3.792,0,0,1,1.956-.505,3.765,3.765,0,0,1,1.942.505A3.684,3.684,0,0,1,120.2-4a3.969,3.969,0,0,1,.5,2,3.969,3.969,0,0,1-.5,2,3.684,3.684,0,0,1-1.359,1.38A3.765,3.765,0,0,1,116.9,1.883Zm0-1.337a2.181,2.181,0,0,0,1.195-.334,2.321,2.321,0,0,0,.825-.91A2.669,2.669,0,0,0,119.2-2a2.7,2.7,0,0,0-.285-1.316,2.269,2.269,0,0,0-.825-.9,2.217,2.217,0,0,0-1.195-.327,2.217,2.217,0,0,0-1.2.334,2.3,2.3,0,0,0-.832.91,2.669,2.669,0,0,0-.285,1.3,2.669,2.669,0,0,0,.285,1.3,2.3,2.3,0,0,0,.832.91A2.217,2.217,0,0,0,116.9.545Zm-1-7.426-.484-.725,2.034-1.778.925,1.166Zm9.7,8.621,3.855-9.958h1.565L134.85,1.74h-1.636l-2.276-6q-.043-.1-.164-.484T130.5-5.6q-.157-.469-.285-.861t-.171-.505l.327-.014q-.085.242-.206.612l-.256.782q-.135.413-.263.775l-.213.6L127.169,1.74Zm1.707-2.475.569-1.479H132.4l.654,1.479ZM136.23,1.74V.318h1.607V-6.795H136.23V-8.218h4.751v1.423h-1.607V.318h1.607V1.74Zm10.811,0V-8.787h1.465V1.74Zm6.629.142a3.792,3.792,0,0,1-1.956-.505A3.684,3.684,0,0,1,150.356,0a3.969,3.969,0,0,1-.5-2,3.969,3.969,0,0,1,.5-2,3.684,3.684,0,0,1,1.359-1.38,3.792,3.792,0,0,1,1.956-.505,3.765,3.765,0,0,1,1.942.505A3.684,3.684,0,0,1,156.971-4a3.969,3.969,0,0,1,.5,2,3.969,3.969,0,0,1-.5,2,3.684,3.684,0,0,1-1.359,1.38A3.765,3.765,0,0,1,153.671,1.883Zm0-1.337a2.181,2.181,0,0,0,1.195-.334,2.321,2.321,0,0,0,.825-.91,2.669,2.669,0,0,0,.285-1.3,2.7,2.7,0,0,0-.285-1.316,2.269,2.269,0,0,0-.825-.9,2.217,2.217,0,0,0-1.195-.327,2.217,2.217,0,0,0-1.2.334,2.3,2.3,0,0,0-.832.91,2.669,2.669,0,0,0-.285,1.3,2.669,2.669,0,0,0,.285,1.3,2.3,2.3,0,0,0,.832.91A2.217,2.217,0,0,0,153.671.545Z" transform="translate(67.371 54.015)" fill="#fff"/>
        <path id="Path_247" data-name="Path 247" d="M477.947,5.762c-3.042.622-4,1.581-4.623,4.624a.413.413,0,0,1-.809,0c-.622-3.042-1.581-4-4.623-4.624a.413.413,0,0,1,0-.809c3.042-.622,4-1.581,4.623-4.624a.413.413,0,0,1,.809,0c.622,3.042,1.581,4,4.623,4.624a.413.413,0,0,1,0,.809" transform="translate(-244.375 0)" fill="#fff"/>
        <path id="Path_248" data-name="Path 248" d="M26.978,44.952V37.079L6.817,25.44V19.706L26.978,8.067,47.138,19.706v2.741l6.818,3.936V15.77L40.467,7.982,26.978.194,13.489,7.982,0,15.77V29.376l7.762,4.481h0ZM0,55.848H53.955V34.255l-6.818-3.937L26.978,18.679v7.873L47.138,38.191V49.031H6.817V41.184L0,37.248Z" transform="translate(0 -0.101)" fill="#fff" fill-rule="evenodd"/>
      </g>
    </g>
  </g>
</svg>
