<svg id="address" xmlns="http://www.w3.org/2000/svg" width="12" height="16" viewBox="0 0 12 16">
  <g id="Group_868" data-name="Group 868">
    <g id="Group_867" data-name="Group 867" transform="translate(0)">
      <path id="Path_509" data-name="Path 509" d="M54.08,0a5.962,5.962,0,0,0-6,5.91,6.735,6.735,0,0,0,.509,2.276,9.485,9.485,0,0,0,.694,1.278L53.4,15.6a.788.788,0,0,0,1.367,0l4.114-6.141a9.446,9.446,0,0,0,.694-1.278A6.734,6.734,0,0,0,60.08,5.91,5.962,5.962,0,0,0,54.08,0Zm4.841,7.916a8.691,8.691,0,0,1-.632,1.165l-4.114,6.141c-.081.121-.107.121-.188,0L49.872,9.081a8.7,8.7,0,0,1-.632-1.165,6.114,6.114,0,0,1-.454-2.005,5.295,5.295,0,0,1,10.588,0A6.119,6.119,0,0,1,58.921,7.916Z" transform="translate(-48.08)" fill="#1d1d44"/>
      <path id="Path_510" data-name="Path 510" d="M115.358,64.008a3.069,3.069,0,1,0,3.278,3.062A3.179,3.179,0,0,0,115.358,64.008Zm0,5.444a2.387,2.387,0,1,1,2.55-2.382A2.473,2.473,0,0,1,115.358,69.452Z" transform="translate(-109.358 -61.188)" fill="#1d1d44"/>
    </g>
  </g>
</svg>
