<svg xmlns="http://www.w3.org/2000/svg" xmlns:xlink="http://www.w3.org/1999/xlink" width="142" height="142" viewBox="0 0 142 142">
  <defs>
    <filter id="Ellipse_40" x="0" y="0" width="142" height="142" filterUnits="userSpaceOnUse">
      <feOffset dy="3" input="SourceAlpha"/>
      <feGaussianBlur stdDeviation="3" result="blur"/>
      <feFlood flood-opacity="0.161"/>
      <feComposite operator="in" in2="blur"/>
      <feComposite in="SourceGraphic"/>
    </filter>
    <linearGradient id="linear-gradient" x1="0.253" x2="0.913" y2="0.868" gradientUnits="objectBoundingBox">
      <stop offset="0" stop-color="#48a7ff"/>
      <stop offset="1" stop-color="#746fff"/>
    </linearGradient>
  </defs>
  <g id="AI_cohoi" transform="translate(-843.074 -1694.074)">
    <g id="Group_14356" data-name="Group 14356" transform="translate(852 1700)">
      <g transform="matrix(1, 0, 0, 1, -8.93, -5.93)" filter="url(#Ellipse_40)">
        <circle id="Ellipse_40-2" data-name="Ellipse 40" cx="62" cy="62" r="62" transform="translate(9 6)" fill="#f5f9fc"/>
      </g>
      <circle id="Ellipse_41" data-name="Ellipse 41" cx="59.793" cy="59.793" r="59.793" transform="translate(2.491 2.491)" fill="none" stroke="#fff" stroke-width="3"/>
    </g>
    <path id="Path_5969" data-name="Path 5969" d="M60.267,59.467l-2.757-4.7a1.073,1.073,0,0,1,.327-1.431L71.6,43.3a1.068,1.068,0,0,1,1.3.035l5.876,4.788,6.5-4.591-1.052-1.223a1.074,1.074,0,0,1,.7-1.766l9.95-1.078a1.07,1.07,0,0,1,1.135,1.387l-2.522,9.628a1.07,1.07,0,0,1-1.844.434L90.428,49.5,79.674,57.5a1.068,1.068,0,0,1-1.3-.014l-6.357-4.565-10.192,6.94a1.078,1.078,0,0,1-1.562-.4Zm-.422-4.944,1.723,2.927,9.867-6.715v0a1.066,1.066,0,0,1,1.226.012l6.362,4.57,10.924-8.137a1.07,1.07,0,0,1,1.453.156l.538.626,1.626-6.21-6.379.692.561.657a1.071,1.071,0,0,1-.261,1.491l-8.134,5.745a1.072,1.072,0,0,1-1.292-.043l-5.866-4.788ZM52.327,39.754a1.074,1.074,0,0,1,2.148,0V63.305H85.71a1.074,1.074,0,1,1,0,2.148H53.4a1.074,1.074,0,0,1-1.074-1.074ZM33.284,67.689a1.07,1.07,0,1,1,2.131-.192c.118,1.261,2.366,1.944,3.648.891a1.3,1.3,0,0,0,.531-1c0-2.6-6.327-.226-6.327-5.174a3.8,3.8,0,0,1,3.148-3.539v-.77a1.074,1.074,0,0,1,1.109-1.074v0a1.07,1.07,0,0,1,1.069,1.091l-.017.744a3.794,3.794,0,0,1,3.166,3.544,1.074,1.074,0,1,1-2.148,0c0-1.33-2.327-2.079-3.643-1a1.323,1.323,0,0,0-.535,1c0,2.6,6.327.226,6.327,5.174a3.788,3.788,0,0,1-3.166,3.539l-.014.766a1.074,1.074,0,1,1-2.148,0v-.77a3.841,3.841,0,0,1-3.131-3.238ZM37.506,52.3A12.506,12.506,0,1,1,25,64.807,12.508,12.508,0,0,1,37.506,52.3Zm7.324,5.184a10.358,10.358,0,1,0,0,14.646A10.354,10.354,0,0,0,44.829,57.483Zm-9.777,30.6L38.8,83.443a2.615,2.615,0,0,1,3.67-.4l1.879,1.517,5.062-7.718c1.635-2.491,4.5-3.3,7.327-3.383l17.49-.5a.446.446,0,0,1,.078,0v0c2.135.1,5.935-.4,7.367,1.249l7.67-6.814c3.709-3.3,9.023,1.671,5.909,5.536L83.074,88.033c-2.7,3.34-8.611,4.975-12.7,4.361-3.518-.522-9.166-.879-11.211,2.5L58.5,95.985l2.327,1.879a2.615,2.615,0,0,1,.4,3.67l-3.745,4.641a2.611,2.611,0,0,1-3.67.4L35.449,91.754a2.614,2.614,0,0,1-.4-3.671Zm10.972-2.165,10.789,8.71.509-.839c2.626-4.345,8.867-4.188,13.359-3.518,3.34.5,8.514-.848,10.723-3.584L93.581,71.6a1.918,1.918,0,0,0-2.813-2.588l-8.784,7.8q-2.662,4.565-5.579,6.184a6.678,6.678,0,0,1-6.488.147,11.051,11.051,0,0,0-8.3.979,1.074,1.074,0,0,1-1.031-1.884A13.2,13.2,0,0,1,70.57,81.09a.962.962,0,0,1,.209.078c3.97,1.974,7.054-1.526,9.289-5.314-.244-.882-3.314-.749-4.17-.739-.592.009-1.161.014-1.652,0L56.8,75.6c-2.109.057-4.378.578-5.589,2.422Zm-5.556-1.131-3.745,4.641a.469.469,0,0,0,.069.657L55.148,104.9a.474.474,0,0,0,.661-.069l3.745-4.641a.469.469,0,0,0-.069-.657L56.472,97.1c-.031-.021-.061-.043-.092-.069L43.969,87.013a.653.653,0,0,1-.1-.074l-2.748-2.218A.466.466,0,0,0,40.468,84.788Z" transform="translate(853.425 1689.655)" fill="url(#linear-gradient)"/>
  </g>
</svg>
