<svg xmlns="http://www.w3.org/2000/svg" xmlns:xlink="http://www.w3.org/1999/xlink" width="142" height="142" viewBox="0 0 142 142">
  <defs>
    <filter id="Ellipse_40" x="0" y="0" width="142" height="142" filterUnits="userSpaceOnUse">
      <feOffset dy="3" input="SourceAlpha"/>
      <feGaussianBlur stdDeviation="3" result="blur"/>
      <feFlood flood-opacity="0.161"/>
      <feComposite operator="in" in2="blur"/>
      <feComposite in="SourceGraphic"/>
    </filter>
    <linearGradient id="linear-gradient" x1="0.479" y1="-0.558" x2="1.314" y2="0.801" gradientUnits="objectBoundingBox">
      <stop offset="0" stop-color="#48a7ff"/>
      <stop offset="1" stop-color="#746fff"/>
    </linearGradient>
  </defs>
  <g id="AI_gia" transform="translate(-283.146 -3269.932)">
    <g id="Group_101" data-name="Group 101" transform="translate(292 3275.785)">
      <g id="Group_14447" data-name="Group 14447">
        <g transform="matrix(1, 0, 0, 1, -8.85, -5.85)" filter="url(#Ellipse_40)">
          <circle id="Ellipse_40-2" data-name="Ellipse 40" cx="62" cy="62" r="62" transform="translate(9 6)" fill="#f5f9fc"/>
        </g>
        <circle id="Ellipse_41" data-name="Ellipse 41" cx="59.863" cy="59.863" r="59.863" transform="translate(2.494 2.494)" fill="none" stroke="#fff" stroke-width="3"/>
      </g>
    </g>
    <g id="_11-best_price" data-name="11-best price" transform="translate(323.073 3306.859)">
      <path id="Path_5943" data-name="Path 5943" d="M40.635,41.415a3.87,3.87,0,0,0-3.87-3.87H24.313l.842-6.656a.474.474,0,0,0,0-.116c0-5.36-3.793-6.772-5.8-6.772a.967.967,0,0,0-.967.706l-3.87,13.439a7.421,7.421,0,0,1-2.9,3.067v-.764a.968.968,0,0,0-.967-.968H.967A.967.967,0,0,0,0,40.447V61.732a.967.967,0,0,0,.967.967h9.675a.967.967,0,0,0,.967-.967v-.648L17.154,62.7a.774.774,0,0,0,.261,0H33.862a3.87,3.87,0,0,0,2.9-6.366,3.87,3.87,0,0,0,.967-5.8,3.87,3.87,0,0,0,.967-5.8A3.87,3.87,0,0,0,40.635,41.415ZM9.675,60.765H1.935V41.415h7.74Zm24.187,0H17.55l-5.94-1.693V43.234c2.9-.668,4.654-4.122,4.731-4.286a1.3,1.3,0,0,0,.068-.174l3.647-12.752c1.132.252,3.144,1.19,3.164,4.692L22.252,38.4a.965.965,0,0,0,.967,1.084H36.765a1.935,1.935,0,0,1,0,3.87H31.927a.967.967,0,1,0,0,1.935H35.8a1.935,1.935,0,1,1,0,3.87H30.96a.967.967,0,1,0,0,1.935h3.87a1.935,1.935,0,0,1,0,3.87H29.992a.967.967,0,0,0,0,1.935h3.87a1.935,1.935,0,1,1,0,3.87Z" transform="translate(0 -0.779)" fill="url(#linear-gradient)"/>
      <path id="Path_5944" data-name="Path 5944" d="M12.967,14.87h.967v.967a.967.967,0,0,0,1.935,0V14.87h.967a.967.967,0,1,0,0-1.935H15.87v-.967a.967.967,0,0,0-1.935,0v.967h-.967a.967.967,0,0,0,0,1.935Z" transform="translate(-0.39 -0.356)" fill="url(#linear-gradient)"/>
      <path id="Path_5945" data-name="Path 5945" d="M53.837,49.935H52.87v-.967a.967.967,0,0,0-1.935,0v.967h-.967a.967.967,0,1,0,0,1.935h.967v.967a.967.967,0,0,0,1.935,0V51.87h.967a.967.967,0,1,0,0-1.935Z" transform="translate(-1.593 -1.559)" fill="url(#linear-gradient)"/>
      <path id="Path_5946" data-name="Path 5946" d="M41.285,0A21.285,21.285,0,0,0,20,21.285a.967.967,0,0,0,1.935,0,19.35,19.35,0,1,1,23.036,19,.972.972,0,1,0,.184,1.935h.184A21.285,21.285,0,0,0,41.285,0Z" transform="translate(-0.65 0.001)" fill="url(#linear-gradient)"/>
      <path id="Path_5947" data-name="Path 5947" d="M50.415,25.285a7.74,7.74,0,0,0-7.74-7.74H40.74a1.935,1.935,0,1,1,0-3.87h6.772a2.9,2.9,0,1,0,0-5.8h-2.9v-2.9A.967.967,0,0,0,43.642,4h-3.87a.967.967,0,0,0-.967.967V8.122A7.74,7.74,0,0,0,40.74,23.35h1.935a1.935,1.935,0,1,1,0,3.87H35.9a2.9,2.9,0,1,0,0,5.8h2.9v2.9a.967.967,0,0,0,.967.967h3.87a.967.967,0,0,0,.967-.967V32.773a7.74,7.74,0,0,0,5.8-7.488Zm-6.908,5.737a.968.968,0,0,0-.832.967v2.97H40.74v-2.9a.967.967,0,0,0-.967-.967H35.9a.967.967,0,0,1,0-1.935h6.772a3.87,3.87,0,1,0,0-7.74H40.74a5.8,5.8,0,0,1-.832-11.542.967.967,0,0,0,.832-.967V5.935h1.935v2.9a.968.968,0,0,0,.967.967h3.87a.967.967,0,1,1,0,1.935H40.74a3.87,3.87,0,1,0,0,7.74h1.935a5.8,5.8,0,0,1,.832,11.542Z" transform="translate(-1.073 -0.129)" fill="url(#linear-gradient)"/>
    </g>
  </g>
</svg>
