<svg xmlns="http://www.w3.org/2000/svg" xmlns:xlink="http://www.w3.org/1999/xlink" width="142" height="142" viewBox="0 0 142 142">
  <defs>
    <filter id="Ellipse_40" x="0" y="0" width="142" height="142" filterUnits="userSpaceOnUse">
      <feOffset dy="3" input="SourceAlpha"/>
      <feGaussianBlur stdDeviation="3" result="blur"/>
      <feFlood flood-opacity="0.161"/>
      <feComposite operator="in" in2="blur"/>
      <feComposite in="SourceGraphic"/>
    </filter>
    <linearGradient id="linear-gradient" x1="-0.372" y1="-0.642" x2="1.056" y2="1.567" gradientUnits="objectBoundingBox">
      <stop offset="0" stop-color="#48a7ff"/>
      <stop offset="1" stop-color="#746fff"/>
    </linearGradient>
  </defs>
  <g id="AI_noithat" transform="translate(-843.074 -1694.074)">
    <g id="Group_14356" data-name="Group 14356" transform="translate(852 1700)">
      <g transform="matrix(1, 0, 0, 1, -8.93, -5.93)" filter="url(#Ellipse_40)">
        <circle id="Ellipse_40-2" data-name="Ellipse 40" cx="62" cy="62" r="62" transform="translate(9 6)" fill="#f5f9fc"/>
      </g>
      <circle id="Ellipse_41" data-name="Ellipse 41" cx="59.793" cy="59.793" r="59.793" transform="translate(2.491 2.491)" fill="none" stroke="#fff" stroke-width="3"/>
    </g>
    <g id="_x30_7_Sofa" transform="translate(847.849 1719.651)">
      <g id="Group_1700" data-name="Group 1700" transform="translate(30.801 15.9)">
        <path id="Path_753" data-name="Path 753" d="M188.627,282.588a5.09,5.09,0,0,0-4.211,2.233,5.09,5.09,0,0,0-4.211-2.233H169.163a5.064,5.064,0,0,0-4.3,2.358.881.881,0,0,0,1.487.945,3.311,3.311,0,0,1,2.81-1.541h11.042a3.334,3.334,0,0,1,3.33,3.33V297.5c-1.207-.605-.994-.22-14.954-.339a.881.881,0,1,0,0,1.762h13.532a1.423,1.423,0,0,1,1.421,1.421v2.138a.881.881,0,0,0,1.762,0v-2.138c.024-.1-.191-1.151.64-1.151h14.39a.881.881,0,1,0,0-1.762c-15.134.041-14.36-.089-15.03.1V287.68a3.334,3.334,0,0,1,3.33-3.33h11.042a3.3,3.3,0,0,1,2.827,1.573A.881.881,0,0,0,204,285a5.051,5.051,0,0,0-4.326-2.409H188.627Z" transform="translate(-143.415 -263.218)" fill="url(#linear-gradient)"/>
        <path id="Path_754" data-name="Path 754" d="M153.449,305.556a5.679,5.679,0,0,0-5.208,5.732v11.949a1.318,1.318,0,0,1-1.316,1.316h-34.4a1.318,1.318,0,0,1-1.316-1.316V311.288A5.679,5.679,0,0,0,106,305.556a5.582,5.582,0,0,0-1.189,11.092v10.518a3.791,3.791,0,0,0,2.978,3.7V333a3.391,3.391,0,1,0,6.782,0v-2.047h30.307V333a3.391,3.391,0,1,0,6.781,0v-2.136a3.791,3.791,0,0,0,2.979-3.7V316.648a5.582,5.582,0,0,0-1.19-11.092ZM112.81,333a1.629,1.629,0,0,1-3.257,0v-2.047h3.258V333Zm37.088,0a1.629,1.629,0,0,1-3.257,0v-2.047H149.9V333Zm3.958-18.053-.087,0a.841.841,0,0,0-.63.254.881.881,0,0,0-.262.627v11.343a2.026,2.026,0,0,1-2.024,2.024H108.6a2.026,2.026,0,0,1-2.024-2.024V315.822a.881.881,0,0,0-.881-.881h-.012l-.053,0a3.82,3.82,0,1,1,.258-7.631,3.915,3.915,0,0,1,3.562,3.974v11.949a3.082,3.082,0,0,0,3.078,3.078h34.4A3.082,3.082,0,0,0,150,323.237V311.288a3.915,3.915,0,0,1,3.562-3.974,3.821,3.821,0,1,1,.292,7.632Z" transform="translate(-88.686 -282.641)" fill="url(#linear-gradient)"/>
        <path id="Path_757" data-name="Path 757" d="M42.429,174.57a3.592,3.592,0,0,0,3.587-3.565h2.948c1.146,0,.846-1.426.881-1.565a7.424,7.424,0,0,0-6.535-7.359v-1.565a3.8,3.8,0,0,0-3.8-3.8H33.459a3.8,3.8,0,0,0-3.8,3.8v47.827H27.106a.881.881,0,1,0,0,1.762h6.866a.881.881,0,1,0,0-1.762H31.42V160.516a2.041,2.041,0,0,1,2.039-2.039H39.51a2.041,2.041,0,0,1,2.039,2.039v1.565a7.424,7.424,0,0,0-6.535,7.359v.684a.881.881,0,0,0,.881.881h2.947A3.592,3.592,0,0,0,42.429,174.57Zm0-1.762a1.829,1.829,0,0,1-1.826-1.8h3.653A1.829,1.829,0,0,1,42.429,172.808Zm0-9.022a5.661,5.661,0,0,1,5.651,5.458c-1.131-.011,4.148,0-11.3,0A5.661,5.661,0,0,1,42.43,163.786Z" transform="translate(-26.225 -156.715)" fill="url(#linear-gradient)"/>
      </g>
    </g>
  </g>
</svg>
