<svg xmlns="http://www.w3.org/2000/svg" xmlns:xlink="http://www.w3.org/1999/xlink" width="142" height="142" viewBox="0 0 142 142">
  <defs>
    <filter id="Ellipse_40" x="0" y="0" width="142" height="142" filterUnits="userSpaceOnUse">
      <feOffset dy="3" input="SourceAlpha"/>
      <feGaussianBlur stdDeviation="3" result="blur"/>
      <feFlood flood-opacity="0.161"/>
      <feComposite operator="in" in2="blur"/>
      <feComposite in="SourceGraphic"/>
    </filter>
    <linearGradient id="linear-gradient" x1="0.5" x2="1.401" y2="1.153" gradientUnits="objectBoundingBox">
      <stop offset="0" stop-color="#48a7ff"/>
      <stop offset="1" stop-color="#746fff"/>
    </linearGradient>
  </defs>
  <g id="AI_phaply" transform="translate(-843.074 -1694.074)">
    <g id="Group_14356" data-name="Group 14356" transform="translate(852 1700)">
      <g transform="matrix(1, 0, 0, 1, -8.93, -5.93)" filter="url(#Ellipse_40)">
        <circle id="Ellipse_40-2" data-name="Ellipse 40" cx="62" cy="62" r="62" transform="translate(9 6)" fill="#f5f9fc"/>
      </g>
      <circle id="Ellipse_41" data-name="Ellipse 41" cx="59.793" cy="59.793" r="59.793" transform="translate(2.491 2.491)" fill="none" stroke="#fff" stroke-width="3"/>
    </g>
    <g id="Group_14439" data-name="Group 14439" transform="translate(886.664 1729.768)">
      <path id="Path_743" data-name="Path 743" d="M51.987,55.231a.9.9,0,0,0-.9.9v3a1.15,1.15,0,0,1-1.151,1.151H9.359a1.15,1.15,0,0,1-1.151-1.151V4.054A1.15,1.15,0,0,1,9.359,2.9H49.949A1.15,1.15,0,0,1,51.1,4.054V22.72a.9.9,0,1,0,1.793,0V4.054A2.942,2.942,0,0,0,49.96,1.12H9.359A2.933,2.933,0,0,0,6.434,4.054v1.1h-1.1A2.933,2.933,0,0,0,2.41,8.089V63.148a2.939,2.939,0,0,0,2.924,2.934H45.925a2.942,2.942,0,0,0,2.934-2.934v-1.1h1.1a2.942,2.942,0,0,0,2.934-2.934v-3a.912.912,0,0,0-.907-.886Zm-4.911,7.916A1.15,1.15,0,0,1,45.925,64.3H5.334a1.15,1.15,0,0,1-1.151-1.151V8.079A1.15,1.15,0,0,1,5.334,6.927h1.1V59.113a2.942,2.942,0,0,0,2.934,2.934H47.076Z" transform="translate(0 0)" fill="url(#linear-gradient)"/>
      <path id="Path_744" data-name="Path 744" d="M64.047,28.763a6.509,6.509,0,0,0-12.868-.112,16.111,16.111,0,0,1-3.413,7.978l-.7.835L43.527,34.5a3,3,0,0,0-4.228.367L37.312,37.24a.9.9,0,0,0-.2.652.857.857,0,0,0,.316.6l.4.336-1.3,1.549a1.778,1.778,0,0,0,.224,2.506l11.482,9.649a1.752,1.752,0,0,0,1.141.418.933.933,0,0,0,.163-.01,1.735,1.735,0,0,0,1.2-.632l1.3-1.549.4.336A.865.865,0,0,0,53,51.31a.9.9,0,0,0,.683-.316l2-2.374a3.012,3.012,0,0,0-.367-4.228L51.78,41.427l.275-.326a18.645,18.645,0,0,1,7.866-5.329,6.419,6.419,0,0,0,2.68-1.905,6.513,6.513,0,0,0,1.447-5.1ZM50.669,49.619l-1.294,1.549L37.893,41.54l1.294-1.549,1.437,1.2Zm3.647-2.15L52.9,49.161,39.248,37.719l1.416-1.691a1.223,1.223,0,0,1,1.712-.153l4.218,3.546,1.671,1.4,5.889,4.941A1.215,1.215,0,0,1,54.317,47.469Zm6.908-14.743a4.719,4.719,0,0,1-1.946,1.386,20.337,20.337,0,0,0-8.6,5.848l-.275.326-1.966-1.651.7-.835a17.875,17.875,0,0,0,3.811-8.844,4.685,4.685,0,0,1,1.457-2.72,4.715,4.715,0,0,1,6.816,6.49Z" transform="translate(0.635 0.416)" fill="url(#linear-gradient)"/>
      <path id="Path_745" data-name="Path 745" d="M39.309,15.294a9.964,9.964,0,1,0-9.964,9.964A9.979,9.979,0,0,0,39.309,15.294Zm-9.964,8.192A8.181,8.181,0,1,1,37.526,15.3,8.188,8.188,0,0,1,29.344,23.486Z" transform="translate(0.32 0.079)" fill="url(#linear-gradient)"/>
      <path id="Path_746" data-name="Path 746" d="M32.395,11.855,27.647,16.6l-1.559-1.559a.893.893,0,1,0-1.263,1.263L27.015,18.5a.9.9,0,0,0,.632.265.863.863,0,0,0,.632-.265l5.38-5.38a.893.893,0,1,0-1.263-1.263Z" transform="translate(0.418 0.197)" fill="url(#linear-gradient)"/>
      <path id="Path_747" data-name="Path 747" d="M33.63,29.29H11.807a.9.9,0,1,0,0,1.793H33.641a.9.9,0,1,0-.01-1.793Z" transform="translate(0.16 0.531)" fill="url(#linear-gradient)"/>
      <path id="Path_748" data-name="Path 748" d="M33.63,34.3H11.807a.9.9,0,1,0,0,1.793H33.641a.9.9,0,1,0-.01-1.793Z" transform="translate(0.16 0.625)" fill="url(#linear-gradient)"/>
      <path id="Path_749" data-name="Path 749" d="M33.63,39.32H11.807a.9.9,0,1,0,0,1.793H33.641a.9.9,0,1,0-.01-1.793Z" transform="translate(0.16 0.72)" fill="url(#linear-gradient)"/>
      <path id="Path_750" data-name="Path 750" d="M34.527,45.237a.9.9,0,0,0-.9-.9H11.807a.9.9,0,1,0,0,1.793H33.641A.9.9,0,0,0,34.527,45.237Z" transform="translate(0.16 0.815)" fill="url(#linear-gradient)"/>
      <path id="Path_751" data-name="Path 751" d="M20.426,49.36H11.807a.9.9,0,1,0,0,1.793h8.619a.9.9,0,1,0,0-1.793Z" transform="translate(0.16 0.909)" fill="url(#linear-gradient)"/>
      <path id="Path_752" data-name="Path 752" d="M20.426,54.38H11.807a.9.9,0,1,0,0,1.793h8.619a.9.9,0,1,0,0-1.793Z" transform="translate(0.16 1.004)" fill="url(#linear-gradient)"/>
    </g>
  </g>
</svg>
