<svg xmlns="http://www.w3.org/2000/svg" xmlns:xlink="http://www.w3.org/1999/xlink" width="142" height="142" viewBox="0 0 142 142">
  <defs>
    <filter id="Ellipse_40" x="0" y="0" width="142" height="142" filterUnits="userSpaceOnUse">
      <feOffset dy="3" input="SourceAlpha"/>
      <feGaussianBlur stdDeviation="3" result="blur"/>
      <feFlood flood-opacity="0.161"/>
      <feComposite operator="in" in2="blur"/>
      <feComposite in="SourceGraphic"/>
    </filter>
    <linearGradient id="linear-gradient" x1="0.397" x2="0.815" y2="1" gradientUnits="objectBoundingBox">
      <stop offset="0" stop-color="#48a7ff"/>
      <stop offset="1" stop-color="#746fff"/>
    </linearGradient>
  </defs>
  <g id="AI_phuhop" transform="translate(-843.074 -1694.074)">
    <g id="Group_14356" data-name="Group 14356" transform="translate(852 1700)">
      <g transform="matrix(1, 0, 0, 1, -8.93, -5.93)" filter="url(#Ellipse_40)">
        <circle id="Ellipse_40-2" data-name="Ellipse 40" cx="62" cy="62" r="62" transform="translate(9 6)" fill="#f5f9fc"/>
      </g>
      <circle id="Ellipse_41" data-name="Ellipse 41" cx="59.793" cy="59.793" r="59.793" transform="translate(2.491 2.491)" fill="none" stroke="#fff" stroke-width="3"/>
    </g>
    <path id="Path_5968" data-name="Path 5968" d="M48.628,38.052a1.286,1.286,0,0,1,0,1.819l-7.214,7.214a1.286,1.286,0,0,1-1.819,0L35.209,42.7a1.286,1.286,0,0,1,1.819-1.819L40.5,44.357l6.3-6.3a1.286,1.286,0,0,1,1.819,0ZM54.9,42.569A12.985,12.985,0,0,1,38.14,54.99a36.951,36.951,0,0,1-16.38,4.018q-1.164,0-2.323-.082a40.01,40.01,0,0,1-18.7-6.613,1.286,1.286,0,0,1-.588-.96A24.308,24.308,0,0,1,3.237,36.52,19.6,19.6,0,0,1,13.61,28.1a16.884,16.884,0,0,1-3.55-7.062,14.482,14.482,0,0,1,.543-8.6C12.416,7.946,16.5,5.326,21.8,5.251h.036c5.3.075,9.379,2.695,11.191,7.187a14.481,14.481,0,0,1,.543,8.6,16.883,16.883,0,0,1-3.55,7.063,20.138,20.138,0,0,1,5.658,3.087A12.979,12.979,0,0,1,54.9,42.569ZM16.489,27.436c1.8,1.781,3.587,2.684,5.324,2.684s3.529-.9,5.324-2.684c3.853-3.821,5.292-9.593,3.5-14.035C29.212,9.87,26.079,7.89,21.813,7.824c-4.266.066-7.4,2.046-8.824,5.577C11.2,17.844,12.636,23.615,16.489,27.436ZM35.052,53.582a12.971,12.971,0,0,1-1.6-20.845,18.1,18.1,0,0,0-5.464-2.589,9.548,9.548,0,0,1-6.17,2.544,9.548,9.548,0,0,1-6.17-2.544C6.957,32.658,1.924,40.53,2.655,50.482c10.883,6.77,21.508,7.79,32.4,3.1ZM52.329,42.569A10.411,10.411,0,1,0,41.919,52.979,10.422,10.422,0,0,0,52.329,42.569Z" transform="translate(886.896 1729.688)" fill="url(#linear-gradient)"/>
  </g>
</svg>
