<svg xmlns="http://www.w3.org/2000/svg" xmlns:xlink="http://www.w3.org/1999/xlink" width="142" height="142" viewBox="0 0 142 142">
  <defs>
    <filter id="Ellipse_40" x="0" y="0" width="142" height="142" filterUnits="userSpaceOnUse">
      <feOffset dy="3" input="SourceAlpha"/>
      <feGaussianBlur stdDeviation="3" result="blur"/>
      <feFlood flood-opacity="0.161"/>
      <feComposite operator="in" in2="blur"/>
      <feComposite in="SourceGraphic"/>
    </filter>
    <linearGradient id="linear-gradient" x1="0.189" y1="0.05" x2="0.918" y2="0.92" gradientUnits="objectBoundingBox">
      <stop offset="0" stop-color="#48a7ff"/>
      <stop offset="1" stop-color="#746fff"/>
    </linearGradient>
  </defs>
  <g id="AI_tienich" transform="translate(-685.707 -1693.707)">
    <g id="Group_101" data-name="Group 101" transform="translate(695 1700)">
      <g transform="matrix(1, 0, 0, 1, -9.29, -6.29)" filter="url(#Ellipse_40)">
        <circle id="Ellipse_40-2" data-name="Ellipse 40" cx="62" cy="62" r="62" transform="translate(9 6)" fill="#f5f9fc"/>
      </g>
      <circle id="Ellipse_41" data-name="Ellipse 41" cx="59.44" cy="59.44" r="59.44" transform="translate(2.477 2.477)" fill="none" stroke="#fff" stroke-width="3"/>
    </g>
    <path id="Union_6" data-name="Union 6" d="M39.419,79.229a20.851,20.851,0,0,1-6.667-7.211,20.145,20.145,0,0,1-2.535-9.882.955.955,0,0,1,.956-.954,9.132,9.132,0,0,0,3.049-.568l.089-.028a18.961,18.961,0,0,0,5.012-2.271.952.952,0,0,1,1,0A18.957,18.957,0,0,0,45.3,60.578l.509.1a29.88,29.88,0,0,0,3,.5.957.957,0,0,1,.861.95v.125a20.313,20.313,0,0,1-2.534,9.82,20.1,20.1,0,0,1-6.681,7.158.956.956,0,0,1-1.045-.009ZM34.848,62.42a11.157,11.157,0,0,1-2.7.621,18.23,18.23,0,0,0,2.272,8.052,18.958,18.958,0,0,0,5.536,6.187,18.214,18.214,0,0,0,5.519-6.125,18.416,18.416,0,0,0,2.278-8.175c-.787-.115-1.537-.267-2.32-.426l-.535-.108-.058-.013a20.163,20.163,0,0,1-5.019-2.19A20.139,20.139,0,0,1,34.848,62.42Zm3.3,9.169-1.881-1.881a.955.955,0,0,1,1.351-1.351l1.206,1.206,4.338-4.34a.955.955,0,0,1,1.351,1.351L39.5,71.588a.953.953,0,0,1-1.35,0ZM6.547,52.9A2.677,2.677,0,0,1,4.27,50.226v-.5a2.685,2.685,0,0,1,1.254-2.3V46.59a7,7,0,0,0-2.1-4.967A11.844,11.844,0,0,1,.85,37.806a10.872,10.872,0,0,1-.84-4.671A11.394,11.394,0,0,1,10.695,22.318c.167-.008.329-.011.49-.011a11.217,11.217,0,0,1,7.977,3.316,11.139,11.139,0,0,1,3.314,7.929,10.96,10.96,0,0,1-3.423,8.084,7.086,7.086,0,0,0-2.217,4.955v.642a2.677,2.677,0,0,1,1.63,2.493v.5a2.748,2.748,0,0,1-2.71,2.71h-.071A4.59,4.59,0,0,1,6.547,52.9Zm4.57,2.26a2.683,2.683,0,0,0,2.617-2.1H8.5A2.682,2.682,0,0,0,11.117,55.163ZM6.181,49.725v.5a.756.756,0,0,0,.8.8h8.776a.842.842,0,0,0,.8-.8v-.5a.761.761,0,0,0-.4-.714.973.973,0,0,1-.27.04H6.518A.769.769,0,0,0,6.181,49.725ZM14.55,36.386a.954.954,0,0,1,0,1.35l-2.227,2.228v7.051h2.6V46.59a8.984,8.984,0,0,1,2.787-6.318.185.185,0,0,0,.023-.021,9.071,9.071,0,0,0,2.832-6.7,9.236,9.236,0,0,0-2.754-6.575,9.326,9.326,0,0,0-6.627-2.76c-.133,0-.271,0-.4.009a9.467,9.467,0,0,0-8.864,9,9.368,9.368,0,0,0,2.856,7.051,8.91,8.91,0,0,1,2.66,6.318v.424h2.979V39.966l-2.228-2.23a.954.954,0,0,1,1.35-1.35l1.834,1.832,1.83-1.832a.955.955,0,0,1,1.351,0ZM43.834,55.068H28.164a.956.956,0,0,1-.955-.956V40.3a2.16,2.16,0,0,1-1.4-1.254,2.329,2.329,0,0,1,.552-2.533.233.233,0,0,0,.02-.017l1.082-1.026c0-.012,0-.024,0-.036v-6.9a.956.956,0,0,1,.956-.956h4.262a.956.956,0,0,1,.954.956v1.078l4.9-4.648a2.165,2.165,0,0,1,3.088,0L53.523,36.5a.043.043,0,0,1,.012.009,2.262,2.262,0,0,1-.6,3.675V54.112a.956.956,0,0,1-.956.956Zm7.191-1.912V40.524H29.12V53.156h6.113V45.211a.955.955,0,0,1,.954-.954h7.648a.953.953,0,0,1,.954.954v7.946Zm-8.147,0v-6.99H37.142v6.99ZM27.7,37.87a.421.421,0,0,0-.132.443.341.341,0,0,0,.342.176H51.981a.325.325,0,0,0,.309-.21.359.359,0,0,0-.1-.413L40.286,26.34l-.011-.011a.264.264,0,0,0-.4,0l-.019.019-6.316,5.991a.958.958,0,0,1-.49.465Zm1.666-4.212,2.353-2.231V29.491H29.37ZM65.848,49.772a.954.954,0,0,1,0-1.35,3.78,3.78,0,0,1,2.77-1.124,3.451,3.451,0,0,1,2.506,1.164.956.956,0,0,1-1.428,1.27,1.555,1.555,0,0,0-1.134-.524,1.869,1.869,0,0,0-1.362.564.951.951,0,0,1-1.352,0Zm-4.135-4.138a.95.95,0,0,1,0-1.35,9.647,9.647,0,0,1,13.633,0,.954.954,0,0,1,0,1.35.955.955,0,0,1-1.351,0,7.741,7.741,0,0,0-10.933,0,.948.948,0,0,1-1.349,0ZM57.575,41.5a.954.954,0,0,1,0-1.351,15.557,15.557,0,0,1,21.908,0A.955.955,0,0,1,78.132,41.5a13.644,13.644,0,0,0-19.207,0,.953.953,0,0,1-1.35,0ZM36.611,33.426a3.341,3.341,0,0,1,3.338-3.337,3.263,3.263,0,0,1,3.336,3.337,3.337,3.337,0,0,1-6.674,0Zm1.911,0a1.426,1.426,0,1,0,2.853,0A1.35,1.35,0,0,0,39.949,32,1.43,1.43,0,0,0,38.521,33.426Zm1-12.3a1.587,1.587,0,0,0-.794-1.155,1.175,1.175,0,0,0-1.021.882.956.956,0,0,1-1.145.587,10.3,10.3,0,0,1-4.014-2.209.962.962,0,0,1-.2-1.194c.373-.649.388-1.213.21-1.437a.662.662,0,0,0-.574-.229,2.134,2.134,0,0,0-.727.151.955.955,0,0,1-1.19-.468A12.3,12.3,0,0,1,28.844,11.7a.951.951,0,0,1,.719-1.013,1.581,1.581,0,0,0,1.153-.795,1.168,1.168,0,0,0-.879-1.018.959.959,0,0,1-.587-1.147,10.275,10.275,0,0,1,2.209-4.013.954.954,0,0,1,1.192-.2,2.213,2.213,0,0,0,1.036.318.67.67,0,0,0,.4-.11c.392-.314.186-1.015.078-1.3a.956.956,0,0,1,.467-1.191A12.335,12.335,0,0,1,38.984,0c.03,0,.059,0,.088,0A.952.952,0,0,1,40,.723a1.59,1.59,0,0,0,.8,1.155A1.174,1.174,0,0,0,41.812,1,.957.957,0,0,1,42.958.409,10.3,10.3,0,0,1,46.97,2.618a.955.955,0,0,1,.2,1.192c-.373.651-.386,1.215-.21,1.439a.712.712,0,0,0,.543.2,1.808,1.808,0,0,0,.792-.208.957.957,0,0,1,1.283.426A12.329,12.329,0,0,1,50.8,10.02a.959.959,0,0,1-.719,1.015A1.757,1.757,0,0,0,48.808,12a1.181,1.181,0,0,0,.876.975.957.957,0,0,1,.588,1.147,10.265,10.265,0,0,1-2.21,4.013.954.954,0,0,1-1.192.2,2.216,2.216,0,0,0-1.033-.32.666.666,0,0,0-.4.112c-.394.314-.186,1.015-.078,1.3a.956.956,0,0,1-.468,1.191,12.328,12.328,0,0,1-4.353,1.225c-.028,0-.059,0-.086,0A.956.956,0,0,1,39.522,21.121Zm-.546-3.055a2.946,2.946,0,0,1,2.114,1.779,10.466,10.466,0,0,0,2.247-.625,2.663,2.663,0,0,1,.9-2.587,2.51,2.51,0,0,1,1.6-.53,3.682,3.682,0,0,1,1.231.223,8.418,8.418,0,0,0,1.122-1.993,2.948,2.948,0,0,1-1.3-2.472.981.981,0,0,1,.036-.261,3.371,3.371,0,0,1,1.881-2.133,10.38,10.38,0,0,0-.6-2.184,3.336,3.336,0,0,1-.7.076,2.529,2.529,0,0,1-2.032-.918,2.9,2.9,0,0,1-.307-2.83,8.448,8.448,0,0,0-1.992-1.121,2.952,2.952,0,0,1-2.472,1.3.858.858,0,0,1-.157-.013A2.956,2.956,0,0,1,38.429,2a10.461,10.461,0,0,0-2.244.625,2.669,2.669,0,0,1-.9,2.587,2.513,2.513,0,0,1-1.595.53,3.7,3.7,0,0,1-1.234-.225A8.484,8.484,0,0,0,31.329,7.51a2.945,2.945,0,0,1,1.3,2.472,1.088,1.088,0,0,1-.013.157,2.946,2.946,0,0,1-1.781,2.112,10.443,10.443,0,0,0,.626,2.245,3.527,3.527,0,0,1,.522-.04,2.573,2.573,0,0,1,2.064.946,2.888,2.888,0,0,1,.3,2.828,8.527,8.527,0,0,0,1.993,1.122,2.951,2.951,0,0,1,2.471-1.3A.867.867,0,0,1,38.976,18.066Zm.365-2.245a4.878,4.878,0,0,1-3.348-1.872,5.091,5.091,0,0,1-1-3.7,4.874,4.874,0,0,1,1.653-3.168A5.062,5.062,0,0,1,39.96,5.866a5.675,5.675,0,0,1,.594.032A4.9,4.9,0,0,1,43.847,7.76a5.045,5.045,0,0,1,1.061,3.706,4.885,4.885,0,0,1-1.652,3.17,5.079,5.079,0,0,1-3.319,1.217A5.677,5.677,0,0,1,39.341,15.822Zm-2.455-5.358a3.193,3.193,0,0,0,.623,2.321,2.95,2.95,0,0,0,2.042,1.138,3.283,3.283,0,0,0,.384.023,3.023,3.023,0,0,0,3.075-2.69,3.159,3.159,0,0,0-.663-2.311A3,3,0,0,0,40.338,7.8a3.564,3.564,0,0,0-.378-.021A3.02,3.02,0,0,0,36.887,10.463Z" transform="translate(719.912 1722.012)" fill="url(#linear-gradient)"/>
  </g>
</svg>
