<svg xmlns="http://www.w3.org/2000/svg" width="18" height="16" viewBox="0 0 18 16">
  <g id="bathroom" transform="translate(-2 -5.426)">
    <path id="Path_708" data-name="Path 708" d="M42.125,21.473v-.9a.3.3,0,1,0-.6,0v.9a.3.3,0,1,0,.6,0Z" transform="translate(-27.668 -10.376)"/>
    <path id="Path_709" data-name="Path 709" d="M36.852,21.771a.3.3,0,0,0,.3-.3v-.9a.3.3,0,1,0-.6,0v.9A.3.3,0,0,0,36.852,21.771Z" transform="translate(-24.186 -10.376)"/>
    <path id="Path_710" data-name="Path 710" d="M47.1,21.473v-.9a.3.3,0,1,0-.6,0v.9a.3.3,0,1,0,.6,0Z" transform="translate(-31.149 -10.376)"/>
    <path id="Path_711" data-name="Path 711" d="M18.987,13.162h-1.8V7.1a1.665,1.665,0,0,0-3.322-.17,1.8,1.8,0,0,0-1.5,1.773v.2a.3.3,0,0,0,.3.3H15.65a.3.3,0,0,0,.3-.3V8.7a1.8,1.8,0,0,0-1.475-1.769,1.063,1.063,0,0,1,2.114.166v6.065H3.013a1.016,1.016,0,0,0,0,2.033h0v2.366a2.534,2.534,0,0,0,1.661,2.377v.45a1.036,1.036,0,1,0,2.073,0v-.294h8.5v.294a1.036,1.036,0,1,0,2.073,0v-.45a2.534,2.534,0,0,0,1.661-2.377V15.195h0a1.016,1.016,0,0,0,0-2.033ZM15.346,8.6H12.97A1.2,1.2,0,0,1,14.143,7.5c.005,0,.01,0,.015,0s.01,0,.015,0A1.2,1.2,0,0,1,15.346,8.6Zm-9.2,11.789a.436.436,0,0,1-.873,0v-.308a2.529,2.529,0,0,0,.262.014h.61Zm10.575,0a.436.436,0,0,1-.873,0v-.294h.611a2.533,2.533,0,0,0,.262-.014Zm1.661-2.827a1.929,1.929,0,0,1-1.923,1.93H5.538a1.929,1.929,0,0,1-1.923-1.93V15.195h14.77Zm.6-2.969H3.013a.414.414,0,0,1,0-.829H18.987a.414.414,0,0,1,0,.829Z"/>
  </g>
</svg>
