<svg xmlns="http://www.w3.org/2000/svg" width="24" height="16" viewBox="0 0 24 16">
  <path id="bedroom" d="M24.718,16.838a1.284,1.284,0,0,0-1.281,1.283v1.511H9.21c.041-.033.086-.061.126-.095a7.238,7.238,0,0,0,.852-.839.582.582,0,0,0-.005-.767A6.323,6.323,0,0,0,4.56,15.788V13.317a1.281,1.281,0,1,0-2.562,0V27.633a.4.4,0,0,0,.4.4H4.16a.4.4,0,0,0,.4-.4V25.485H23.436v2.149a.4.4,0,0,0,.4.4H25.6a.4.4,0,0,0,.4-.4V18.122a1.284,1.284,0,0,0-1.281-1.283Zm-17.827-.1A5.59,5.59,0,0,1,9.454,18.32a6.313,6.313,0,0,1-1.682,1.313H4.561V16.6A5.57,5.57,0,0,1,6.89,16.742Zm-3.13,10.49H2.8V13.317a.481.481,0,1,1,.962,0V27.232Zm.8-2.549V20.434H23.437v4.249ZM25.2,27.232h-.962v-9.11a.481.481,0,1,1,.962,0v9.11Z" transform="translate(-1.998 -12.034)"/>
</svg>
