<svg id="btn_previous" xmlns="http://www.w3.org/2000/svg" width="48" height="48" viewBox="0 0 48 48">
  <rect id="Rectangle_554" data-name="Rectangle 554" width="48" height="48" rx="6" fill="none"/>
  <path id="Path_699" data-name="Path 699" d="M11.672,108.2a1.813,1.813,0,0,1-1.156-.4L.48,99.46a1.2,1.2,0,0,1,0-1.922,1.878,1.878,0,0,1,2.312,0l8.881,7.383,8.881-7.383a1.878,1.878,0,0,1,2.312,0,1.2,1.2,0,0,1,0,1.922L12.828,107.8A1.813,1.813,0,0,1,11.672,108.2Z" transform="translate(126.172 12.328) rotate(90)" fill="#1d1d44"/>
</svg>
