<svg xmlns="http://www.w3.org/2000/svg" xmlns:xlink="http://www.w3.org/1999/xlink" width="142" height="36" viewBox="0 0 142 36">
  <defs>
    <clipPath id="clip-path">
      <rect id="Rectangle_41" data-name="Rectangle 41" width="138.246" height="35.46" transform="translate(0 0)" fill="none"/>
    </clipPath>
  </defs>
  <g id="footer_logo" transform="translate(-1696 51)">
    <rect id="Rectangle_42" data-name="Rectangle 42" width="142" height="36" transform="translate(1696 -51)" fill="none"/>
    <g id="Group_513" data-name="Group 513" transform="translate(1698 -51)">
      <g id="Group_510" data-name="Group 510" transform="translate(0 0)" clip-path="url(#clip-path)">
        <path id="Path_242" data-name="Path 242" d="M158.068,34.369a4.023,4.023,0,0,1-2.121,3.668,8.3,8.3,0,0,1-4.325,1.04h-7.39v3.051h-3.257V29.661h10.647a8.57,8.57,0,0,1,4.325,1,4.057,4.057,0,0,1,2.121,3.709m-3.243,0a1.2,1.2,0,0,0-.848-1.095,3.924,3.924,0,0,0-1.793-.369h-7.952v2.887h7.952a4.339,4.339,0,0,0,1.793-.328,1.219,1.219,0,0,0,.848-1.095" transform="translate(-101.202 -21.293)" fill="#005ebc"/>
        <path id="Path_243" data-name="Path 243" d="M224.183,34.369a4.157,4.157,0,0,1-2.71,3.969l1.875,3.846h-3.64l-1.519-3.107h-7.842v3.079H207.09V29.661h10.88a7.617,7.617,0,0,1,4.174,1.122,4.026,4.026,0,0,1,2.039,3.586m-3.243,0q0-.739-1.177-1.15a5.713,5.713,0,0,0-1.793-.287h-7.623V35.82h7.6a5.555,5.555,0,0,0,1.82-.3q1.177-.4,1.177-1.149" transform="translate(-148.664 -21.293)" fill="#005ebc"/>
        <path id="Path_244" data-name="Path 244" d="M292.378,35.9a6.038,6.038,0,0,1-6.227,6.227h-7.417a6.094,6.094,0,0,1-4.475-1.766,6.022,6.022,0,0,1-1.779-4.461,6.06,6.06,0,0,1,6.254-6.24h7.417a6.039,6.039,0,0,1,6.227,6.24m-3.244,0a2.9,2.9,0,0,0-.814-2.169,3.09,3.09,0,0,0-2.2-.828h-7.39a3.065,3.065,0,0,0-2.19.828,3.327,3.327,0,0,0,0,4.345,2.989,2.989,0,0,0,2.19.794h7.39a3.013,3.013,0,0,0,2.2-.794,2.9,2.9,0,0,0,.814-2.176" transform="translate(-195.605 -21.294)" fill="#005ebc"/>
        <path id="Path_245" data-name="Path 245" d="M362.648.193q3.49,0,4.516,2.641a2.834,2.834,0,0,1,.1.972q-.192,1.9-4.462,3.777a5.671,5.671,0,0,1-2.326.547q-.369-.068-.164-.315.452-.274,2.573-1.574,2.724-1.97,2.724-2.778,0-.52-1.41-.629h-1q-6.856,0-13.781,4.831-1.71,1.451-1.711,2.573,0,1.259,5.68,2.559,4.6,1.41,4.6,3.969,0,2.97-4.982,5.446a10.3,10.3,0,0,1-4.051,1.095q-2.82-.233-3.134-1.738a1.745,1.745,0,0,1,0-.753q1.135-3.7,15.683-7.281.562-.178.561.15-5.31,1.78-8.519,2.949a21.286,21.286,0,0,0-5.008,2.456q-1.8,1.287-1.457,1.957a.7.7,0,0,0,.629.151q3.148,0,7.076-2.833a3.415,3.415,0,0,0,1.327-2.012q.083-1.848-5.761-3.011-4.667-1.3-4.667-3.421,0-5.16,10.018-8.458A31.413,31.413,0,0,1,362.648.193" transform="translate(-248.152 -0.139)" fill="#005ebc"/>
        <path id="Path_246" data-name="Path 246" d="M422,42.129h-3.243V39.077H408.162v3.052H404.9V35.123a4.659,4.659,0,0,1,2.668-4.229,10.318,10.318,0,0,1,5.119-1.231h1.546a10.2,10.2,0,0,1,5.132,1.231A4.628,4.628,0,0,1,422,35.123Zm-3.243-6.336v-.67q0-1.15-1.766-1.766a8.324,8.324,0,0,0-2.751-.452h-1.546a5.665,5.665,0,0,0-3.832,1.04,1.817,1.817,0,0,0-.7,1.2v.643Z" transform="translate(-290.67 -21.294)" fill="#005ebc"/>
        <rect id="Rectangle_40" data-name="Rectangle 40" width="3.257" height="12.495" transform="translate(133.573 8.368)" fill="#005ebc"/>
        <path id="Path_249" data-name="Path 249" d="M2.068-2.809V-7.82H.42v-.874H4.674v.874h-1.7v5.011Zm3.489,0V-7.223h.866v4.414ZM6.4-7.9l-1.463-.79.547-.689,1.2,1.051Zm1.2,5.1V-7.223h.874v.942l-.16.1a1.422,1.422,0,0,1,.214-.42,1.621,1.621,0,0,1,.362-.357,1.935,1.935,0,0,1,.462-.248A1.445,1.445,0,0,1,9.862-7.3a1.633,1.633,0,0,1,.664.126A1.15,1.15,0,0,1,11-6.794a1.664,1.664,0,0,1,.269.631L11.132-6.2l.059-.143a1.421,1.421,0,0,1,.256-.366,2.006,2.006,0,0,1,.374-.307,1.9,1.9,0,0,1,.446-.21,1.506,1.506,0,0,1,.462-.076,1.525,1.525,0,0,1,.82.2,1.231,1.231,0,0,1,.488.614A2.79,2.79,0,0,1,14.2-5.458v2.648h-.874v-2.6a1.671,1.671,0,0,0-.1-.618.715.715,0,0,0-.29-.357.942.942,0,0,0-.5-.118A1.21,1.21,0,0,0,12-6.42a1.086,1.086,0,0,0-.357.223,1.025,1.025,0,0,0-.235.332,1.013,1.013,0,0,0-.084.416v2.64h-.874V-5.424a1.506,1.506,0,0,0-.1-.584.786.786,0,0,0-.294-.366A.843.843,0,0,0,9.585-6.5a1.177,1.177,0,0,0-.437.08,1.135,1.135,0,0,0-.353.219.98.98,0,0,0-.235.328.993.993,0,0,0-.084.408v2.657Zm10.115,0V-7.223h.866v.908l-.151.1a1.269,1.269,0,0,1,.328-.542,1.955,1.955,0,0,1,.58-.4,1.626,1.626,0,0,1,.689-.156,1.637,1.637,0,0,1,.841.2,1.21,1.21,0,0,1,.5.6A2.661,2.661,0,0,1,21.541-5.5v2.691h-.866V-5.441a1.675,1.675,0,0,0-.1-.626.687.687,0,0,0-.311-.362.973.973,0,0,0-.521-.1,1.292,1.292,0,0,0-.462.08,1.124,1.124,0,0,0-.366.223,1.05,1.05,0,0,0-.244.332.952.952,0,0,0-.088.408v2.674h-.866Zm5,0V-9.031h.866v2.716l-.151.1a1.269,1.269,0,0,1,.328-.542,1.955,1.955,0,0,1,.58-.4,1.626,1.626,0,0,1,.689-.156,1.637,1.637,0,0,1,.841.2,1.21,1.21,0,0,1,.5.6A2.661,2.661,0,0,1,26.543-5.5v2.691h-.866V-5.441a1.675,1.675,0,0,0-.1-.626.687.687,0,0,0-.311-.362.973.973,0,0,0-.521-.1,1.292,1.292,0,0,0-.462.08,1.124,1.124,0,0,0-.366.223,1.051,1.051,0,0,0-.244.332.952.952,0,0,0-.088.408v2.674h-.866Zm6.7.084a1.746,1.746,0,0,1-1-.3,2.17,2.17,0,0,1-.719-.824,2.529,2.529,0,0,1-.269-1.177,2.49,2.49,0,0,1,.273-1.181,2.094,2.094,0,0,1,.74-.811,1.922,1.922,0,0,1,1.047-.294,1.884,1.884,0,0,1,.631.1,1.587,1.587,0,0,1,.5.282,1.612,1.612,0,0,1,.353.416,1.3,1.3,0,0,1,.172.5l-.193-.067V-7.223h.874v4.414h-.874V-3.86l.2-.059a1.191,1.191,0,0,1-.206.441,1.66,1.66,0,0,1-.4.383,2.141,2.141,0,0,1-.53.269A1.842,1.842,0,0,1,29.419-2.725Zm.227-.8a1.268,1.268,0,0,0,.7-.193,1.332,1.332,0,0,0,.475-.534,1.7,1.7,0,0,0,.172-.778,1.654,1.654,0,0,0-.172-.765,1.339,1.339,0,0,0-.475-.53,1.268,1.268,0,0,0-.7-.193,1.232,1.232,0,0,0-.685.193,1.35,1.35,0,0,0-.471.53,1.654,1.654,0,0,0-.172.765,1.7,1.7,0,0,0,.172.778,1.344,1.344,0,0,0,.471.534A1.232,1.232,0,0,0,29.646-3.524ZM30.2-7.9l-1.463-.79.547-.689,1.2,1.051Zm6.743,5.179a1.512,1.512,0,0,1-.82-.219,1.438,1.438,0,0,1-.538-.614A2.163,2.163,0,0,1,35.4-4.5V-7.223h.866v2.489a1.675,1.675,0,0,0,.122.668.954.954,0,0,0,.353.433,1,1,0,0,0,.559.151,1.2,1.2,0,0,0,.446-.08,1.048,1.048,0,0,0,.349-.223,1.022,1.022,0,0,0,.231-.345,1.125,1.125,0,0,0,.084-.437V-7.223a1.032,1.032,0,0,0,.366-.059.6.6,0,0,0,.256-.181.809.809,0,0,0,.151-.3,1.553,1.553,0,0,0,.05-.416h.689a2.1,2.1,0,0,1-.088.622,1.219,1.219,0,0,1-.286.492,1.2,1.2,0,0,1-.525.307l.252-.479v4.431h-.866V-3.894l.109.168a1.478,1.478,0,0,1-.357.513,1.81,1.81,0,0,1-.551.357A1.7,1.7,0,0,1,36.944-2.725Zm3.54-.084V-7.223h.866v.908l-.151.1a1.269,1.269,0,0,1,.328-.542,1.955,1.955,0,0,1,.58-.4,1.626,1.626,0,0,1,.689-.156,1.637,1.637,0,0,1,.841.2,1.21,1.21,0,0,1,.5.6A2.661,2.661,0,0,1,44.309-5.5v2.691h-.866V-5.441a1.675,1.675,0,0,0-.1-.626.687.687,0,0,0-.311-.362.973.973,0,0,0-.521-.1,1.292,1.292,0,0,0-.462.08,1.124,1.124,0,0,0-.366.223,1.051,1.051,0,0,0-.244.332.952.952,0,0,0-.088.408v2.674h-.866ZM47.462-.875a3.1,3.1,0,0,1-.937-.147,2.227,2.227,0,0,1-.753-.383l.319-.673a1.891,1.891,0,0,0,.4.223,2.654,2.654,0,0,0,.479.151,2.338,2.338,0,0,0,.5.055,1.762,1.762,0,0,0,.774-.151,1.037,1.037,0,0,0,.471-.446,1.518,1.518,0,0,0,.16-.731v-.849l.092.059a.941.941,0,0,1-.273.5,1.787,1.787,0,0,1-.576.391,1.741,1.741,0,0,1-.706.151,2.12,2.12,0,0,1-1.122-.3,2.154,2.154,0,0,1-.778-.816,2.4,2.4,0,0,1-.286-1.181A2.429,2.429,0,0,1,45.5-6.2a2.123,2.123,0,0,1,.774-.816,2.089,2.089,0,0,1,1.106-.3,1.877,1.877,0,0,1,.488.063,1.879,1.879,0,0,1,.437.177,2.342,2.342,0,0,1,.362.248,1.37,1.37,0,0,1,.261.286.785.785,0,0,1,.126.286l-.185.067V-7.223h.866v4.145a2.619,2.619,0,0,1-.156.937,1.853,1.853,0,0,1-.45.689,1.948,1.948,0,0,1-.715.429A2.865,2.865,0,0,1,47.462-.875ZM47.5-3.524a1.385,1.385,0,0,0,.731-.193,1.329,1.329,0,0,0,.5-.53A1.64,1.64,0,0,0,48.9-5.02a1.633,1.633,0,0,0-.181-.778,1.361,1.361,0,0,0-.5-.534,1.363,1.363,0,0,0-.727-.193,1.325,1.325,0,0,0-.719.2,1.392,1.392,0,0,0-.5.538,1.615,1.615,0,0,0-.181.769,1.615,1.615,0,0,0,.181.769,1.361,1.361,0,0,0,.5.534A1.347,1.347,0,0,0,47.5-3.524ZM54.037-.875l.891-2.06.008.689-2.2-4.977h1.009l1.379,3.245a2.22,2.22,0,0,1,.1.256q.059.172.1.341l-.219.05q.067-.177.13-.353t.122-.353l1.152-3.187h1.026L55.718-2.809,54.97-.875ZM54.55-7.9l-.286-.429,1.2-1.051.547.689Zm3.767,6.6L58-1.691a1.768,1.768,0,0,0,.479-.387.634.634,0,0,0,.185-.378.348.348,0,0,0-.042-.164,1.175,1.175,0,0,0-.177-.223.99.99,0,0,1-.219-.269.555.555,0,0,1-.05-.235.4.4,0,0,1,.143-.324.55.55,0,0,1,.37-.122.647.647,0,0,1,.383.122.808.808,0,0,1,.269.336,1.185,1.185,0,0,1,.1.492,1.439,1.439,0,0,1-.084.488,1.65,1.65,0,0,1-.235.437,1.959,1.959,0,0,1-.353.362A1.664,1.664,0,0,1,58.316-1.3Zm6.34-1.421a2.024,2.024,0,0,1-1.1-.3,2.168,2.168,0,0,1-.765-.824,2.418,2.418,0,0,1-.282-1.169,2.418,2.418,0,0,1,.282-1.169,2.168,2.168,0,0,1,.765-.824,2.024,2.024,0,0,1,1.1-.3,2.38,2.38,0,0,1,1.072.24,1.744,1.744,0,0,1,.736.652l-.479.589a1.577,1.577,0,0,0-.345-.353,1.856,1.856,0,0,0-.446-.252,1.239,1.239,0,0,0-.454-.092,1.325,1.325,0,0,0-.719.2,1.416,1.416,0,0,0-.5.542,1.61,1.61,0,0,0-.185.774,1.53,1.53,0,0,0,.193.769,1.513,1.513,0,0,0,.513.542,1.3,1.3,0,0,0,.706.2,1.317,1.317,0,0,0,.441-.076,1.559,1.559,0,0,0,.416-.227,2.137,2.137,0,0,0,.378-.37l.479.589a1.985,1.985,0,0,1-.769.622A2.343,2.343,0,0,1,64.656-2.725Zm4.608,0a2.241,2.241,0,0,1-1.156-.3,2.178,2.178,0,0,1-.8-.816A2.346,2.346,0,0,1,67.01-5.02,2.346,2.346,0,0,1,67.3-6.2a2.178,2.178,0,0,1,.8-.816,2.241,2.241,0,0,1,1.156-.3,2.225,2.225,0,0,1,1.148.3,2.178,2.178,0,0,1,.8.816,2.346,2.346,0,0,1,.294,1.181,2.346,2.346,0,0,1-.294,1.181,2.178,2.178,0,0,1-.8.816A2.225,2.225,0,0,1,69.263-2.725Zm0-.79a1.289,1.289,0,0,0,.706-.2,1.372,1.372,0,0,0,.488-.538,1.577,1.577,0,0,0,.168-.769,1.6,1.6,0,0,0-.168-.778,1.341,1.341,0,0,0-.488-.534,1.31,1.31,0,0,0-.706-.193,1.31,1.31,0,0,0-.71.2,1.361,1.361,0,0,0-.492.538,1.577,1.577,0,0,0-.168.769,1.577,1.577,0,0,0,.168.769,1.361,1.361,0,0,0,.492.538A1.31,1.31,0,0,0,69.263-3.515ZM68.675-7.9l-.286-.429,1.2-1.051.547.689Zm5.734,5.1,2.279-5.885h.925l2.262,5.885h-.967L77.562-6.357q-.025-.059-.1-.286t-.164-.5q-.092-.277-.168-.509t-.1-.3l.193-.008q-.05.143-.122.362l-.151.462q-.08.244-.156.458l-.126.357L75.334-2.809Zm1.009-1.463.336-.874h2.674l.387.874ZM80.69-2.809V-3.65h.95v-4.2h-.95v-.841H83.5v.841h-.95v4.2h.95v.841Zm6.39,0V-9.031h.866v6.222ZM91-2.725a2.241,2.241,0,0,1-1.156-.3,2.178,2.178,0,0,1-.8-.816,2.346,2.346,0,0,1-.294-1.181A2.346,2.346,0,0,1,89.039-6.2a2.178,2.178,0,0,1,.8-.816A2.241,2.241,0,0,1,91-7.316a2.225,2.225,0,0,1,1.148.3,2.178,2.178,0,0,1,.8.816,2.346,2.346,0,0,1,.294,1.181,2.346,2.346,0,0,1-.294,1.181,2.178,2.178,0,0,1-.8.816A2.225,2.225,0,0,1,91-2.725Zm0-.79a1.289,1.289,0,0,0,.706-.2,1.372,1.372,0,0,0,.488-.538,1.577,1.577,0,0,0,.168-.769,1.6,1.6,0,0,0-.168-.778,1.341,1.341,0,0,0-.488-.534A1.31,1.31,0,0,0,91-6.525a1.31,1.31,0,0,0-.71.2,1.361,1.361,0,0,0-.492.538,1.577,1.577,0,0,0-.168.769,1.577,1.577,0,0,0,.168.769,1.361,1.361,0,0,0,.492.538A1.31,1.31,0,0,0,91-3.515Z" transform="translate(39.647 35.763)"/>
        <path id="Path_247" data-name="Path 247" d="M473.7,3.405c-1.8.368-2.365.935-2.733,2.733a.244.244,0,0,1-.478,0c-.368-1.8-.935-2.365-2.733-2.733a.244.244,0,0,1,0-.478c1.8-.368,2.365-.935,2.733-2.733a.244.244,0,0,1,.478,0c.368,1.8.935,2.365,2.733,2.733a.244.244,0,0,1,0,.478" transform="translate(-335.648 0)" fill="#0360bc"/>
        <path id="Path_248" data-name="Path 248" d="M15.945,26.648V21.995L4.029,15.115V11.726L15.945,4.847,27.86,11.726v1.62l4.03,2.327V9.4L23.918,4.8,15.945.194,7.972,4.8,0,9.4v8.042L4.588,20.09h0ZM0,33.088H31.89V20.326L27.86,18,15.945,11.12v4.653L27.86,22.652v6.407H4.029V24.421L0,22.095Z" transform="translate(0 -0.139)" fill="#005ebc" fill-rule="evenodd"/>
      </g>
    </g>
  </g>
</svg>
