<svg xmlns="http://www.w3.org/2000/svg" width="24" height="24" viewBox="0 0 24 24">
  <g id="icon_quanlybaidang" transform="translate(-3025 150)">
    <rect id="Rectangle_637" data-name="Rectangle 637" width="24" height="24" transform="translate(3025 -150)" fill="none"/>
    <g id="Group_1819" data-name="Group 1819" transform="translate(3028 -148)">
      <path id="Path_816" data-name="Path 816" d="M15.388,0H2.231A2.234,2.234,0,0,0,0,2.231V16.465a1.155,1.155,0,0,0,1.154,1.154H6.207a.385.385,0,1,0,0-.769H1.154a.385.385,0,0,1-.385-.385V2.231A1.464,1.464,0,0,1,2.231.769H13.7a2.222,2.222,0,0,0-.548,1.462v12.4a.644.644,0,0,1-1.254.2l-.58-1.74a1.2,1.2,0,0,0-2.34.38v.3H6.989a.385.385,0,1,0,0,.769H8.983v1.914A4.257,4.257,0,0,0,9.312,18.1l.566,1.358a.385.385,0,1,0,.71-.3l-.566-1.358a3.493,3.493,0,0,1-.27-1.35V13.473a.431.431,0,0,1,.84-.136l.58,1.74a1.413,1.413,0,0,0,2.754-.447v-6.6l.514.513a4.813,4.813,0,0,1,1.422,3.429v4.089a7.239,7.239,0,0,1-.694,3.082.385.385,0,1,0,.7.33,8.014,8.014,0,0,0,.768-3.412V11.976A5.577,5.577,0,0,0,14.984,8L13.926,6.946V6.578h2.539a1.155,1.155,0,0,0,1.154-1.154V2.231A2.234,2.234,0,0,0,15.388,0ZM16.85,5.424a.385.385,0,0,1-.385.385H13.926V2.231a1.462,1.462,0,1,1,2.924,0Zm0,0"/>
      <path id="Path_817" data-name="Path 817" d="M195.385,438a.385.385,0,1,0,.272.113A.388.388,0,0,0,195.385,438Zm0,0" transform="translate(-187.498 -421.146)"/>
      <path id="Path_818" data-name="Path 818" d="M56.9,54.769A.77.77,0,0,0,56.13,54H54.437a.77.77,0,0,0-.769.769v1.693a.77.77,0,0,0,.769.769H56.13a.77.77,0,0,0,.769-.769Zm-.769,1.693H54.437V54.769H56.13v1.693Zm0,0" transform="translate(-51.603 -51.923)"/>
      <path id="Path_819" data-name="Path 819" d="M56.9,174.769A.77.77,0,0,0,56.13,174H54.437a.77.77,0,0,0-.769.769v1.693a.77.77,0,0,0,.769.769H56.13a.77.77,0,0,0,.769-.769Zm-.769,1.693H54.437v-1.693H56.13v1.693Zm0,0" transform="translate(-51.603 -167.306)"/>
      <path id="Path_820" data-name="Path 820" d="M56.13,294H54.437a.77.77,0,0,0-.769.769v1.693a.77.77,0,0,0,.769.769H56.13a.77.77,0,0,0,.769-.769v-1.693A.77.77,0,0,0,56.13,294Zm0,2.462H54.437v-1.693H56.13v1.693Zm0,0" transform="translate(-51.603 -282.69)"/>
      <path id="Path_821" data-name="Path 821" d="M220.431,118.769a.385.385,0,0,0,0-.769h-2.652a.385.385,0,0,0,0,.769Zm0,0" transform="translate(-209.031 -113.46)"/>
      <path id="Path_822" data-name="Path 822" d="M172.053,118.769a.385.385,0,1,0-.272-.113A.388.388,0,0,0,172.053,118.769Zm0,0" transform="translate(-165.064 -113.46)"/>
      <path id="Path_823" data-name="Path 823" d="M172.049,238.769h4.411a.385.385,0,0,0,0-.769h-4.411a.385.385,0,0,0,0,.769Zm0,0" transform="translate(-165.06 -228.844)"/>
    </g>
  </g>
</svg>
