<svg xmlns="http://www.w3.org/2000/svg" width="24" height="24" viewBox="0 0 24 24">
  <g id="icon_vitri" transform="translate(-398 -977)">
    <rect id="Rectangle_624" data-name="Rectangle 624" width="24" height="24" transform="translate(398 977)" fill="none"/>
    <g id="Group_1686" data-name="Group 1686" transform="translate(379.673 976.124)">
      <path id="Path_734" data-name="Path 734" d="M33.361,21.593a.307.307,0,0,0,.242.124h0a.306.306,0,0,0,.241-.117c.253-.323,6.193-7.958,6.193-12.793a6.434,6.434,0,0,0-12.868,0c0,1.852,1.045,4.571,3.106,8.082C31.8,19.482,33.346,21.572,33.361,21.593Zm.246-18.609A5.829,5.829,0,0,1,39.43,8.806c0,4.083-4.678,10.573-5.816,12.092-1.124-1.577-5.829-8.39-5.829-12.092a5.829,5.829,0,0,1,5.823-5.823Z" transform="translate(-3.328)"/>
      <path id="Path_735" data-name="Path 735" d="M50.227,21.728a3.7,3.7,0,1,0-3.7,3.7A3.7,3.7,0,0,0,50.227,21.728Zm-3.7,3.087a3.087,3.087,0,1,1,3.087-3.087A3.087,3.087,0,0,1,46.529,24.815Z" transform="translate(-16.249 -12.922)"/>
      <path id="Path_736" data-name="Path 736" d="M33.4,101.159a.306.306,0,0,0-.074.607c2.632.323,3.484.932,3.484,1.177,0,.459-2.3,1.352-6.527,1.352s-6.527-.894-6.527-1.352c0-.262.835-.8,3.077-1.123a.306.306,0,0,0-.087-.605c-1.642.238-3.6.73-3.6,1.728,0,1.441,4.269,1.964,7.139,1.964s7.139-.523,7.139-1.964C37.418,101.82,34.9,101.343,33.4,101.159Z" transform="translate(0 -81.527)"/>
    </g>
  </g>
</svg>
