<svg xmlns="http://www.w3.org/2000/svg" width="24" height="24" viewBox="0 0 24 24">
  <g id="icon_caidattaikhoan" transform="translate(-3025 150)">
    <rect id="Rectangle_637" data-name="Rectangle 637" width="24" height="24" transform="translate(3025 -150)" fill="none"/>
    <g id="Group_1823" data-name="Group 1823" transform="translate(3016.227 -149.233)">
      <path id="Path_824" data-name="Path 824" d="M10.6,18.777v2.546a.478.478,0,0,0,.463.463H24.828a.478.478,0,0,0,.463-.463V18.777a6.806,6.806,0,0,0-4.913-6.533,4.909,4.909,0,0,0,2.058-2.161,4.342,4.342,0,0,0,1.26.694v.566a1.18,1.18,0,0,0,1.183,1.183h1.029a1.18,1.18,0,0,0,1.183-1.183v-.566a5.132,5.132,0,0,0,1.415-.8l.489.283a1.171,1.171,0,0,0,1.595-.437l.514-.875a1.185,1.185,0,0,0-.437-1.62l-.489-.283a4.158,4.158,0,0,0,0-1.595l.489-.283A1.149,1.149,0,0,0,31.1,3.575c-.026-.026-.1-.154-.514-.875a1.177,1.177,0,0,0-1.595-.437l-.489.283a4.787,4.787,0,0,0-1.415-.8V1.183A1.18,1.18,0,0,0,25.908,0H24.879A1.18,1.18,0,0,0,23.7,1.183v.566a5.132,5.132,0,0,0-1.415.8l-.489-.283A1.171,1.171,0,0,0,20.2,2.7l-.36.617a4.694,4.694,0,0,0-1.878-.36,4.939,4.939,0,0,0-2.418,9.26A6.829,6.829,0,0,0,10.6,18.777ZM20.944,3.164a.284.284,0,0,1,.386-.1L22.1,3.5a.465.465,0,0,0,.54-.051,3.928,3.928,0,0,1,1.62-.926.471.471,0,0,0,.334-.437V1.209A.285.285,0,0,1,24.88.926h1.029a.285.285,0,0,1,.283.283v.875a.441.441,0,0,0,.334.437,4.1,4.1,0,0,1,1.62.926.465.465,0,0,0,.54.051l.772-.437a.29.29,0,0,1,.386.1l.514.875a.254.254,0,0,1-.1.36l-.772.437a.431.431,0,0,0-.206.489,3.762,3.762,0,0,1,0,1.852.435.435,0,0,0,.206.489l.772.437a.284.284,0,0,1,.1.386l-.514.875a.26.26,0,0,1-.36.1l-.772-.437a.465.465,0,0,0-.54.051,3.928,3.928,0,0,1-1.62.926.441.441,0,0,0-.334.437v.875a.285.285,0,0,1-.283.283H24.905a.285.285,0,0,1-.283-.283v-.875a.441.441,0,0,0-.334-.437,3.8,3.8,0,0,1-1.518-.823,5.614,5.614,0,0,0,.154-1.26,4.964,4.964,0,0,0-2.289-4.167ZM13.871,7.9a4.064,4.064,0,1,1,4.038,4.064A4.051,4.051,0,0,1,13.871,7.9Zm3.55,4.964h1.029a5.917,5.917,0,0,1,5.916,5.916V20.86H11.5V18.777a5.917,5.917,0,0,1,5.916-5.916Z"/>
      <path id="Path_825" data-name="Path 825" d="M243.933,75.811a2.508,2.508,0,1,0-2.521-2.495A2.5,2.5,0,0,0,243.933,75.811Zm0-4.115a1.608,1.608,0,1,1-1.62,1.595A1.576,1.576,0,0,1,243.933,71.7Z" transform="translate(-218.564 -67.04)"/>
    </g>
  </g>
</svg>
