<svg xmlns="http://www.w3.org/2000/svg" width="24" height="24" viewBox="0 0 24 24">
  <g id="icon_phongngu" transform="translate(-398 -977)">
    <rect id="Rectangle_624" data-name="Rectangle 624" width="24" height="24" transform="translate(398 977)" fill="none"/>
    <path id="Path_742" data-name="Path 742" d="M20.944,16.04a1.071,1.071,0,0,0-1.068,1.07v1.26H8.012c.034-.027.072-.051.105-.079a6.035,6.035,0,0,0,.71-.7.485.485,0,0,0,0-.64,5.273,5.273,0,0,0-4.688-1.788V13.1A1.068,1.068,0,1,0,2,13.1V25.042a.334.334,0,0,0,.334.334H3.8a.334.334,0,0,0,.334-.334V23.25h15.74v1.792a.334.334,0,0,0,.334.334h1.469a.334.334,0,0,0,.334-.334V17.111a1.071,1.071,0,0,0-1.068-1.07ZM6.078,15.96a4.662,4.662,0,0,1,2.138,1.316,5.265,5.265,0,0,1-1.4,1.1H4.135V15.838A4.645,4.645,0,0,1,6.078,15.96Zm-2.61,8.748h-.8V13.1a.4.4,0,1,1,.8,0v11.6Zm.667-2.126V19.039h15.74v3.543Zm17.21,2.126h-.8v-7.6a.4.4,0,1,1,.8,0v7.6Z" transform="translate(397.996 970.295)"/>
  </g>
</svg>
