<svg xmlns="http://www.w3.org/2000/svg" width="24" height="24" viewBox="0 0 24 24">
  <g id="icon_loaibds" transform="translate(-398 -977)">
    <rect id="Rectangle_624" data-name="Rectangle 624" width="24" height="24" transform="translate(398 977)" fill="none"/>
    <g id="Group_1734" data-name="Group 1734" transform="translate(400.75 979.454)">
      <path id="Path_797" data-name="Path 797" d="M9.012,16.794h-5.5a1.105,1.105,0,0,1-1.1-1.1V8.3L8.014,3.363a1.514,1.514,0,0,1,2,0L15.74,8.4l.007.009L17.083,9.58a.417.417,0,0,0,.551-.627l-1.18-1.037V3.7a2.194,2.194,0,0,0-4.387,0v.357l-1.5-1.323a2.349,2.349,0,0,0-3.1,0L.392,8.953a.417.417,0,0,0,.551.627l.626-.55v6.66a1.941,1.941,0,0,0,1.939,1.939h5.5a.417.417,0,1,0,0-.835ZM12.9,3.7a1.359,1.359,0,0,1,2.718,0v3.48L12.9,4.793Z" transform="translate(0 0)" fill="#1d1d44"/>
      <path id="Path_798" data-name="Path 798" d="M14.392,9.115a2.014,2.014,0,1,0,2.014,2.014A2.016,2.016,0,0,0,14.392,9.115Zm0,3.194a1.18,1.18,0,1,1,1.18-1.18A1.179,1.179,0,0,1,14.392,12.309Z" transform="translate(-5.38 -3.358)" fill="#1d1d44"/>
      <path id="Path_799" data-name="Path 799" d="M26.392,21.764h0l-1.324-.193-.592-1.2a.629.629,0,0,0-1.128,0l-.593,1.2-1.324.193a.629.629,0,0,0-.348,1.073l.958.934-.226,1.319a.628.628,0,0,0,.912.663l1.184-.623,1.184.623a.629.629,0,0,0,.914-.663l-.226-1.319.958-.934a.629.629,0,0,0-.348-1.073Zm-1.268,1.484a.625.625,0,0,0-.181.556l.174,1.015-.912-.48a.634.634,0,0,0-.584,0l-.911.479.174-1.014a.628.628,0,0,0-.181-.556l-.739-.718,1.019-.148a.63.63,0,0,0,.473-.344l.456-.923.455.921a.626.626,0,0,0,.474.347l1.019.148Z" transform="translate(-9.158 -8.197)" fill="#1d1d44"/>
    </g>
  </g>
</svg>
