<svg xmlns="http://www.w3.org/2000/svg" width="24" height="24" viewBox="0 0 24 24">
  <g id="icon_phaply" transform="translate(-398 -977)">
    <rect id="Rectangle_624" data-name="Rectangle 624" width="24" height="24" transform="translate(398 977)" fill="none"/>
    <g id="Group_1699" data-name="Group 1699" transform="translate(398.59 978.694)">
      <path id="Path_743" data-name="Path 743" d="M17.054,17.1a.265.265,0,0,0-.265.265v.885a.34.34,0,0,1-.34.34H4.462a.34.34,0,0,1-.34-.34V1.987a.34.34,0,0,1,.34-.34h11.99a.34.34,0,0,1,.34.34V7.5a.265.265,0,1,0,.53,0V1.987a.869.869,0,0,0-.867-.867H4.462a.866.866,0,0,0-.864.867v.325H3.274a.866.866,0,0,0-.864.867V19.441a.868.868,0,0,0,.864.867h11.99a.869.869,0,0,0,.867-.867v-.325h.325a.869.869,0,0,0,.867-.867v-.885a.269.269,0,0,0-.268-.262ZM15.6,19.441a.34.34,0,0,1-.34.34H3.274a.34.34,0,0,1-.34-.34V3.175a.34.34,0,0,1,.34-.34H3.6V18.25a.869.869,0,0,0,.867.867H15.6Z" transform="translate(0 0)" fill="#1d1d44"/>
      <path id="Path_744" data-name="Path 744" d="M44.357,24.833a1.922,1.922,0,0,0-3.208-1.138,1.924,1.924,0,0,0-.593,1.1,4.759,4.759,0,0,1-1.008,2.356l-.208.247L38.3,26.527a.887.887,0,0,0-1.249.108l-.587.7a.265.265,0,0,0-.06.193.253.253,0,0,0,.093.178l.117.1-.385.457a.525.525,0,0,0,.066.74l3.392,2.85a.518.518,0,0,0,.337.123.275.275,0,0,0,.048,0,.512.512,0,0,0,.355-.187l.385-.457.117.1a.255.255,0,0,0,.169.063.266.266,0,0,0,.2-.093l.59-.7a.89.89,0,0,0-.108-1.249l-1.044-.876.081-.1A5.507,5.507,0,0,1,43.138,26.9a1.9,1.9,0,0,0,.791-.563,1.924,1.924,0,0,0,.427-1.508Zm-3.951,6.16-.382.457-3.392-2.844.382-.457.424.355Zm1.077-.635-.418.5-4.033-3.38.418-.5a.361.361,0,0,1,.506-.045L39.2,27.98l.494.412,1.739,1.46A.359.359,0,0,1,41.483,30.358ZM43.523,26a1.394,1.394,0,0,1-.575.409,6.007,6.007,0,0,0-2.54,1.727l-.081.1-.581-.488.208-.247A5.28,5.28,0,0,0,41.08,24.89a1.384,1.384,0,0,1,.43-.8A1.393,1.393,0,0,1,43.523,26Z" transform="translate(-23.553 -15.425)" fill="#1d1d44"/>
      <path id="Path_745" data-name="Path 745" d="M25.266,8.273a2.943,2.943,0,1,0-2.943,2.943A2.948,2.948,0,0,0,25.266,8.273Zm-2.943,2.42A2.417,2.417,0,1,1,24.74,8.276,2.418,2.418,0,0,1,22.323,10.693Z" transform="translate(-11.863 -2.943)" fill="#1d1d44"/>
      <path id="Path_746" data-name="Path 746" d="M26.878,11.672l-1.4,1.4-.46-.46a.264.264,0,0,0-.373.373l.647.647a.267.267,0,0,0,.187.078.255.255,0,0,0,.187-.078l1.589-1.589a.264.264,0,0,0-.373-.373Z" transform="translate(-15.488 -7.323)" fill="#1d1d44"/>
      <path id="Path_747" data-name="Path 747" d="M17.621,29.29H11.175a.265.265,0,1,0,0,.53h6.449a.265.265,0,1,0,0-.53Z" transform="translate(-5.942 -19.692)" fill="#1d1d44"/>
      <path id="Path_748" data-name="Path 748" d="M17.621,34.3H11.175a.265.265,0,1,0,0,.53h6.449a.265.265,0,1,0,0-.53Z" transform="translate(-5.942 -23.195)" fill="#1d1d44"/>
      <path id="Path_749" data-name="Path 749" d="M17.621,39.32H11.175a.265.265,0,1,0,0,.53h6.449a.265.265,0,1,0,0-.53Z" transform="translate(-5.942 -26.704)" fill="#1d1d44"/>
      <path id="Path_750" data-name="Path 750" d="M17.886,44.6a.265.265,0,0,0-.265-.265H11.175a.265.265,0,1,0,0,.53h6.449A.267.267,0,0,0,17.886,44.6Z" transform="translate(-5.942 -30.213)" fill="#1d1d44"/>
      <path id="Path_751" data-name="Path 751" d="M13.721,49.36H11.175a.265.265,0,1,0,0,.53h2.546a.265.265,0,1,0,0-.53Z" transform="translate(-5.942 -33.723)" fill="#1d1d44"/>
      <path id="Path_752" data-name="Path 752" d="M13.721,54.38H11.175a.265.265,0,1,0,0,.53h2.546a.265.265,0,1,0,0-.53Z" transform="translate(-5.942 -37.232)" fill="#1d1d44"/>
    </g>
  </g>
</svg>
