<svg xmlns="http://www.w3.org/2000/svg" width="24" height="24" viewBox="0 0 24 24">
  <g id="icon_phongtam" transform="translate(-398 -977)">
    <rect id="Rectangle_624" data-name="Rectangle 624" width="24" height="24" transform="translate(398 977)" fill="none"/>
    <g id="Group_1696" data-name="Group 1696" transform="translate(398 974.574)">
      <path id="Path_708" data-name="Path 708" d="M42.171,21.564V20.6a.322.322,0,1,0-.643,0v.967a.322.322,0,1,0,.643,0Z" transform="translate(-26.761 -10.034)"/>
      <path id="Path_709" data-name="Path 709" d="M36.874,21.886a.322.322,0,0,0,.322-.322V20.6a.322.322,0,1,0-.643,0v.967A.322.322,0,0,0,36.874,21.886Z" transform="translate(-23.393 -10.034)"/>
      <path id="Path_710" data-name="Path 710" d="M47.144,21.564V20.6a.322.322,0,1,0-.643,0v.967a.322.322,0,1,0,.643,0Z" transform="translate(-30.128 -10.034)"/>
      <path id="Path_711" data-name="Path 711" d="M20.286,13.753H18.35V7.225a1.792,1.792,0,0,0-3.576-.183,1.936,1.936,0,0,0-1.616,1.908v.216a.323.323,0,0,0,.323.324h3.213a.323.323,0,0,0,.323-.324V8.949a1.936,1.936,0,0,0-1.588-1.9,1.144,1.144,0,0,1,2.276.179v6.528H3.09a1.094,1.094,0,0,0,0,2.188h0v2.547a2.727,2.727,0,0,0,1.788,2.558v.484a1.116,1.116,0,1,0,2.231,0v-.317h9.152v.317a1.116,1.116,0,1,0,2.231,0v-.484a2.727,2.727,0,0,0,1.788-2.558V15.941h0a1.094,1.094,0,0,0,0-2.188ZM16.366,8.841H13.808a1.286,1.286,0,0,1,1.263-1.178c.006,0,.01,0,.016,0s.01,0,.016,0A1.286,1.286,0,0,1,16.366,8.841Zm-9.9,12.691a.47.47,0,0,1-.939,0V21.2a2.722,2.722,0,0,0,.283.015h.657Zm11.383,0a.47.47,0,0,1-.939,0v-.317h.658a2.726,2.726,0,0,0,.282-.015Zm1.788-3.043a2.076,2.076,0,0,1-2.07,2.078H5.809a2.076,2.076,0,0,1-2.07-2.078V15.941h15.9Zm.648-3.2H3.09a.446.446,0,0,1,0-.892h17.2a.446.446,0,0,1,0,.892Z"/>
    </g>
  </g>
</svg>
