<svg xmlns="http://www.w3.org/2000/svg" width="24" height="24" viewBox="0 0 24 24">
  <g id="icon_goihoivien" transform="translate(-3025 150)">
    <rect id="Rectangle_637" data-name="Rectangle 637" width="24" height="24" transform="translate(3025 -150)" fill="none"/>
    <g id="Group_1816" data-name="Group 1816" transform="translate(3018.479 -150.994)">
      <path id="Path_811" data-name="Path 811" d="M16.232,19.459a1.2,1.2,0,0,1-.308-.039,2.268,2.268,0,0,1-1.123-.983,2.435,2.435,0,0,0-.613-.667,2.466,2.466,0,0,0-.9-.2,2.221,2.221,0,0,1-1.4-.477,2.235,2.235,0,0,1-.477-1.4,2.473,2.473,0,0,0-.2-.9,2.447,2.447,0,0,0-.667-.613,2.266,2.266,0,0,1-.983-1.123,2.2,2.2,0,0,1,.284-1.425,2.555,2.555,0,0,0,.279-.9,2.555,2.555,0,0,0-.279-.9A2.2,2.2,0,0,1,9.56,8.4a2.265,2.265,0,0,1,.983-1.123,2.447,2.447,0,0,0,.667-.613,2.474,2.474,0,0,0,.2-.9,2.222,2.222,0,0,1,.477-1.4,2.235,2.235,0,0,1,1.4-.477,2.466,2.466,0,0,0,.9-.2,2.437,2.437,0,0,0,.613-.667,2.266,2.266,0,0,1,1.123-.983,2.2,2.2,0,0,1,1.425.284,2.555,2.555,0,0,0,.9.282,2.555,2.555,0,0,0,.9-.279,2.2,2.2,0,0,1,1.425-.284,2.262,2.262,0,0,1,1.123.985,2.444,2.444,0,0,0,.613.667,2.466,2.466,0,0,0,.9.2,2.223,2.223,0,0,1,1.4.477,2.235,2.235,0,0,1,.477,1.4,2.476,2.476,0,0,0,.2.9,2.45,2.45,0,0,0,.667.613A2.267,2.267,0,0,1,26.945,8.4a2.2,2.2,0,0,1-.284,1.425,2.551,2.551,0,0,0-.279.9,2.554,2.554,0,0,0,.279.9,2.2,2.2,0,0,1,.284,1.425,2.268,2.268,0,0,1-.983,1.124,2.44,2.44,0,0,0-.667.613,2.473,2.473,0,0,0-.2.9,2.222,2.222,0,0,1-.477,1.4,2.235,2.235,0,0,1-1.4.477,2.466,2.466,0,0,0-.9.2,2.437,2.437,0,0,0-.613.667,2.266,2.266,0,0,1-1.123.983,2.211,2.211,0,0,1-1.425-.284,2.555,2.555,0,0,0-.9-.283,2.555,2.555,0,0,0-.9.279A2.906,2.906,0,0,1,16.232,19.459Zm2.021-1.239a2.981,2.981,0,0,1,1.159.332,1.8,1.8,0,0,0,1.006.254c.286-.076.523-.4.775-.745A2.888,2.888,0,0,1,22,17.217a2.931,2.931,0,0,1,1.148-.286,1.8,1.8,0,0,0,1.017-.293,1.8,1.8,0,0,0,.293-1.017,2.923,2.923,0,0,1,.286-1.148,2.892,2.892,0,0,1,.842-.807c.344-.252.667-.49.745-.775a1.777,1.777,0,0,0-.254-1.006,2.981,2.981,0,0,1-.332-1.159,2.973,2.973,0,0,1,.332-1.158,1.784,1.784,0,0,0,.253-1.006c-.076-.286-.4-.523-.745-.775a2.892,2.892,0,0,1-.842-.807,2.924,2.924,0,0,1-.286-1.148,1.793,1.793,0,0,0-.294-1.017,1.8,1.8,0,0,0-1.017-.293A2.931,2.931,0,0,1,22,4.235a2.892,2.892,0,0,1-.806-.84c-.252-.344-.49-.667-.775-.745a1.776,1.776,0,0,0-1.006.254,2.98,2.98,0,0,1-1.159.332A2.98,2.98,0,0,1,17.094,2.9a1.784,1.784,0,0,0-1.006-.253c-.286.076-.523.4-.775.745a2.892,2.892,0,0,1-.807.843,2.931,2.931,0,0,1-1.148.286,1.793,1.793,0,0,0-1.017.293,1.8,1.8,0,0,0-.293,1.017,2.926,2.926,0,0,1-.286,1.149,2.892,2.892,0,0,1-.842.807c-.344.252-.669.49-.745.774a1.777,1.777,0,0,0,.254,1.006,2.981,2.981,0,0,1,.332,1.159,2.976,2.976,0,0,1-.332,1.159,1.784,1.784,0,0,0-.253,1.006c.076.286.4.523.745.775a2.893,2.893,0,0,1,.842.807,2.925,2.925,0,0,1,.286,1.148,1.793,1.793,0,0,0,.294,1.017,1.8,1.8,0,0,0,1.017.293,2.936,2.936,0,0,1,1.148.286,2.9,2.9,0,0,1,.807.842c.252.344.49.667.775.745a1.77,1.77,0,0,0,1.006-.254,2.981,2.981,0,0,1,1.157-.331Z" transform="translate(0 0)" fill="#1d1d44"/>
      <path id="Path_812" data-name="Path 812" d="M23.9,22.476a6.1,6.1,0,1,1,6.1-6.1A6.1,6.1,0,0,1,23.9,22.476Zm0-11.565a5.466,5.466,0,1,0,5.466,5.466A5.466,5.466,0,0,0,23.9,10.911Z" transform="translate(-5.648 -5.649)" fill="#1d1d44"/>
      <path id="Path_813" data-name="Path 813" d="M31.775,24.815a.318.318,0,0,1-.148-.037l-1.687-.887-1.687.887a.318.318,0,0,1-.461-.337l.322-1.879-1.366-1.33a.318.318,0,0,1,.176-.542l1.886-.274.844-1.708a.33.33,0,0,1,.569,0l.844,1.709,1.886.274a.318.318,0,0,1,.176.542l-1.366,1.33.325,1.877a.318.318,0,0,1-.313.371Zm-1.835-1.6a.318.318,0,0,1,.148.037l1.265.665-.241-1.409a.318.318,0,0,1,.091-.281l1.023-1-1.414-.206a.318.318,0,0,1-.239-.174l-.633-1.282-.633,1.282a.318.318,0,0,1-.239.174l-1.414.206,1.023,1a.318.318,0,0,1,.091.281l-.241,1.409,1.265-.665A.318.318,0,0,1,29.94,23.215Z" transform="translate(-11.687 -11.292)" fill="#1d1d44"/>
      <path id="Path_814" data-name="Path 814" d="M39.828,56.24H39.8a.318.318,0,0,1-.269-.205l-1.974-5.292a.318.318,0,1,1,.6-.2L39.9,55.191l1.267-2.12a.318.318,0,0,1,.372-.139l2.351.771-1.636-4.375a.318.318,0,1,1,.6-.222L44.711,54.1a.318.318,0,0,1-.4.413l-2.737-.9L40.1,56.085A.318.318,0,0,1,39.828,56.24Z" transform="translate(-19.113 -32)" fill="#1d1d44"/>
      <path id="Path_815" data-name="Path 815" d="M18.723,56.239a.318.318,0,0,1-.273-.155l-1.477-2.47-2.737.9a.318.318,0,0,1-.4-.413L15.707,49.1a.318.318,0,1,1,.6.222L14.666,53.7l2.351-.771a.318.318,0,0,1,.372.139l1.267,2.12L20.4,50.519a.318.318,0,1,1,.6.222l-1.974,5.291a.318.318,0,0,1-.269.205Z" transform="translate(-2.933 -31.999)" fill="#1d1d44"/>
    </g>
  </g>
</svg>
