<svg xmlns="http://www.w3.org/2000/svg" width="24" height="24" viewBox="0 0 24 24">
  <g id="icon_google" transform="translate(-1030 -639)">
    <rect id="Rectangle_234" data-name="Rectangle 234" width="24" height="24" transform="translate(1030 639)" fill="none"/>
    <g id="Group_845" data-name="Group 845" transform="translate(1032 641)">
      <path id="Path_482" data-name="Path 482" d="M275.765,211.479H267.77a.639.639,0,0,0-.639.639v2.554a.639.639,0,0,0,.639.639h4.5a6.01,6.01,0,0,1-2.587,3.032l1.92,3.323a9.609,9.609,0,0,0,4.9-8.4,6.475,6.475,0,0,0-.11-1.255A.642.642,0,0,0,275.765,211.479Z" transform="translate(-256.905 -203.383)" fill="#167ee6"/>
      <path id="Path_483" data-name="Path 483" d="M42.894,336.832a5.964,5.964,0,0,1-5.16-2.985l-3.323,1.915a9.792,9.792,0,0,0,13.382,3.592v0l-1.92-3.323A5.921,5.921,0,0,1,42.894,336.832Z" transform="translate(-33.094 -321.067)" fill="#12b347"/>
      <path id="Path_484" data-name="Path 484" d="M260.9,394.107v0l-1.92-3.323a5.92,5.92,0,0,1-2.98.806v3.835A9.783,9.783,0,0,0,260.9,394.107Z" transform="translate(-246.2 -375.82)" fill="#0f993e"/>
      <path id="Path_485" data-name="Path 485" d="M3.835,133.014a5.921,5.921,0,0,1,.806-2.98l-3.323-1.915a9.755,9.755,0,0,0,0,9.791l3.323-1.915A5.921,5.921,0,0,1,3.835,133.014Z" transform="translate(0 -123.215)" fill="#ffd500"/>
      <path id="Path_486" data-name="Path 486" d="M42.894,3.835a5.938,5.938,0,0,1,3.787,1.36.637.637,0,0,0,.857-.039l1.81-1.81A.644.644,0,0,0,49.31,2.4a9.778,9.778,0,0,0-14.9,2.5L37.734,6.82A5.964,5.964,0,0,1,42.894,3.835Z" transform="translate(-33.094)" fill="#ff4b26"/>
      <path id="Path_487" data-name="Path 487" d="M259.787,5.194a.637.637,0,0,0,.857-.039l1.81-1.81a.644.644,0,0,0-.037-.942A9.77,9.77,0,0,0,256,0V3.835A5.938,5.938,0,0,1,259.787,5.194Z" transform="translate(-246.2 0)" fill="#d93f21"/>
    </g>
  </g>
</svg>
