<svg xmlns="http://www.w3.org/2000/svg" width="24" height="24" viewBox="0 0 24 24">
  <g id="icon_tenduan" transform="translate(-398 -977)">
    <rect id="Rectangle_624" data-name="Rectangle 624" width="24" height="24" transform="translate(398 977)" fill="none"/>
    <g id="Group_1729" data-name="Group 1729" transform="translate(392.5 977.003)">
      <path id="Path_772" data-name="Path 772" d="M41.2,22.215H36.289A.289.289,0,0,1,36,21.926V2.289a.289.289,0,0,1,.474-.222l3.465,2.888a.289.289,0,0,1,.1.2L41.486,21.9a.289.289,0,0,1-.288.314Zm-4.62-.578h4.306L39.477,5.321l-2.9-2.416Z" transform="translate(-18.847 -0.002)" fill="#1d1d44"/>
      <path id="Path_773" data-name="Path 773" d="M58.272,41.322a.289.289,0,0,1-.287-.264l-.072-.837a.289.289,0,0,1,.575-.05l.072.837a.289.289,0,0,1-.263.312Z" transform="translate(-34.432 -26.967)" fill="#1d1d44"/>
      <path id="Path_774" data-name="Path 774" d="M55.455,63.294H53.289a.289.289,0,1,1,0-.578H55.14l-.227-2.644a.289.289,0,0,1,.263-.312.285.285,0,0,1,.312.263l.254,2.957a.289.289,0,0,1-.288.313Z" transform="translate(-30.938 -41.082)" fill="#1d1d44"/>
      <path id="Path_775" data-name="Path 775" d="M59.124,51.225a.289.289,0,0,1-.287-.264l-.075-.858a.289.289,0,1,1,.575-.05l.075.857a.289.289,0,0,1-.263.313Z" transform="translate(-35.035 -33.991)" fill="#1d1d44"/>
      <path id="Path_776" data-name="Path 776" d="M51.4,23.524a.289.289,0,0,1-.289-.264l-.169-1.971L48.7,19.42a.289.289,0,0,1,.37-.444L51.4,20.923a.289.289,0,0,1,.1.2l.179,2.091a.289.289,0,0,1-.263.312Z" transform="translate(-27.806 -12.029)" fill="#1d1d44"/>
      <path id="Path_777" data-name="Path 777" d="M24.2,22.212H19.286A.289.289,0,0,1,19,21.9L20.441,5.15a.289.289,0,0,1,.1-.2l3.465-2.888a.289.289,0,0,1,.475.222V21.924a.289.289,0,0,1-.289.289ZM19.6,21.635h4.306V2.9l-2.9,2.416Z" transform="translate(-6.754 0)" fill="#1d1d44"/>
      <path id="Path_778" data-name="Path 778" d="M12.532,43.679H9.789a.289.289,0,0,1-.285-.333L10.947,34.1a.289.289,0,0,1,.112-.187L13.3,32.238a.289.289,0,1,1,.347.462L11.5,34.31,10.126,43.1h2.406a.289.289,0,0,1,0,.578Z" transform="translate(0 -21.467)" fill="#1d1d44"/>
      <path id="Path_779" data-name="Path 779" d="M19.679,58.558a.289.289,0,0,1-.156-.532l4.8-3.061a.289.289,0,1,1,.311.487l-4.8,3.061A.289.289,0,0,1,19.679,58.558Z" transform="translate(-7.034 -37.64)" fill="#1d1d44"/>
      <path id="Path_780" data-name="Path 780" d="M20.66,47.647a.289.289,0,0,1-.155-.532l4.513-2.879a.289.289,0,1,1,.311.487L20.815,47.6a.289.289,0,0,1-.155.046Z" transform="translate(-7.732 -30.008)" fill="#1d1d44"/>
      <path id="Path_781" data-name="Path 781" d="M21.629,36.755a.289.289,0,0,1-.156-.532l4.234-2.7a.289.289,0,0,1,.311.486l-4.234,2.7A.287.287,0,0,1,21.629,36.755Z" transform="translate(-8.421 -22.395)" fill="#1d1d44"/>
      <path id="Path_782" data-name="Path 782" d="M22.609,25.838a.289.289,0,0,1-.156-.532L26.4,22.785a.289.289,0,0,1,.311.487l-3.951,2.521a.289.289,0,0,1-.155.045Z" transform="translate(-9.118 -14.753)" fill="#1d1d44"/>
      <path id="Path_783" data-name="Path 783" d="M23.588,14.937a.289.289,0,0,1-.156-.532L27.1,12.065a.289.289,0,0,1,.311.487l-3.667,2.339a.287.287,0,0,1-.155.045Z" transform="translate(-9.814 -7.128)" fill="#1d1d44"/>
    </g>
  </g>
</svg>
