<svg id="icon_user" xmlns="http://www.w3.org/2000/svg" width="24" height="24" viewBox="0 0 24 24">
  <rect id="Rectangle_231" data-name="Rectangle 231" width="24" height="24" fill="#fff"/>
  <g id="Group_834" data-name="Group 834" transform="translate(2.48 2.48)">
    <path id="Path_473" data-name="Path 473" d="M166,109.347A3.347,3.347,0,1,0,169.347,106,3.351,3.351,0,0,0,166,109.347Zm5.95,0a2.6,2.6,0,1,1-2.6-2.6A2.606,2.606,0,0,1,171.95,109.347Z" transform="translate(-159.827 -102.058)" fill="#1d1d44"/>
    <ellipse id="Ellipse_3" data-name="Ellipse 3" cx="0.689" rx="0.689" transform="translate(15.159 3.881)" fill="#1d1d44"/>
    <path id="Path_474" data-name="Path 474" d="M9.52,19.04A9.525,9.525,0,0,0,17.663,4.582a.372.372,0,1,0-.636.386,8.788,8.788,0,0,1-1.686,11.122,5.951,5.951,0,0,0-11.641,0A8.778,8.778,0,0,1,9.52.744,8.694,8.694,0,0,1,14.9,2.584.372.372,0,1,0,15.358,2a9.529,9.529,0,0,0-12.571.79A9.522,9.522,0,0,0,9.52,19.04Zm0-6.917a5.182,5.182,0,0,1,5.159,4.5,8.789,8.789,0,0,1-10.317,0,5.181,5.181,0,0,1,5.158-4.5Z" transform="translate(0 0)" fill="#1d1d44"/>
  </g>
</svg>
