<svg xmlns="http://www.w3.org/2000/svg" width="24" height="24" viewBox="0 0 24 24">
  <g id="icon_namxaydung" transform="translate(-398 -977)">
    <rect id="Rectangle_624" data-name="Rectangle 624" width="24" height="24" transform="translate(398 977)" fill="none"/>
    <path id="Path_787" data-name="Path 787" d="M18.139,3.477H15.347V2.289a.289.289,0,1,0-.578,0V3.477H7.229V2.289a.289.289,0,1,0-.578,0V3.477H3.86a1.391,1.391,0,0,0-1.39,1.39V17.94a1.391,1.391,0,0,0,1.39,1.39H15.043a.293.293,0,0,0,.109-.022.307.307,0,0,0,.039-.025.272.272,0,0,0,.05-.031l4.2-3.938,0,0a.291.291,0,0,0,.053-.075l.012-.018a.285.285,0,0,0,.023-.114V4.867A1.391,1.391,0,0,0,18.139,3.477ZM3.86,4.055H6.651v.6a.821.821,0,1,0,.578,0v-.6h7.54v.6a.82.82,0,1,0,.578,0v-.6h2.792a.813.813,0,0,1,.812.812V6.889H3.048V4.867a.813.813,0,0,1,.812-.812ZM6.94,5.175a.243.243,0,1,1-.243.243.243.243,0,0,1,.243-.243Zm8.118,0a.243.243,0,1,1-.243.243.243.243,0,0,1,.243-.243ZM3.048,17.94V7.466h15.9v7.349H15.043a.289.289,0,0,0-.289.289v3.649H3.86A.813.813,0,0,1,3.048,17.94Zm15.461-2.548-3.177,2.982V15.392Z" transform="translate(398.53 978)" fill="#1d1d44" stroke="#1d1d43" stroke-width="0.1"/>
  </g>
</svg>
