<svg xmlns="http://www.w3.org/2000/svg" width="24" height="24" viewBox="0 0 24 24">
  <g id="icon_chodauxe" transform="translate(-398 -977)">
    <rect id="Rectangle_624" data-name="Rectangle 624" width="24" height="24" transform="translate(398 977)" fill="none"/>
    <g id="Group_1733" data-name="Group 1733" transform="translate(397 973.442)">
      <path id="Path_793" data-name="Path 793" d="M23.2,37.128a8.868,8.868,0,0,0-4.133-1.384,8.217,8.217,0,0,0-1.194-.98,9.235,9.235,0,0,0-5.209-1.542H8.6a2.513,2.513,0,0,0-1.452.46L5.2,35.052H2.362A.362.362,0,0,0,2,35.414V39.4a1.635,1.635,0,0,0,1.631,1.635h.945a2.078,2.078,0,0,0,3.864,0H17a2.081,2.081,0,0,0,3.868,0h2.472a.362.362,0,0,0,.362-.362V38.138a1.274,1.274,0,0,0-.5-1.01ZM7.83,40.584a1.36,1.36,0,0,1-2.645-.008,1.23,1.23,0,0,1-.042-.322,1.365,1.365,0,1,1,2.731,0,1.235,1.235,0,0,1-.044.331Zm12.428,0a1.363,1.363,0,0,1-2.649-.009,1.218,1.218,0,0,1-.042-.321,1.367,1.367,0,1,1,2.734,0,1.249,1.249,0,0,1-.044.331Zm2.72-.276H21.025c0-.018,0-.036,0-.054a2.09,2.09,0,1,0-4.181,0c0,.018,0,.037,0,.054H8.6c0-.018,0-.036,0-.054a2.089,2.089,0,1,0-4.178,0c0,.018,0,.037,0,.054h-.79a.911.911,0,0,1-.908-.911V35.776H5.309a.36.36,0,0,0,.207-.065l2.052-1.436A1.793,1.793,0,0,1,8.6,33.945h4.059a8.514,8.514,0,0,1,4.8,1.417,7.4,7.4,0,0,1,1.176.982.361.361,0,0,0,.239.11,8.447,8.447,0,0,1,3.882,1.251.546.546,0,0,1,.215.432v2.17Z" transform="translate(0 -17.658)" fill="#1d1d44"/>
      <path id="Path_794" data-name="Path 794" d="M26,38.259H20.6V36.913a.362.362,0,0,0-.723,0v1.346H16.924l-.957-.663a.362.362,0,0,0-.412.6l1.05.727a.361.361,0,0,0,.206.064H26a.362.362,0,1,0,0-.723Z" transform="translate(-8.552 -19.783)" fill="#1d1d44"/>
      <path id="Path_795" data-name="Path 795" d="M21.6,5.558a1.071,1.071,0,0,0-1.07,1.07v6.5A1.071,1.071,0,0,0,21.6,14.2h6.159a1.071,1.071,0,0,0,1.07-1.07v-6.5a1.071,1.071,0,0,0-1.07-1.07H21.6ZM28.1,6.628v6.5a.347.347,0,0,1-.347.347H21.6a.347.347,0,0,1-.347-.347v-6.5a.347.347,0,0,1,.347-.347h6.159a.347.347,0,0,1,.347.347Z" transform="translate(-11.826)" fill="#1d1d44"/>
      <path id="Path_796" data-name="Path 796" d="M30.207,10.43H28.146a.362.362,0,0,0-.362.362v4.363a.362.362,0,0,0,.723,0V13.532h1.7a1.244,1.244,0,0,0,1.243-1.243v-.616A1.244,1.244,0,0,0,30.207,10.43Zm.519,1.859a.52.52,0,0,1-.519.519h-1.7V11.154h1.7a.52.52,0,0,1,.519.519v.616Z" transform="translate(-16.458 -3.11)" fill="#1d1d44"/>
    </g>
  </g>
</svg>
