<svg xmlns="http://www.w3.org/2000/svg" width="34" height="34" viewBox="0 0 34 34">
  <g id="icon_ai" transform="translate(-922 -382)">
    <rect id="Rectangle_546" data-name="Rectangle 546" width="34" height="34" transform="translate(922 382)" fill="none"/>
    <g id="Group_1456" data-name="Group 1456" transform="translate(921.239 382.687)">
      <path id="Path_684" data-name="Path 684" d="M6,10.626A9.9,9.9,0,0,1,16.161,1l1.07.535v1.6h-1.07a7.768,7.768,0,0,0-8.022,7.487V11.7H6Z" transform="translate(-1.396)" fill="#122359"/>
      <path id="Path_685" data-name="Path 685" d="M44.231,10.626A9.9,9.9,0,0,0,34.07,1L33,1.535v1.6h1.07a7.768,7.768,0,0,1,8.022,7.487V11.7h2.139Z" transform="translate(-13.956)" fill="#122359"/>
      <path id="Path_686" data-name="Path 686" d="M10,51v3.209a1.069,1.069,0,0,0,1.07,1.07h3.209V51Z" transform="translate(-3.256 -23.26)" fill="#ced7dd"/>
      <path id="Path_687" data-name="Path 687" d="M46.278,51v3.209a1.069,1.069,0,0,1-1.07,1.07H42V51Z" transform="translate(-18.143 -23.26)" fill="#ced7dd"/>
      <path id="Path_688" data-name="Path 688" d="M12.744,49.77a2.85,2.85,0,0,1-.8.112,2.941,2.941,0,1,1,0-5.883A2.91,2.91,0,0,1,14.2,45.064Z" transform="translate(-2.791 -20.004)" fill="#b3c1c9"/>
      <path id="Path_689" data-name="Path 689" d="M41.27,45.064A2.91,2.91,0,0,1,43.532,44a2.941,2.941,0,0,1,0,5.883,2.85,2.85,0,0,1-.8-.112Z" transform="translate(-17.804 -20.004)" fill="#b3c1c9"/>
      <path id="Path_690" data-name="Path 690" d="M25,38h5.348v3.744H25Z" transform="translate(-10.235 -17.213)" fill="#ced7dd"/>
      <path id="Path_691" data-name="Path 691" d="M24.974,13a5.879,5.879,0,0,1,5.883,5.883l.535,1.07-.535,1.07A5.879,5.879,0,0,1,24.974,26.9H16.417a5.879,5.879,0,0,1-5.883-5.883L10,19.952l.535-1.07A5.879,5.879,0,0,1,16.417,13Z" transform="translate(-3.256 -5.583)" fill="#e4eaef"/>
      <rect id="Rectangle_547" data-name="Rectangle 547" width="15.945" height="6.833" rx="3.417" transform="translate(9.467 10.814)" fill="#122359"/>
      <path id="Path_692" data-name="Path 692" d="M20.278,44H26.7a4.281,4.281,0,0,1,4.278,4.278v2.674a1.07,1.07,0,0,1-1.07,1.07H17.07A1.07,1.07,0,0,1,16,50.952V48.278A4.281,4.281,0,0,1,20.278,44Z" transform="translate(-6.048 -20.004)" fill="#e4eaef"/>
      <path id="Path_693" data-name="Path 693" d="M29.551,14.565a4.545,4.545,0,0,0,1.005-2.491A1.073,1.073,0,0,0,29.487,11H23.069A1.073,1.073,0,0,0,22,12.074,4.542,4.542,0,0,0,23,14.565a1.774,1.774,0,0,0,1.431.713H28.12a1.774,1.774,0,0,0,1.431-.713Z" transform="translate(-8.839 -4.652)" fill="#ced7dd"/>
      <circle id="Ellipse_5" data-name="Ellipse 5" cx="1.139" cy="1.139" r="1.139" transform="translate(11.745 13.092)" fill="#71ffe4"/>
      <circle id="Ellipse_6" data-name="Ellipse 6" cx="1.139" cy="1.139" r="1.139" transform="translate(20.856 13.092)" fill="#71ffe4"/>
      <path id="Path_694" data-name="Path 694" d="M25,1h5.348V3.139a.535.535,0,0,1-.535.535H25.535A.535.535,0,0,1,25,3.139Z" transform="translate(-10.235)" fill="#7098eb"/>
      <path id="Path_695" data-name="Path 695" d="M47.209,35.813H44v-1.07h3.209a.535.535,0,0,0,.535-.535V31h1.07v3.209A1.606,1.606,0,0,1,47.209,35.813Z" transform="translate(-19.074 -13.956)" fill="#ced7dd"/>
      <path id="Path_696" data-name="Path 696" d="M1.6,0H3.744a.535.535,0,0,1,.535.535V6.952a.535.535,0,0,1-.535.535H1.6A1.6,1.6,0,0,1,0,5.883V1.6A1.6,1.6,0,0,1,1.6,0Z" transform="translate(31.879 18.113) rotate(180)" fill="#7098eb"/>
      <path id="Path_697" data-name="Path 697" d="M41.07,37h1.6a.535.535,0,0,1,.535.535V38.6a.535.535,0,0,1-.535.535h-1.6a1.07,1.07,0,1,1,0-2.139Z" transform="translate(-17.213 -16.748)" fill="#122359"/>
      <path id="Path_698" data-name="Path 698" d="M4.6,19H6.744a.535.535,0,0,1,.535.535v6.417a.535.535,0,0,1-.535.535H4.6a1.6,1.6,0,0,1-1.6-1.6V20.6A1.6,1.6,0,0,1,4.6,19Z" transform="translate(0 -8.374)" fill="#7098eb"/>
    </g>
  </g>
</svg>
