<svg id="Icon_pw" xmlns="http://www.w3.org/2000/svg" width="24" height="24" viewBox="0 0 24 24">
  <rect id="Rectangle_231" data-name="Rectangle 231" width="24" height="24" fill="#fff"/>
  <g id="lock" transform="translate(4.222 1.562)">
    <path id="Path_475" data-name="Path 475" d="M18.991,10.607V7.649a6.074,6.074,0,1,0-12.147,0v2.958a2.469,2.469,0,0,0-1.99,2.419V19.98a2.47,2.47,0,0,0,2.467,2.467H18.515a2.47,2.47,0,0,0,2.467-2.467V13.026A2.469,2.469,0,0,0,18.991,10.607ZM12.918,2.19a5.465,5.465,0,0,1,5.459,5.459v2.91H16.893V7.649a3.975,3.975,0,0,0-7.95,0v2.91H7.459V7.649A5.465,5.465,0,0,1,12.918,2.19Zm3.361,8.368H9.557V7.649a3.361,3.361,0,1,1,6.721,0Zm4.088,9.422a1.855,1.855,0,0,1-1.853,1.853H7.321A1.855,1.855,0,0,1,5.468,19.98V13.026a1.855,1.855,0,0,1,1.853-1.853H18.515a1.855,1.855,0,0,1,1.853,1.853V19.98Z" transform="translate(-4.854 -1.575)" fill="#1d1d44"/>
    <path id="Path_476" data-name="Path 476" d="M17.413,19.988a2.275,2.275,0,0,0-.888-1.81,2.306,2.306,0,0,0-2.005-.4,2.285,2.285,0,0,0-.794,4.013L13.3,23.345a.7.7,0,0,0,.671.878h2.3a.7.7,0,0,0,.671-.878l-.422-1.554a2.269,2.269,0,0,0,.887-1.8Zm-1.4,1.414a.309.309,0,0,0-.133.341l.478,1.763-.078.1h-2.3l-.078-.1.478-1.763a.308.308,0,0,0-.134-.341,1.668,1.668,0,0,1-.731-1.861,1.645,1.645,0,0,1,1.163-1.168,1.776,1.776,0,0,1,.449-.058,1.669,1.669,0,0,1,.888,3.086Z" transform="translate(-7.062 -6.034)" fill="#1d1d44"/>
  </g>
</svg>
