<svg xmlns="http://www.w3.org/2000/svg" width="24" height="24" viewBox="0 0 24 24">
  <g id="icon_tanghientai" transform="translate(-398 -977)">
    <rect id="Rectangle_624" data-name="Rectangle 624" width="24" height="24" transform="translate(398 977)" fill="none"/>
    <g id="Group_1731" data-name="Group 1731" transform="translate(377 956)">
      <path id="Path_784" data-name="Path 784" d="M42.28,41.959H40.035V26.886a.321.321,0,0,0-.258-.314L26.949,24.006a.321.321,0,0,0-.384.314V41.959H24.321a.321.321,0,1,0,0,.641H42.28a.321.321,0,0,0,0-.641Zm-2.886-5.171H27.207V30.734H39.394Zm0-9.639v2.944H27.207V24.711ZM27.207,37.429H39.394v4.53H27.207Z" transform="translate(0 0)" fill="#1d1d44"/>
      <path id="Path_785" data-name="Path 785" d="M236.8,360a.8.8,0,1,0,.8.8A.8.8,0,0,0,236.8,360Zm0,.962a.16.16,0,1,1,.16-.16A.16.16,0,0,1,236.8,360.962Z" transform="translate(-203.501 -327.622)" fill="#1d1d44"/>
      <path id="Path_786" data-name="Path 786" d="M209.924,336A1.872,1.872,0,0,0,208,337.81a6.972,6.972,0,0,0,1.417,2.761.656.656,0,0,0,1.014,0,6.971,6.971,0,0,0,1.417-2.761A1.872,1.872,0,0,0,209.924,336Zm.009,4.168a.035.035,0,0,1-.016,0,6.544,6.544,0,0,1-1.276-2.36,1.288,1.288,0,0,1,2.566,0A6.545,6.545,0,0,1,209.933,340.168Z" transform="translate(-176.624 -304.584)" fill="#1d1d44"/>
    </g>
  </g>
</svg>
