<svg id="Icon_download_app" xmlns="http://www.w3.org/2000/svg" width="12.478" height="21.729" viewBox="0 0 12.478 21.729">
  <path id="Path_250" data-name="Path 250" d="M110.46,0h9.534a1.474,1.474,0,0,1,1.472,1.472V20.257a1.474,1.474,0,0,1-1.472,1.472H110.46a1.474,1.474,0,0,1-1.472-1.472V1.472A1.474,1.474,0,0,1,110.46,0Zm-.793,20.257a.794.794,0,0,0,.793.793h9.534a.794.794,0,0,0,.793-.793V1.472a.794.794,0,0,0-.793-.793H110.46a.794.794,0,0,0-.793.793V20.257Zm4.111-18.43a.34.34,0,0,0,.34.34h2.218a.34.34,0,1,0,0-.679h-2.218A.34.34,0,0,0,113.779,1.826Zm1.449,16.522a1.142,1.142,0,1,1-1.142,1.142A1.143,1.143,0,0,1,115.227,18.348Zm0,1.6a.463.463,0,1,0-.463-.463A.463.463,0,0,0,115.227,19.953Z" transform="translate(-108.988)"/>
  <g id="Group_515" data-name="Group 515" transform="translate(3.518 8.38)">
    <path id="Down_Arrow_3_" d="M22.721,42.968A.247.247,0,0,0,22.9,42.9l2.474-2.474a.247.247,0,0,0-.35-.35l-2.3,2.3-2.3-2.3a.247.247,0,0,0-.35.35L22.546,42.9A.247.247,0,0,0,22.721,42.968Z" transform="translate(-20 -40)"/>
    <path id="Down_Arrow_3_2" data-name="Down_Arrow_3_" d="M22.721,42.968A.247.247,0,0,0,22.9,42.9l2.474-2.474a.247.247,0,0,0-.35-.35l-2.3,2.3-2.3-2.3a.247.247,0,0,0-.35.35L22.546,42.9A.247.247,0,0,0,22.721,42.968Z" transform="translate(-20 -37.515)"/>
  </g>
</svg>
