<svg xmlns="http://www.w3.org/2000/svg" width="24" height="24" viewBox="0 0 24 24">
  <g id="icon_zalo" transform="translate(-1030 -639)">
    <rect id="Rectangle_234" data-name="Rectangle 234" width="24" height="24" transform="translate(1030 639)" fill="none"/>
    <g id="Icon_of_Zalo" transform="translate(1030.834 640)">
      <path id="Path_497" data-name="Path 497" d="M9.864.166h1.894a10.806,10.806,0,0,1,5.471,1.106,7.5,7.5,0,0,1,3.13,3.13,10.806,10.806,0,0,1,1.106,5.471v1.886a10.806,10.806,0,0,1-1.106,5.471,7.5,7.5,0,0,1-3.13,3.13,10.806,10.806,0,0,1-5.471,1.106H9.872A10.806,10.806,0,0,1,4.4,20.358a7.5,7.5,0,0,1-3.13-3.13A10.806,10.806,0,0,1,.166,11.758V9.872A10.806,10.806,0,0,1,1.272,4.4,7.5,7.5,0,0,1,4.4,1.272,10.772,10.772,0,0,1,9.864.166Z" transform="translate(0 -0.095)" fill="#0068ff" fill-rule="evenodd"/>
      <path id="Path_498" data-name="Path 498" d="M25.524,26.474v.311a10.806,10.806,0,0,1-1.105,5.471,7.5,7.5,0,0,1-3.13,3.13,10.806,10.806,0,0,1-5.471,1.106H13.933a11.918,11.918,0,0,1-4.713-.745l-1.945-2Z" transform="translate(-4.061 -15.122)" fill="#001a33" fill-rule="evenodd" opacity="0.12"/>
      <path id="Path_499" data-name="Path 499" d="M5.78,18.691a6.236,6.236,0,0,0,3.126-.6c3.84,2.122,9.841,2.021,13.474-.3q.211-.317.395-.659a10.845,10.845,0,0,0,1.11-5.491V9.741a10.845,10.845,0,0,0-1.11-5.491A7.523,7.523,0,0,0,19.634,1.11,10.845,10.845,0,0,0,14.143,0h-1.9a11.676,11.676,0,0,0-4.88.814q-.1.089-.2.181C3.61,4.425,3.339,11.86,6.356,15.9l.011.018c.465.685.016,1.885-.685,2.586C5.568,18.609,5.609,18.675,5.78,18.691Z" transform="translate(-2.35)" fill="#fff" fill-rule="evenodd"/>
      <path id="Path_500" data-name="Path 500" d="M14.857,17h-4.17v.894H13.58L10.727,21.43a.8.8,0,0,0-.154.528v.228h3.934a.361.361,0,0,0,.358-.358v-.48h-3.04l2.682-3.365.146-.179.016-.024a1.062,1.062,0,0,0,.187-.658Z" transform="translate(-5.944 -9.71)" fill="#0068ff"/>
      <path id="Path_501" data-name="Path 501" d="M32.541,22.186h.593V17H32.24v4.885A.3.3,0,0,0,32.541,22.186Z" transform="translate(-18.321 -9.71)" fill="#0068ff"/>
      <path id="Path_502" data-name="Path 502" d="M23.107,19.692a2.032,2.032,0,1,0,2.032,2.032A2.033,2.033,0,0,0,23.107,19.692Zm0,3.227A1.195,1.195,0,1,1,24.3,21.725,1.2,1.2,0,0,1,23.107,22.92Z" transform="translate(-11.943 -11.248)" fill="#0068ff"/>
      <path id="Path_503" data-name="Path 503" d="M37.758,19.616a2.048,2.048,0,1,0,2.048,2.048A2.05,2.05,0,0,0,37.758,19.616Zm0,3.26a1.2,1.2,0,1,1,1.2-1.2A1.2,1.2,0,0,1,37.758,22.876Z" transform="translate(-20.303 -11.205)" fill="#0068ff"/>
      <path id="Path_504" data-name="Path 504" d="M28.98,23.875h.48V19.957h-.837v3.569A.359.359,0,0,0,28.98,23.875Z" transform="translate(-16.254 -11.4)" fill="#0068ff"/>
    </g>
  </g>
</svg>
