<svg xmlns="http://www.w3.org/2000/svg" width="24" height="24" viewBox="0 0 24 24">
  <g id="icon_tongsotang" transform="translate(-398 -977)">
    <rect id="Rectangle_624" data-name="Rectangle 624" width="24" height="24" transform="translate(398 977)" fill="none"/>
    <path id="Layer" d="M10.736,16.736a.547.547,0,0,1-.231-.051l-8.19-3.822a.546.546,0,0,1,0-.99l8.19-3.822a.546.546,0,0,1,.462,0l8.19,3.822a.546.546,0,0,1,0,.99l-8.19,3.822A.547.547,0,0,1,10.736,16.736Zm-6.9-4.368,6.9,3.219,6.9-3.219-6.9-3.219Zm7.13,7.593,8.19-3.822a.546.546,0,0,0-.462-.99l-7.959,3.714L2.777,15.149a.546.546,0,1,0-.462.99l8.19,3.822a.546.546,0,0,0,.462,0Zm0,3.276,8.19-3.822a.546.546,0,1,0-.462-.99l-7.959,3.714L2.777,18.425a.546.546,0,0,0-.462.99l8.19,3.822a.546.546,0,0,0,.462,0Z" transform="translate(399 973)" fill="#1d1d44"/>
  </g>
</svg>
