<svg xmlns="http://www.w3.org/2000/svg" width="24" height="24" viewBox="0 0 24 24">
  <g id="icon_noithat" transform="translate(-398 -977)">
    <rect id="Rectangle_624" data-name="Rectangle 624" width="24" height="24" transform="translate(398 977)" fill="none"/>
    <g id="_x30_7_Sofa" transform="translate(372.6 968.577)">
      <g id="Group_1700" data-name="Group 1700" transform="translate(26.225 12.423)">
        <path id="Path_753" data-name="Path 753" d="M172.231,282.588a1.6,1.6,0,0,0-1.322.7,1.6,1.6,0,0,0-1.322-.7h-3.466a1.59,1.59,0,0,0-1.349.74.277.277,0,0,0,.467.3,1.039,1.039,0,0,1,.882-.484h3.466a1.047,1.047,0,0,1,1.045,1.045v3.084c-.379-.19-.312-.069-4.694-.106a.277.277,0,1,0,0,.553h4.248a.447.447,0,0,1,.446.446v.671a.277.277,0,1,0,.553,0v-.671c.007-.03-.06-.361.2-.361H175.9a.277.277,0,1,0,0-.553c-4.751.013-4.508-.028-4.718.031v-3.093a1.047,1.047,0,0,1,1.045-1.045H175.7a1.036,1.036,0,0,1,.887.494.277.277,0,0,0,.471-.291,1.586,1.586,0,0,0-1.358-.756h-3.466Z" transform="translate(-158.038 -276.508)" fill="#1d1d44"/>
        <path id="Path_754" data-name="Path 754" d="M116.81,305.547a1.783,1.783,0,0,0-1.635,1.8V311.1a.414.414,0,0,1-.413.413h-10.8a.414.414,0,0,1-.413-.413v-3.751a1.783,1.783,0,0,0-1.635-1.8,1.752,1.752,0,0,0-.373,3.482v3.3a1.19,1.19,0,0,0,.935,1.161v.671a1.064,1.064,0,1,0,2.129,0v-.643h9.514v.643a1.064,1.064,0,1,0,2.129,0v-.671a1.19,1.19,0,0,0,.935-1.161v-3.3a1.752,1.752,0,0,0-.374-3.482Zm-12.757,8.615a.511.511,0,0,1-1.023,0v-.643h1.023v.643Zm11.642,0a.511.511,0,0,1-1.022,0v-.643H115.7v.643Zm1.243-5.667h-.027a.264.264,0,0,0-.2.08.276.276,0,0,0-.082.2v3.561a.636.636,0,0,1-.635.635H102.73a.636.636,0,0,1-.635-.635V308.77a.277.277,0,0,0-.277-.276h-.02a1.2,1.2,0,1,1,.081-2.4A1.229,1.229,0,0,1,103,307.347V311.1a.967.967,0,0,0,.966.966h10.8a.967.967,0,0,0,.966-.966v-3.751a1.229,1.229,0,0,1,1.118-1.248,1.2,1.2,0,1,1,.092,2.4Z" transform="translate(-96.48 -298.354)" fill="#1d1d44"/>
        <path id="Path_757" data-name="Path 757" d="M31.312,162.32a1.127,1.127,0,0,0,1.126-1.119h.926c.36,0,.266-.448.277-.491a2.33,2.33,0,0,0-2.051-2.31v-.491a1.194,1.194,0,0,0-1.193-1.193H28.5a1.194,1.194,0,0,0-1.193,1.193v15.013h-.8a.277.277,0,1,0,0,.553h2.155a.277.277,0,1,0,0-.553h-.8V157.908a.641.641,0,0,1,.64-.64h1.9a.641.641,0,0,1,.64.64v.491a2.33,2.33,0,0,0-2.051,2.31v.215a.276.276,0,0,0,.277.277h.925A1.128,1.128,0,0,0,31.312,162.32Zm0-.553a.574.574,0,0,1-.573-.566h1.147A.574.574,0,0,1,31.312,161.767Zm0-2.832a1.777,1.777,0,0,1,1.774,1.713c-.355,0,1.3,0-3.548,0A1.777,1.777,0,0,1,31.312,158.935Z" transform="translate(-26.225 -156.715)" fill="#1d1d44"/>
      </g>
    </g>
  </g>
</svg>
