<svg xmlns="http://www.w3.org/2000/svg" width="24" height="24" viewBox="0 0 24 24">
  <g id="icon_naptien" transform="translate(-3025 150)">
    <path id="Path_810" data-name="Path 810" d="M12.1,60.937a.369.369,0,0,1-.369.369H3.188A3.192,3.192,0,0,1,0,58.118v-9.4a1.706,1.706,0,0,1,1.482-1.71L12.32,45.524a1.728,1.728,0,0,1,1.972,1.71V47.8a.369.369,0,1,1-.739,0v-.568a.948.948,0,0,0-.341-.747.96.96,0,0,0-.791-.231L1.582,47.744a.968.968,0,0,0-.82.764H13.525A3.192,3.192,0,0,1,16.714,51.7v1.012a.369.369,0,1,1-.739,0V51.7a2.452,2.452,0,0,0-2.45-2.449H.739v8.871a2.452,2.452,0,0,0,2.449,2.45h8.539a.369.369,0,0,1,.369.369Zm8.889-2.27a4.672,4.672,0,1,1-.97-3.442,4.64,4.64,0,0,1,.97,3.442Zm-1.551-2.984a3.906,3.906,0,0,0-2.626-1.471,4.005,4.005,0,0,0-.47-.028,3.934,3.934,0,1,0,3.1,1.5Zm-.558,2.065H16.714V55.587a.369.369,0,1,0-.739,0v2.161H13.813a.369.369,0,1,0,0,.739h2.163V60.65a.369.369,0,0,0,.739,0V58.487h2.161a.369.369,0,1,0,0-.739Z" transform="translate(3026.549 -192.507)"/>
    <rect id="Rectangle_637" data-name="Rectangle 637" width="24" height="24" transform="translate(3025 -150)" fill="none"/>
  </g>
</svg>
