<svg xmlns="http://www.w3.org/2000/svg" width="24" height="24" viewBox="0 0 24 24">
  <g id="icon_maduan" transform="translate(-398 -977)">
    <rect id="Rectangle_624" data-name="Rectangle 624" width="24" height="24" transform="translate(398 977)" fill="none"/>
    <g id="Group_1701" data-name="Group 1701" transform="translate(400 896)">
      <g id="Group_1702" data-name="Group 1702" transform="translate(14.226 96.106)">
        <g id="Group_1701-2" data-name="Group 1701">
          <path id="Path_758" data-name="Path 758" d="M366.389,346a.389.389,0,1,0,.389.389A.389.389,0,0,0,366.389,346Z" transform="translate(-366 -346)" fill="#1d1d44"/>
        </g>
      </g>
      <g id="Group_1704" data-name="Group 1704" transform="translate(12.671 96.106)">
        <g id="Group_1703" data-name="Group 1703">
          <path id="Path_759" data-name="Path 759" d="M326.389,346a.389.389,0,1,0,.389.389A.389.389,0,0,0,326.389,346Z" transform="translate(-326 -346)" fill="#1d1d44"/>
        </g>
      </g>
      <g id="Group_1706" data-name="Group 1706" transform="translate(8.007 96.106)">
        <g id="Group_1705" data-name="Group 1705">
          <path id="Path_760" data-name="Path 760" d="M206.389,346a.389.389,0,1,0,.389.389A.389.389,0,0,0,206.389,346Z" transform="translate(-206 -346)" fill="#1d1d44"/>
        </g>
      </g>
      <g id="Group_1708" data-name="Group 1708" transform="translate(6.452 96.106)">
        <g id="Group_1707" data-name="Group 1707">
          <path id="Path_761" data-name="Path 761" d="M166.389,346a.389.389,0,1,0,.389.389A.389.389,0,0,0,166.389,346Z" transform="translate(-166 -346)" fill="#1d1d44"/>
        </g>
      </g>
      <g id="Group_1710" data-name="Group 1710" transform="translate(4.897 96.106)">
        <g id="Group_1709" data-name="Group 1709">
          <path id="Path_762" data-name="Path 762" d="M126.389,346a.389.389,0,1,0,.389.389A.389.389,0,0,0,126.389,346Z" transform="translate(-126 -346)" fill="#1d1d44"/>
        </g>
      </g>
      <g id="Group_1712" data-name="Group 1712" transform="translate(2.449 88.332)">
        <g id="Group_1711" data-name="Group 1711">
          <path id="Path_763" data-name="Path 763" d="M63.389,146a.389.389,0,0,0-.389.389v7.774a.389.389,0,0,0,.777,0v-7.774A.389.389,0,0,0,63.389,146Z" transform="translate(-63 -146)" fill="#1d1d44"/>
        </g>
      </g>
      <g id="Group_1714" data-name="Group 1714" transform="translate(10.339 88.332)">
        <g id="Group_1713" data-name="Group 1713">
          <path id="Path_764" data-name="Path 764" d="M266.389,146a.389.389,0,0,0-.389.389v7.774a.389.389,0,0,0,.777,0v-7.774A.389.389,0,0,0,266.389,146Z" transform="translate(-266 -146)" fill="#1d1d44"/>
        </g>
      </g>
      <g id="Group_1716" data-name="Group 1716" transform="translate(16.675 88.332)">
        <g id="Group_1715" data-name="Group 1715">
          <path id="Path_765" data-name="Path 765" d="M429.389,146a.389.389,0,0,0-.389.389v7.774a.389.389,0,0,0,.777,0v-7.774A.389.389,0,0,0,429.389,146Z" transform="translate(-429 -146)" fill="#1d1d44"/>
        </g>
      </g>
      <g id="Group_1718" data-name="Group 1718" transform="translate(0 86)">
        <g id="Group_1717" data-name="Group 1717">
          <path id="Path_766" data-name="Path 766" d="M18.735,86H1.166A1.167,1.167,0,0,0,0,87.166V98.049a1.167,1.167,0,0,0,1.166,1.166H18.735A1.167,1.167,0,0,0,19.9,98.049V87.166A1.167,1.167,0,0,0,18.735,86Zm.389,12.049a.389.389,0,0,1-.389.389H1.166a.389.389,0,0,1-.389-.389V87.166a.389.389,0,0,1,.389-.389H18.735a.389.389,0,0,1,.389.389Z" transform="translate(0 -86)" fill="#1d1d44"/>
        </g>
      </g>
      <g id="Group_1720" data-name="Group 1720" transform="translate(4.897 88.332)">
        <g id="Group_1719" data-name="Group 1719">
          <path id="Path_767" data-name="Path 767" d="M126.389,146a.389.389,0,0,0-.389.389v6.219a.389.389,0,1,0,.777,0v-6.219A.389.389,0,0,0,126.389,146Z" transform="translate(-126 -146)" fill="#1d1d44"/>
        </g>
      </g>
      <g id="Group_1722" data-name="Group 1722" transform="translate(6.452 88.332)">
        <g id="Group_1721" data-name="Group 1721">
          <path id="Path_768" data-name="Path 768" d="M166.389,146a.389.389,0,0,0-.389.389v6.219a.389.389,0,1,0,.777,0v-6.219A.389.389,0,0,0,166.389,146Z" transform="translate(-166 -146)" fill="#1d1d44"/>
        </g>
      </g>
      <g id="Group_1724" data-name="Group 1724" transform="translate(8.007 88.332)">
        <g id="Group_1723" data-name="Group 1723">
          <path id="Path_769" data-name="Path 769" d="M206.389,146a.389.389,0,0,0-.389.389v6.219a.389.389,0,1,0,.777,0v-6.219A.389.389,0,0,0,206.389,146Z" transform="translate(-206 -146)" fill="#1d1d44"/>
        </g>
      </g>
      <g id="Group_1726" data-name="Group 1726" transform="translate(12.671 88.332)">
        <g id="Group_1725" data-name="Group 1725">
          <path id="Path_770" data-name="Path 770" d="M326.389,146a.389.389,0,0,0-.389.389v6.219a.389.389,0,1,0,.777,0v-6.219A.389.389,0,0,0,326.389,146Z" transform="translate(-326 -146)" fill="#1d1d44"/>
        </g>
      </g>
      <g id="Group_1728" data-name="Group 1728" transform="translate(14.226 88.332)">
        <g id="Group_1727" data-name="Group 1727">
          <path id="Path_771" data-name="Path 771" d="M366.389,146a.389.389,0,0,0-.389.389v6.219a.389.389,0,1,0,.777,0v-6.219A.389.389,0,0,0,366.389,146Z" transform="translate(-366 -146)" fill="#1d1d44"/>
        </g>
      </g>
    </g>
  </g>
</svg>
