<svg xmlns="http://www.w3.org/2000/svg" width="24" height="24" viewBox="0 0 24 24">
  <g id="icon_hinhthuc" transform="translate(-398 -977)">
    <rect id="Rectangle_624" data-name="Rectangle 624" width="24" height="24" transform="translate(398 977)" fill="none"/>
    <g id="_x31_8834_-_Handshake" transform="translate(380.639 884.502)">
      <g id="XMLID_489_" transform="translate(18.361 96.498)">
        <g id="XMLID_472_" transform="translate(0 0)">
          <g id="XMLID_549_">
            <g id="Group_1736" data-name="Group 1736">
              <path id="Path_801" data-name="Path 801" d="M30.044,112.129a1.936,1.936,0,0,1-1.129-.4.334.334,0,0,0-.055-.032c-1.27.252-1.782.044-2.294-.991a1.684,1.684,0,0,1-1.665-1.392,1.747,1.747,0,0,1-1.375-1.373,1.916,1.916,0,0,1-1.383-1.336,1.451,1.451,0,0,0-.46-.471l-.032-.025a1.148,1.148,0,0,1-.56.513c-.3.1-.592,0-1.123-.2l-.354-.131c-.212-.079-.432-.161-.647-.233a.811.811,0,0,1-.59-.979q.249-1.5.5-3c.262-1.581.532-3.217.8-4.825a.871.871,0,0,1,.428-.693.9.9,0,0,1,.832.086c.691.365,1.391.741,2.068,1.1l.776.416c.3.161.559.3.654.564a1.055,1.055,0,0,1-.089.737,1.985,1.985,0,0,0,1.245-.028A5.041,5.041,0,0,1,29,99.419a4.606,4.606,0,0,1,3.429-.185,5.5,5.5,0,0,0,1.557.3,2,2,0,0,0,.25-.055,1,1,0,0,1-.079-.739c.109-.285.391-.433.818-.657.5-.261,1-.533,1.492-.795.383-.205.778-.418,1.169-.625a.965.965,0,0,1,.85-.1.934.934,0,0,1,.431.714c.228,1.364.457,2.751.679,4.092q.306,1.847.613,3.694a.835.835,0,0,1-.606,1.009c-.321.108-.645.227-.959.342l-.433.158c-.534.193-.841.236-1.175-.225l-.51.267-.014.007-.012.006c.014,1.25-.328,1.772-1.355,2.06A1.74,1.74,0,0,1,33.5,110.1l0,0a1.725,1.725,0,0,1-1.927,1.12.178.178,0,0,0-.044.026,1.825,1.825,0,0,1-1.183.852,1.606,1.606,0,0,1-.3.028Zm-1.142-.436h0Zm-.035-.678a.806.806,0,0,1,.447.166,1.055,1.055,0,0,0,1.645-.309.766.766,0,0,1,.659-.328,1.058,1.058,0,0,0,1.262-.73.667.667,0,0,1,.5-.389,1.11,1.11,0,0,0,1.141-1.068.341.341,0,0,1,.259-.276c.871-.2,1.084-.416,1.035-1.641a.341.341,0,0,1,.037-.169l-.071-.076c-.317-.341-.645-.693-.977-1.031-.432-.44-.878-.883-1.308-1.312-.383-.382-.78-.777-1.167-1.169a1.956,1.956,0,0,0-2.223-.495c-.508.18-1.022.371-1.52.556-.316.117-.643.239-.966.357-1.146.418-1.662-.063-1.893-.54-.155-.32-.389-1.138.8-1.8l.567-.316c.334-.187.676-.378,1.021-.566a4.441,4.441,0,0,0-2.3.208,2.731,2.731,0,0,1-2.046-.1.341.341,0,0,1-.181-.435l.076-.2a2.607,2.607,0,0,0,.126-.382,2.5,2.5,0,0,0-.33-.2l-.777-.416c-.676-.363-1.375-.737-2.065-1.1a.542.542,0,0,0-.209-.075.505.505,0,0,0-.06.191c-.269,1.608-.539,3.243-.8,4.824q-.248,1.5-.5,3c-.024.144-.005.175.134.221.227.075.452.16.67.241l.347.128a2.25,2.25,0,0,0,.673.192,2.254,2.254,0,0,0,.416-.56.341.341,0,0,1,.523-.063c.085.082.186.161.293.245a1.867,1.867,0,0,1,.678.773,1.254,1.254,0,0,0,1.084.943.341.341,0,0,1,.285.285,1.108,1.108,0,0,0,.944,1.058.622.622,0,0,1,.455.439,1.065,1.065,0,0,0,1.229.932h0a.341.341,0,0,1,.31.2c.417.919.6,1.008,1.67.791a.5.5,0,0,1,.1-.01Zm2.667.224h0Zm.013-.019h0Zm1.876-1.116h0Zm3.735-4.544a.341.341,0,0,1,.294.168c.029.049.055.094.08.134a1,1,0,0,0,.121.169,2.085,2.085,0,0,0,.328-.1l.43-.157c.318-.117.648-.237.977-.348.156-.053.178-.088.15-.251q-.308-1.847-.613-3.695c-.222-1.341-.451-2.728-.679-4.091a.618.618,0,0,0-.063-.211.66.66,0,0,0-.227.086c-.389.206-.784.418-1.165.623-.49.263-1,.535-1.5.8a2.822,2.822,0,0,0-.5.3,2.638,2.638,0,0,0,.175.5.4.4,0,0,1-.011.311l0,.009a.341.341,0,0,1-.19.211,2.738,2.738,0,0,1-.708.2l-.035,0h-.034a6.143,6.143,0,0,1-1.776-.335,3.965,3.965,0,0,0-3.052.214l0,0q-.089.042-.174.088c-.525.278-1.053.573-1.564.859l-.568.317c-.749.416-.583.757-.513.9.083.172.238.492,1.045.2.321-.117.647-.238.962-.355.5-.186,1.017-.378,1.529-.559a2.615,2.615,0,0,1,2.936.658c.385.39.78.784,1.163,1.165.432.43.879.875,1.314,1.318.339.345.67.7.99,1.044l.154.165.566-.3A.338.338,0,0,1,37.157,105.56Z" transform="translate(-18.361 -96.498)" fill="#1d1d44"/>
            </g>
          </g>
          <g id="XMLID_485_" transform="translate(15.954 2.771)">
            <g id="Group_1737" data-name="Group 1737" transform="translate(0)">
              <path id="Path_802" data-name="Path 802" d="M395.792,168.661a.341.341,0,0,1-.316-.214l-2.585-6.431a.341.341,0,0,1,.632-.254l2.585,6.431a.341.341,0,0,1-.316.468Z" transform="translate(-392.866 -161.548)" fill="#1d1d44"/>
            </g>
          </g>
          <g id="XMLID_488_" transform="translate(2.875 2.835)">
            <g id="Group_1738" data-name="Group 1738">
              <path id="Path_803" data-name="Path 803" d="M86.187,169.65a.341.341,0,0,1-.317-.465l2.327-5.93a.341.341,0,0,1,.635.249l-2.327,5.93A.341.341,0,0,1,86.187,169.65Z" transform="translate(-85.846 -163.038)" fill="#1d1d44"/>
            </g>
          </g>
        </g>
        <g id="XMLID_490_" transform="translate(13.263 8.683)">
          <g id="Group_1739" data-name="Group 1739">
            <path id="Path_804" data-name="Path 804" d="M332.922,303.884a.34.34,0,0,1-.241-.1l-2.891-2.891a.341.341,0,1,1,.482-.482l2.891,2.891a.341.341,0,0,1-.241.582Z" transform="translate(-329.69 -300.312)" fill="#1d1d44"/>
          </g>
        </g>
        <g id="XMLID_498_" transform="translate(11.465 9.796)">
          <g id="Group_1740" data-name="Group 1740">
            <path id="Path_805" data-name="Path 805" d="M291,330.291a.34.34,0,0,1-.241-.1l-3.158-3.158a.341.341,0,0,1,.482-.482l3.158,3.158a.341.341,0,0,1-.241.582Z" transform="translate(-287.5 -326.451)" fill="#1d1d44"/>
          </g>
        </g>
        <g id="XMLID_497_" transform="translate(9.333 10.842)">
          <g id="Group_1741" data-name="Group 1741">
            <path id="Path_806" data-name="Path 806" d="M241.161,354.929a.34.34,0,0,1-.236-.095l-3.377-3.239a.341.341,0,1,1,.472-.492l3.377,3.239a.341.341,0,0,1-.236.587Z" transform="translate(-237.443 -351.008)" fill="#1d1d44"/>
          </g>
        </g>
        <g id="XMLID_493_" transform="translate(5.114 9.64)">
          <g id="Group_1742" data-name="Group 1742">
            <path id="Path_807" data-name="Path 807" d="M143.767,328.337a.341.341,0,0,1-.241-.582l.737-.737a.713.713,0,0,0-1-1.018l-1.31,1.258a.341.341,0,0,1-.477-.487l1.23-1.23a.709.709,0,0,0-1-1l-.458.458,0,0-.933.933a.341.341,0,0,1-.482-.482l.935-.935a.62.62,0,0,0-.878-.875l-.894.894a.341.341,0,1,1-.482-.482l.894-.894a1.3,1.3,0,0,1,2.189.632,1.391,1.391,0,0,1,2,1.34,1.394,1.394,0,0,1,1.151,2.37l-.737.737A.34.34,0,0,1,143.767,328.337Z" transform="translate(-138.409 -322.776)" fill="#1d1d44"/>
          </g>
        </g>
      </g>
    </g>
  </g>
</svg>
