<svg xmlns="http://www.w3.org/2000/svg" width="24" height="24" viewBox="0 0 24 24">
  <g id="icon_giam2" transform="translate(-398 -977)">
    <rect id="Rectangle_624" data-name="Rectangle 624" width="24" height="24" transform="translate(398 977)" fill="none"/>
    <g id="Group_1689" data-name="Group 1689" transform="translate(44.66 -10.34)">
      <path id="Union_3" data-name="Union 3" d="M-5941.54,39.449l3-10,.478.145-3,10Zm6.917-2.328v-2.1c0-.491-.263-.784-.7-.784a.79.79,0,0,0-.761.892v2h-.425V35.009a.7.7,0,0,0-.7-.776c-.458,0-.764.39-.764.969v1.919h-.43V33.875h.415v.348a1.012,1.012,0,0,1,.825-.4,1.014,1.014,0,0,1,.924.557,1.083,1.083,0,0,1,.966-.557,1.049,1.049,0,0,1,1.076,1.137v2.157Zm-12.038-3.409a2.347,2.347,0,0,1,2.325-2.562,2.15,2.15,0,0,1,1.9,1.031V30.468h-1.358v-.434h1.358v-.694h.564v.694h.674v.434h-.674V36.21h-.539v-1a2.156,2.156,0,0,1-1.917,1.066A2.348,2.348,0,0,1-5946.661,33.712Zm.565,0a1.879,1.879,0,0,0,1.815,2.086,1.889,1.889,0,0,0,1.848-2.082,1.888,1.888,0,0,0-1.848-2.08A1.874,1.874,0,0,0-5946.1,33.708Zm12.1.158v-.293l.746-.764c.255-.272.3-.367.3-.476a.29.29,0,0,0-.322-.278.307.307,0,0,0-.329.306v.1h-.4V32.36a.7.7,0,0,1,.742-.684.667.667,0,0,1,.727.645c0,.23-.1.409-.427.739l-.409.427h.891v.379Z" transform="translate(6305.14 965.319)" fill="#1d1d44"/>
      <path id="Ellipse_7" data-name="Ellipse 7" d="M9.5.7a8.8,8.8,0,1,0,8.8,8.8A8.81,8.81,0,0,0,9.5.7m0-.7A9.5,9.5,0,1,1,0,9.5,9.5,9.5,0,0,1,9.5,0Z" transform="translate(356.34 990.34)" fill="#1d1d43"/>
    </g>
  </g>
</svg>
