<svg xmlns="http://www.w3.org/2000/svg" width="18" height="18" viewBox="0 0 18 18">
  <path id="icon_map" d="M17.9.05a.359.359,0,0,0-.357,0L11.954,3.136,6.368.046a.358.358,0,0,0-.348,0L.26,3.233a.359.359,0,0,0-.186.315V17.641a.36.36,0,0,0,.534.315l5.586-3.091,5.586,3.091a.363.363,0,0,0,.174.045.358.358,0,0,0,.174-.046l5.761-3.186a.36.36,0,0,0,.185-.315V.361A.36.36,0,0,0,17.9.05ZM5.834,14.241.794,17.03V3.76L5.834.971Zm5.76,2.789-5.04-2.789V.971l5.04,2.789Zm5.76-2.789-5.04,2.789V3.76L17.354.971Zm0,0" transform="translate(-0.074 0)" fill="#fff"/>
</svg>
