<svg id="icon_email" xmlns="http://www.w3.org/2000/svg" width="24" height="24" viewBox="0 0 24 24">
  <rect id="Rectangle_231" data-name="Rectangle 231" width="24" height="24" fill="#fff"/>
  <g id="Group_855" data-name="Group 855" transform="translate(3.397 -79.402)">
    <g id="Group_855-2" data-name="Group 855" transform="translate(0 85.333)">
      <path id="Path_505" data-name="Path 505" d="M16.8,85.333H.908A.911.911,0,0,0,0,86.241v9.987a.911.911,0,0,0,.908.908H16.8a.911.911,0,0,0,.908-.908V86.241A.911.911,0,0,0,16.8,85.333Zm-.341.681L9.375,91.326a.949.949,0,0,1-1.045,0L1.249,86.014Zm-3.783,5.662,3.859,4.767.013.013H1.16l.013-.013,3.859-4.767a.341.341,0,0,0-.529-.429L.681,95.968V86.44L7.922,91.87a1.625,1.625,0,0,0,1.861,0l7.241-5.431v9.528L13.2,91.247a.341.341,0,0,0-.529.429Z" transform="translate(0 -85.333)" fill="#1d1d44"/>
    </g>
  </g>
</svg>
