<svg xmlns="http://www.w3.org/2000/svg" xmlns:xlink="http://www.w3.org/1999/xlink" width="167" height="131.5" viewBox="0 0 167 131.5">
  <defs>
    <clipPath id="clip-path">
      <rect id="Rectangle_5756" data-name="Rectangle 5756" width="167" height="98" transform="translate(0.359 0.297)" fill="none" stroke="#707070" stroke-width="1"/>
    </clipPath>
  </defs>
  <g id="img_nolist" transform="translate(-9775.359 452.703)" opacity="0.497">
    <g id="Mask_Group_13" data-name="Mask Group 13" transform="translate(9775 -453)" clip-path="url(#clip-path)">
      <ellipse id="Ellipse_43" data-name="Ellipse 43" cx="66" cy="66.5" rx="66" ry="66.5" transform="translate(18.359 7.297)" fill="#ebebeb"/>
      <line id="Line_53" data-name="Line 53" x2="217.604" transform="translate(-24.513 97.621)" fill="none" stroke="#8d8da1" stroke-width="2"/>
    </g>
    <g id="Group_14417" data-name="Group 14417" transform="translate(9821.445 -416.016)">
      <rect id="Rectangle_5746" data-name="Rectangle 5746" width="76" height="94" rx="3" transform="translate(-0.086 0.313)" fill="#c3c3c3" stroke="#8d8da1" stroke-width="1"/>
      <path id="Path_5965" data-name="Path 5965" d="M56,424h74.633v13.082a1.867,1.867,0,0,1-1.866,1.869h-70.9A1.867,1.867,0,0,1,56,437.082Z" transform="translate(-55.359 -344.945)" fill="#fff"/>
      <g id="Group_14416" data-name="Group 14416" transform="translate(4.3 5.161)">
        <rect id="Rectangle_5747" data-name="Rectangle 5747" width="16" height="3" transform="translate(-0.387 80.153)" fill="#c3c3c3"/>
        <rect id="Rectangle_5748" data-name="Rectangle 5748" width="6" height="3" transform="translate(17.613 80.153)" fill="#c3c3c3"/>
        <rect id="Rectangle_5749" data-name="Rectangle 5749" width="3" height="3" transform="translate(57.613 80.153)" fill="#c3c3c3"/>
        <rect id="Rectangle_5750" data-name="Rectangle 5750" width="3" height="3" transform="translate(63.613 80.153)" fill="#c3c3c3"/>
        <g id="Group_14415" data-name="Group 14415" transform="translate(1.72 0)">
          <g id="Group_14414" data-name="Group 14414" transform="translate(0 0.86)">
            <circle id="Ellipse_42" data-name="Ellipse 42" cx="6" cy="6" r="6" transform="translate(-0.106 0.293)" fill="#fff"/>
            <rect id="Rectangle_5751" data-name="Rectangle 5751" width="24" height="4" transform="translate(15.894 1.293)" fill="#fff"/>
            <rect id="Rectangle_5752" data-name="Rectangle 5752" width="10" height="4" transform="translate(33.894 7.293)" fill="#fff"/>
            <rect id="Rectangle_5753" data-name="Rectangle 5753" width="14" height="4" transform="translate(15.894 7.293)" fill="#fff"/>
            <path id="Path_5966" data-name="Path 5966" d="M149.87,144H89.9a1.9,1.9,0,0,0-1.9,1.9v35.68a1.9,1.9,0,0,0,1.9,1.9h19.738l10.248,13.665,10.248-13.665H149.87a1.9,1.9,0,0,0,1.9-1.9V145.9A1.9,1.9,0,0,0,149.87,144Z" transform="translate(-87.947 -124.106)" fill="#fff"/>
          </g>
          <rect id="Rectangle_5754" data-name="Rectangle 5754" width="3" height="2" transform="translate(55.894 0.153)" fill="#fff"/>
          <rect id="Rectangle_5755" data-name="Rectangle 5755" width="3" height="2" transform="translate(61.894 0.153)" fill="#fff"/>
          <path id="Path_5967" data-name="Path 5967" d="M192.612,184a8.815,8.815,0,0,0-7.911,4.813A8.815,8.815,0,0,0,176.79,184a8.668,8.668,0,0,0-8.79,8.54c0,11.1,16.7,18.789,16.7,18.789s16.7-7.686,16.7-18.789A8.668,8.668,0,0,0,192.612,184Z" transform="translate(-152.765 -155.654)" fill="#c3c3c3"/>
        </g>
      </g>
    </g>
  </g>
</svg>
