<svg xmlns="http://www.w3.org/2000/svg" xmlns:xlink="http://www.w3.org/1999/xlink" width="148.203" height="37.537" viewBox="0 0 148.203 37.537">
  <defs>
    <clipPath id="clip-path">
      <rect id="Rectangle_41" data-name="Rectangle 41" width="145.032" height="37.201" transform="translate(0 0)" fill="#fff"/>
    </clipPath>
  </defs>
  <g id="logo_login" transform="translate(-1696.48 51)">
    <rect id="Rectangle_42" data-name="Rectangle 42" width="148.203" height="37.317" transform="translate(1696.48 -50.78)" fill="none"/>
    <g id="Group_513" data-name="Group 513" transform="translate(1698.204 -51)">
      <g id="Group_510" data-name="Group 510" transform="translate(0 0)" clip-path="url(#clip-path)">
        <path id="Path_242" data-name="Path 242" d="M158.907,34.6a4.22,4.22,0,0,1-2.225,3.848,8.7,8.7,0,0,1-4.537,1.091h-7.753v3.2h-3.417V29.661h11.17a8.991,8.991,0,0,1,4.537,1.048,4.256,4.256,0,0,1,2.225,3.891m-3.4,0a1.261,1.261,0,0,0-.89-1.149,4.117,4.117,0,0,0-1.881-.387h-8.342v3.029h8.342a4.551,4.551,0,0,0,1.881-.345,1.279,1.279,0,0,0,.89-1.148" transform="translate(-99.25 -20.882)" fill="#fff"/>
        <path id="Path_243" data-name="Path 243" d="M225.022,34.6a4.361,4.361,0,0,1-2.843,4.164l1.967,4.034h-3.819l-1.594-3.259h-8.227v3.23H207.09V29.661H218.5a7.991,7.991,0,0,1,4.379,1.177,4.224,4.224,0,0,1,2.139,3.762m-3.4,0q0-.776-1.235-1.206a5.994,5.994,0,0,0-1.881-.3h-8v3.029h7.968a5.827,5.827,0,0,0,1.909-.316q1.235-.416,1.235-1.206" transform="translate(-145.796 -20.882)" fill="#fff"/>
        <path id="Path_244" data-name="Path 244" d="M293.354,36.209a6.335,6.335,0,0,1-6.533,6.533H279.04a6.393,6.393,0,0,1-4.7-1.852,6.317,6.317,0,0,1-1.866-4.68,6.358,6.358,0,0,1,6.561-6.547h7.782a6.335,6.335,0,0,1,6.533,6.547m-3.4,0a3.046,3.046,0,0,0-.854-2.275,3.241,3.241,0,0,0-2.3-.869H279.04a3.215,3.215,0,0,0-2.3.869,3.491,3.491,0,0,0,0,4.558,3.135,3.135,0,0,0,2.3.833h7.753a3.161,3.161,0,0,0,2.3-.833,3.041,3.041,0,0,0,.854-2.283" transform="translate(-191.831 -20.883)" fill="#fff"/>
        <path id="Path_245" data-name="Path 245" d="M363.481.193q3.661,0,4.738,2.771a2.974,2.974,0,0,1,.1,1.019q-.2,2-4.681,3.963a5.949,5.949,0,0,1-2.441.574q-.387-.071-.172-.33.474-.287,2.7-1.651,2.857-2.067,2.857-2.914,0-.545-1.479-.66h-1.048q-7.193,0-14.458,5.068-1.794,1.522-1.795,2.7,0,1.321,5.959,2.685,4.824,1.479,4.824,4.164,0,3.115-5.226,5.714a10.81,10.81,0,0,1-4.25,1.149q-2.958-.244-3.288-1.823a1.831,1.831,0,0,1,0-.79q1.191-3.877,16.453-7.638.589-.186.589.158-5.571,1.867-8.938,3.094a22.331,22.331,0,0,0-5.254,2.577q-1.888,1.35-1.529,2.053a.736.736,0,0,0,.66.158q3.3,0,7.423-2.972a3.582,3.582,0,0,0,1.392-2.111q.087-1.938-6.044-3.158-4.9-1.364-4.9-3.589,0-5.413,10.509-8.873A32.954,32.954,0,0,1,363.481.193" transform="translate(-243.365 -0.136)" fill="#fff"/>
        <path id="Path_246" data-name="Path 246" d="M422.837,42.741h-3.4v-3.2H408.322v3.2H404.9V35.391a4.888,4.888,0,0,1,2.8-4.437,10.824,10.824,0,0,1,5.37-1.292H414.7a10.7,10.7,0,0,1,5.384,1.292,4.855,4.855,0,0,1,2.756,4.437Zm-3.4-6.647v-.7q0-1.206-1.852-1.852a8.733,8.733,0,0,0-2.886-.474h-1.622a5.943,5.943,0,0,0-4.02,1.091,1.906,1.906,0,0,0-.732,1.263v.675Z" transform="translate(-285.062 -20.883)" fill="#fff"/>
        <rect id="Rectangle_40" data-name="Rectangle 40" width="3.417" height="13.108" transform="translate(140.129 8.779)" fill="#fff"/>
        <path id="Path_249" data-name="Path 249" d="M2.149-2.486V-7.743H.42v-.917H4.883v.917H3.1v5.257Zm3.661,0V-7.117h.909v4.631Zm.882-5.345L5.157-8.661l.573-.723,1.261,1.1ZM7.953-2.486V-7.117H8.87v.988L8.7-6.023a1.492,1.492,0,0,1,.225-.441,1.7,1.7,0,0,1,.379-.375,2.03,2.03,0,0,1,.485-.26,1.516,1.516,0,0,1,.534-.1,1.713,1.713,0,0,1,.7.132,1.206,1.206,0,0,1,.494.4,1.746,1.746,0,0,1,.282.662l-.141-.035.062-.15a1.491,1.491,0,0,1,.269-.384,2.1,2.1,0,0,1,.393-.322,2,2,0,0,1,.467-.221,1.58,1.58,0,0,1,.485-.079,1.6,1.6,0,0,1,.86.212,1.291,1.291,0,0,1,.512.644,2.927,2.927,0,0,1,.172,1.076v2.778H13.96V-5.212a1.753,1.753,0,0,0-.1-.648.75.75,0,0,0-.3-.375.988.988,0,0,0-.52-.123,1.27,1.27,0,0,0-.463.084,1.139,1.139,0,0,0-.375.234,1.076,1.076,0,0,0-.247.348,1.063,1.063,0,0,0-.088.437v2.77h-.917V-5.23a1.58,1.58,0,0,0-.106-.613.825.825,0,0,0-.309-.384.885.885,0,0,0-.494-.132,1.235,1.235,0,0,0-.459.084,1.191,1.191,0,0,0-.37.229,1.028,1.028,0,0,0-.247.344,1.041,1.041,0,0,0-.088.428v2.787Zm10.611,0V-7.117h.909v.953l-.159.106a1.331,1.331,0,0,1,.344-.569,2.051,2.051,0,0,1,.609-.423,1.706,1.706,0,0,1,.723-.163,1.718,1.718,0,0,1,.882.207,1.27,1.27,0,0,1,.529.631,2.792,2.792,0,0,1,.176,1.067v2.823h-.909V-5.247a1.757,1.757,0,0,0-.106-.657.721.721,0,0,0-.326-.379,1.021,1.021,0,0,0-.547-.1A1.355,1.355,0,0,0,20.2-6.3a1.18,1.18,0,0,0-.384.234,1.1,1.1,0,0,0-.256.348,1,1,0,0,0-.093.428v2.8h-.909Zm5.248,0V-9.014h.909v2.849l-.159.106a1.331,1.331,0,0,1,.344-.569,2.051,2.051,0,0,1,.609-.423,1.706,1.706,0,0,1,.723-.163,1.718,1.718,0,0,1,.882.207,1.27,1.27,0,0,1,.529.631,2.792,2.792,0,0,1,.176,1.067v2.823h-.909V-5.247a1.757,1.757,0,0,0-.106-.657.721.721,0,0,0-.326-.379,1.021,1.021,0,0,0-.547-.1,1.355,1.355,0,0,0-.485.084,1.18,1.18,0,0,0-.384.234,1.1,1.1,0,0,0-.256.348,1,1,0,0,0-.093.428v2.8h-.909Zm7.03.088A1.832,1.832,0,0,1,29.8-2.716a2.276,2.276,0,0,1-.754-.864,2.653,2.653,0,0,1-.282-1.235,2.612,2.612,0,0,1,.287-1.239,2.2,2.2,0,0,1,.776-.851,2.016,2.016,0,0,1,1.1-.309,1.976,1.976,0,0,1,.662.106,1.665,1.665,0,0,1,.525.3,1.691,1.691,0,0,1,.37.437,1.366,1.366,0,0,1,.181.529l-.2-.071v-1.2h.917v4.631h-.917v-1.1l.212-.062a1.249,1.249,0,0,1-.216.463,1.741,1.741,0,0,1-.415.4,2.246,2.246,0,0,1-.556.282A1.933,1.933,0,0,1,30.842-2.4Zm.238-.838a1.33,1.33,0,0,0,.732-.2,1.4,1.4,0,0,0,.5-.56,1.782,1.782,0,0,0,.181-.816,1.735,1.735,0,0,0-.181-.8,1.4,1.4,0,0,0-.5-.556,1.33,1.33,0,0,0-.732-.2,1.293,1.293,0,0,0-.719.2,1.417,1.417,0,0,0-.494.556,1.735,1.735,0,0,0-.181.8A1.782,1.782,0,0,0,29.867-4a1.41,1.41,0,0,0,.494.56A1.293,1.293,0,0,0,31.08-3.236Zm.582-4.6-1.535-.829.573-.723,1.261,1.1ZM38.737-2.4a1.586,1.586,0,0,1-.86-.229,1.508,1.508,0,0,1-.565-.644,2.269,2.269,0,0,1-.2-.988V-7.117h.909v2.611a1.757,1.757,0,0,0,.128.7,1,1,0,0,0,.37.454,1.047,1.047,0,0,0,.587.159,1.26,1.26,0,0,0,.467-.084,1.1,1.1,0,0,0,.366-.234,1.072,1.072,0,0,0,.243-.362,1.181,1.181,0,0,0,.088-.459V-7.117a1.083,1.083,0,0,0,.384-.062.633.633,0,0,0,.269-.19.849.849,0,0,0,.159-.318,1.629,1.629,0,0,0,.053-.437h.723a2.2,2.2,0,0,1-.093.653,1.279,1.279,0,0,1-.3.516,1.259,1.259,0,0,1-.551.322l.265-.5v4.648h-.909V-3.624l.115.176a1.55,1.55,0,0,1-.375.538,1.9,1.9,0,0,1-.578.375A1.785,1.785,0,0,1,38.737-2.4Zm3.713-.088V-7.117h.909v.953l-.159.106a1.331,1.331,0,0,1,.344-.569,2.051,2.051,0,0,1,.609-.423,1.706,1.706,0,0,1,.723-.163,1.718,1.718,0,0,1,.882.207,1.27,1.27,0,0,1,.529.631,2.791,2.791,0,0,1,.176,1.067v2.823h-.909V-5.247a1.757,1.757,0,0,0-.106-.657.721.721,0,0,0-.326-.379,1.021,1.021,0,0,0-.547-.1,1.355,1.355,0,0,0-.485.084,1.18,1.18,0,0,0-.384.234,1.1,1.1,0,0,0-.256.348,1,1,0,0,0-.093.428v2.8H42.45ZM49.771-.458a3.254,3.254,0,0,1-.983-.154,2.336,2.336,0,0,1-.789-.4l.335-.706a1.983,1.983,0,0,0,.415.234,2.785,2.785,0,0,0,.5.159,2.453,2.453,0,0,0,.52.057,1.848,1.848,0,0,0,.811-.159,1.088,1.088,0,0,0,.494-.467,1.593,1.593,0,0,0,.168-.767v-.891l.1.062a.987.987,0,0,1-.287.525,1.874,1.874,0,0,1-.6.41,1.826,1.826,0,0,1-.741.159,2.224,2.224,0,0,1-1.178-.313,2.26,2.26,0,0,1-.816-.856,2.519,2.519,0,0,1-.3-1.239,2.549,2.549,0,0,1,.3-1.239,2.227,2.227,0,0,1,.812-.856,2.192,2.192,0,0,1,1.16-.313,1.969,1.969,0,0,1,.512.066,1.972,1.972,0,0,1,.459.185,2.457,2.457,0,0,1,.379.26,1.437,1.437,0,0,1,.273.3.824.824,0,0,1,.132.3l-.194.071V-7.117h.909v4.349a2.748,2.748,0,0,1-.163.983,1.944,1.944,0,0,1-.472.723,2.044,2.044,0,0,1-.75.45A3.006,3.006,0,0,1,49.771-.458Zm.035-2.778a1.453,1.453,0,0,0,.767-.2,1.394,1.394,0,0,0,.52-.556,1.72,1.72,0,0,0,.185-.811,1.713,1.713,0,0,0-.19-.816,1.428,1.428,0,0,0-.52-.56,1.43,1.43,0,0,0-.763-.2,1.39,1.39,0,0,0-.754.207,1.461,1.461,0,0,0-.52.565,1.694,1.694,0,0,0-.19.807,1.694,1.694,0,0,0,.19.807,1.428,1.428,0,0,0,.52.56A1.413,1.413,0,0,0,49.806-3.236ZM56.669-.458,57.6-2.619l.009.723L55.3-7.117H56.36l1.447,3.4a2.33,2.33,0,0,1,.106.269q.062.181.106.357l-.229.053q.071-.185.137-.37t.128-.37l1.208-3.343h1.076L58.433-2.486,57.648-.458Zm.538-7.374-.3-.45,1.261-1.1.573.723ZM61.158-.907l-.335-.406a1.854,1.854,0,0,0,.5-.406.665.665,0,0,0,.194-.4.365.365,0,0,0-.044-.172,1.232,1.232,0,0,0-.185-.234,1.039,1.039,0,0,1-.229-.282.582.582,0,0,1-.053-.247.424.424,0,0,1,.15-.34.577.577,0,0,1,.388-.128.679.679,0,0,1,.4.128.847.847,0,0,1,.282.353,1.243,1.243,0,0,1,.1.516,1.51,1.51,0,0,1-.088.512A1.731,1.731,0,0,1,62-1.551a2.055,2.055,0,0,1-.37.379A1.746,1.746,0,0,1,61.158-.907ZM67.809-2.4a2.124,2.124,0,0,1-1.151-.318,2.275,2.275,0,0,1-.8-.864,2.537,2.537,0,0,1-.3-1.226,2.537,2.537,0,0,1,.3-1.226,2.275,2.275,0,0,1,.8-.864,2.124,2.124,0,0,1,1.151-.318,2.5,2.5,0,0,1,1.125.251,1.83,1.83,0,0,1,.772.684l-.5.617a1.654,1.654,0,0,0-.362-.37,1.947,1.947,0,0,0-.467-.265,1.3,1.3,0,0,0-.476-.1,1.39,1.39,0,0,0-.754.207,1.486,1.486,0,0,0-.525.569,1.689,1.689,0,0,0-.194.811,1.605,1.605,0,0,0,.2.807,1.587,1.587,0,0,0,.538.569,1.36,1.36,0,0,0,.741.212,1.382,1.382,0,0,0,.463-.079,1.635,1.635,0,0,0,.437-.238,2.241,2.241,0,0,0,.4-.388l.5.617a2.082,2.082,0,0,1-.807.653A2.458,2.458,0,0,1,67.809-2.4Zm4.834,0a2.351,2.351,0,0,1-1.213-.313,2.284,2.284,0,0,1-.842-.856,2.461,2.461,0,0,1-.309-1.239,2.461,2.461,0,0,1,.309-1.239A2.284,2.284,0,0,1,71.43-6.9a2.351,2.351,0,0,1,1.213-.313,2.334,2.334,0,0,1,1.2.313,2.285,2.285,0,0,1,.842.856A2.461,2.461,0,0,1,75-4.806a2.461,2.461,0,0,1-.309,1.239,2.285,2.285,0,0,1-.842.856A2.334,2.334,0,0,1,72.643-2.4Zm0-.829a1.352,1.352,0,0,0,.741-.207A1.439,1.439,0,0,0,73.9-4a1.655,1.655,0,0,0,.176-.807,1.675,1.675,0,0,0-.176-.816,1.407,1.407,0,0,0-.512-.56,1.374,1.374,0,0,0-.741-.2,1.374,1.374,0,0,0-.745.207,1.428,1.428,0,0,0-.516.565,1.655,1.655,0,0,0-.176.807A1.655,1.655,0,0,0,71.382-4a1.428,1.428,0,0,0,.516.565A1.374,1.374,0,0,0,72.643-3.227Zm-.617-4.6-.3-.45,1.261-1.1.573.723Zm6.016,5.345,2.39-6.174h.97l2.373,6.174H82.76L81.349-6.209q-.026-.062-.1-.3t-.172-.529q-.1-.291-.176-.534t-.106-.313l.2-.009q-.053.15-.128.379l-.159.485q-.084.256-.163.481l-.132.375-1.4,3.687ZM79.1-4.021l.353-.917h2.8l.406.917ZM84.63-2.486v-.882h1v-4.41h-1v-.882h2.946v.882h-1v4.41h1v.882Zm6.7,0V-9.014h.909v6.527Zm4.11.088a2.351,2.351,0,0,1-1.213-.313,2.284,2.284,0,0,1-.842-.856,2.461,2.461,0,0,1-.309-1.239,2.461,2.461,0,0,1,.309-1.239,2.284,2.284,0,0,1,.842-.856,2.351,2.351,0,0,1,1.213-.313,2.334,2.334,0,0,1,1.2.313,2.284,2.284,0,0,1,.842.856A2.461,2.461,0,0,1,97.8-4.806a2.461,2.461,0,0,1-.309,1.239,2.284,2.284,0,0,1-.842.856A2.334,2.334,0,0,1,95.444-2.4Zm0-.829a1.352,1.352,0,0,0,.741-.207A1.439,1.439,0,0,0,96.7-4a1.655,1.655,0,0,0,.176-.807,1.675,1.675,0,0,0-.176-.816,1.407,1.407,0,0,0-.512-.56,1.374,1.374,0,0,0-.741-.2,1.374,1.374,0,0,0-.745.207,1.428,1.428,0,0,0-.516.565,1.655,1.655,0,0,0-.176.807A1.655,1.655,0,0,0,94.183-4a1.428,1.428,0,0,0,.516.565A1.374,1.374,0,0,0,95.444-3.227Z" transform="translate(41.614 37.058)" fill="#fff"/>
        <path id="Path_247" data-name="Path 247" d="M474,3.573c-1.886.386-2.481.981-2.867,2.867a.256.256,0,0,1-.5,0c-.386-1.886-.981-2.481-2.867-2.867a.256.256,0,0,1,0-.5c1.886-.386,2.481-.981,2.867-2.867a.256.256,0,0,1,.5,0c.386,1.886.981,2.481,2.867,2.867a.256.256,0,0,1,0,.5" transform="translate(-329.173 0)" fill="#fff"/>
        <path id="Path_248" data-name="Path 248" d="M16.728,27.946V23.065l-12.5-7.217V12.292l12.5-7.217,12.5,7.217v1.7l4.227,2.441V9.852L25.092,5.023,16.728.194,8.364,5.023,0,9.852v8.437l4.813,2.778h0ZM0,34.7H33.455V21.314l-4.227-2.441-12.5-7.217v4.882l12.5,7.217v6.721h-25V25.61L0,23.17Z" transform="translate(0 -0.137)" fill="#fff" fill-rule="evenodd"/>
      </g>
    </g>
  </g>
</svg>
