<svg xmlns="http://www.w3.org/2000/svg" width="24" height="24" viewBox="0 0 24 24">
  <g id="phone" transform="translate(-1010 -554)">
    <g id="Group_11586" data-name="Group 11586" transform="translate(1012.088 557)">
      <path id="Path_2254" data-name="Path 2254" d="M4.433,11.551a18.5,18.5,0,0,0,6.155,4.8,9.607,9.607,0,0,0,3.445,1.015c.083,0,.163.007.246.007a2.858,2.858,0,0,0,2.212-.947.079.079,0,0,0,.014-.018,9.293,9.293,0,0,1,.7-.72c.17-.162.343-.331.51-.5a1.734,1.734,0,0,0-.007-2.589l-2.172-2.164a1.761,1.761,0,0,0-1.272-.583,1.821,1.821,0,0,0-1.287.58L11.68,11.72c-.119-.068-.242-.13-.358-.187a4.474,4.474,0,0,1-.4-.216A13.676,13.676,0,0,1,7.653,8.35,7.852,7.852,0,0,1,6.547,6.593c.34-.306.658-.627.965-.94.108-.112.22-.223.333-.335a1.843,1.843,0,0,0,.6-1.3,1.828,1.828,0,0,0-.6-1.3L6.768,1.653c-.127-.126-.246-.248-.369-.374-.239-.245-.488-.5-.734-.724A1.805,1.805,0,0,0,4.393,0,1.859,1.859,0,0,0,3.107.558L1.755,1.9A2.763,2.763,0,0,0,.927,3.676a6.642,6.642,0,0,0,.5,2.881A16.746,16.746,0,0,0,4.433,11.551Zm-2.624-7.8a1.9,1.9,0,0,1,.575-1.224L3.728,1.188A.975.975,0,0,1,4.393.882a.925.925,0,0,1,.651.313c.242.223.47.457.716.706.123.126.249.252.376.382L7.213,3.356a.976.976,0,0,1,.34.673.976.976,0,0,1-.34.673c-.112.112-.224.227-.336.338-.336.338-.651.659-1,.965l-.018.018a.7.7,0,0,0-.181.8c0,.011.007.018.011.029A8.469,8.469,0,0,0,6.96,8.908a14.434,14.434,0,0,0,3.484,3.161,5.18,5.18,0,0,0,.477.259,4.476,4.476,0,0,1,.4.216l.04.022a.758.758,0,0,0,.351.09.768.768,0,0,0,.539-.245L13.6,11.065a.958.958,0,0,1,.661-.32.909.909,0,0,1,.64.32l2.179,2.168a.866.866,0,0,1-.011,1.357c-.152.162-.311.317-.481.479a10.388,10.388,0,0,0-.755.781,1.988,1.988,0,0,1-1.551.655c-.061,0-.127,0-.188-.007a8.728,8.728,0,0,1-3.116-.929A17.571,17.571,0,0,1,5.12,11,16.029,16.029,0,0,1,2.264,6.262,5.788,5.788,0,0,1,1.809,3.752Z" transform="translate(0)" fill="#fff"/>
    </g>
    <rect id="Rectangle_4593" data-name="Rectangle 4593" width="24" height="24" transform="translate(1010 554)" fill="none"/>
  </g>
</svg>
