<svg xmlns="http://www.w3.org/2000/svg" width="32" height="32" viewBox="0 0 32 32">
  <g id="social_zalo" transform="translate(0 0.052)">
    <rect id="Rectangle_234" data-name="Rectangle 234" width="32" height="32" transform="translate(0 -0.052)" fill="none"/>
    <g id="Icon_of_Zalo" transform="translate(1.331 1.331)">
      <path id="Path_497" data-name="Path 497" d="M13.075.166H15.6c3.463,0,5.486.509,7.282,1.472A9.978,9.978,0,0,1,27.045,5.8c.963,1.8,1.472,3.82,1.472,7.282V15.6c0,3.463-.509,5.486-1.472,7.282a9.978,9.978,0,0,1-4.166,4.166c-1.8.963-3.82,1.472-7.282,1.472h-2.51c-3.463,0-5.486-.509-7.282-1.472a9.978,9.978,0,0,1-4.166-4.166C.675,21.083.166,19.059.166,15.6v-2.51C.166,9.623.675,7.6,1.638,5.8A9.978,9.978,0,0,1,5.8,1.638C7.589.675,9.623.166,13.075.166Z" transform="translate(-0.166 -0.071)" fill="#0068ff" fill-rule="evenodd"/>
      <path id="Path_498" data-name="Path 498" d="M31.568,26.474v.414c0,3.463-.509,5.486-1.472,7.282a9.979,9.979,0,0,1-4.166,4.166c-1.8.963-3.82,1.472-7.282,1.472h-2.51a15.864,15.864,0,0,1-6.273-.992L7.275,36.15Z" transform="translate(-3.217 -11.363)" fill="#001a33" fill-rule="evenodd" opacity="0.12"/>
      <path id="Path_499" data-name="Path 499" d="M6.277,24.881a8.3,8.3,0,0,0,4.161-.8c5.111,2.825,13.1,2.69,17.937-.4q.281-.422.525-.877c.967-1.8,1.477-3.834,1.477-7.309v-2.52c0-3.475-.51-5.506-1.477-7.309a10.015,10.015,0,0,0-4.181-4.181C22.916.51,20.885,0,17.41,0H14.88a15.543,15.543,0,0,0-6.5,1.084q-.132.119-.26.241c-4.736,4.566-5.1,14.463-1.08,19.839l.015.024c.619.912.022,2.509-.912,3.443C5.995,24.772,6.049,24.859,6.277,24.881Z" transform="translate(-1.932)" fill="#fff" fill-rule="evenodd"/>
      <path id="Path_500" data-name="Path 500" d="M16.275,17H10.724v1.19h3.852l-3.8,4.707a1.067,1.067,0,0,0-.206.7v.3H15.81a.48.48,0,0,0,.476-.476v-.638H12.239l3.571-4.48c.054-.065.151-.184.195-.238l.022-.032a1.414,1.414,0,0,0,.249-.876Z" transform="translate(-4.633 -7.296)" fill="#0068ff"/>
      <path id="Path_501" data-name="Path 501" d="M32.641,23.9h.79V17H32.24v6.5A.4.4,0,0,0,32.641,23.9Z" transform="translate(-13.932 -7.296)" fill="#0068ff"/>
      <path id="Path_502" data-name="Path 502" d="M23.78,19.692A2.705,2.705,0,1,0,26.485,22.4,2.706,2.706,0,0,0,23.78,19.692Zm0,4.3A1.591,1.591,0,1,1,25.371,22.4,1.593,1.593,0,0,1,23.78,23.988Z" transform="translate(-9.14 -8.452)" fill="#0068ff"/>
      <path id="Path_503" data-name="Path 503" d="M38.436,19.616a2.727,2.727,0,1,0,2.727,2.727A2.729,2.729,0,0,0,38.436,19.616Zm0,4.339a1.6,1.6,0,1,1,1.6-1.6A1.6,1.6,0,0,1,38.436,23.955Z" transform="translate(-15.421 -8.419)" fill="#0068ff"/>
      <path id="Path_504" data-name="Path 504" d="M29.1,25.173h.638V19.957H28.622v4.75A.478.478,0,0,0,29.1,25.173Z" transform="translate(-12.379 -8.566)" fill="#0068ff"/>
    </g>
  </g>
</svg>
