<svg id="Social_Icon_header" xmlns="http://www.w3.org/2000/svg" xmlns:xlink="http://www.w3.org/1999/xlink" width="42" height="42" viewBox="0 0 42 42">
  <defs>
    <linearGradient id="linear-gradient" x1="0.146" y1="0.857" x2="0.854" y2="0.15" gradientUnits="objectBoundingBox">
      <stop offset="0" stop-color="#64b5f6"/>
      <stop offset="1" stop-color="#1976d2"/>
    </linearGradient>
  </defs>
  <g id="User-2">
    <path id="Path_808" data-name="Path 808" d="M21,0A21,21,0,1,0,42,21,21,21,0,0,0,21,0Zm0,6.4a7.538,7.538,0,1,1-7.538,7.538A7.538,7.538,0,0,1,21,6.4ZM33.6,31.507a16.408,16.408,0,0,1-25.2,0,2.071,2.071,0,0,1-.421-1.823A13.418,13.418,0,0,1,12.7,22.357a2.032,2.032,0,0,1,2.464-.035,10.082,10.082,0,0,0,11.673,0,2.032,2.032,0,0,1,2.464.035,13.418,13.418,0,0,1,4.722,7.327,2.071,2.071,0,0,1-.421,1.823Z" fill="url(#linear-gradient)"/>
  </g>
</svg>
