<svg xmlns="http://www.w3.org/2000/svg" width="32" height="32" viewBox="0 0 32 32">
  <g id="social_toptop" transform="translate(0.175 0.052)">
    <rect id="Rectangle_234" data-name="Rectangle 234" width="32" height="32" transform="translate(-0.175 -0.052)" fill="none"/>
    <g id="Group_11540" data-name="Group 11540" transform="translate(2.634 2.634)">
      <path id="Path_2248" data-name="Path 2248" d="M20.01,26.681H6.67A6.67,6.67,0,0,1,0,20.011V6.67A6.67,6.67,0,0,1,6.67,0H20.01a6.67,6.67,0,0,1,6.67,6.67V20.01a6.67,6.67,0,0,1-6.67,6.67" transform="translate(0 0)" fill="#2d0f1e" fill-rule="evenodd"/>
      <path id="Path_2249" data-name="Path 2249" d="M12.507,7.5h7.5A3.752,3.752,0,0,0,20.394.019C20.266.012,20.14,0,20.01,0H6.67A6.67,6.67,0,0,0,0,6.67V20.01A12.507,12.507,0,0,1,12.506,7.5" transform="translate(0 0)" fill="#501432" fill-rule="evenodd"/>
      <path id="Path_2250" data-name="Path 2250" d="M38.67,22.67a6.67,6.67,0,1,0,6.67,6.67V16a6.67,6.67,0,0,1-6.67,6.67" transform="translate(-18.66 -9.33)" fill-rule="evenodd"/>
      <path id="Path_2251" data-name="Path 2251" d="M22.339,12.834A.834.834,0,0,1,23.172,12h1.763a.834.834,0,0,1,.817.671,3.317,3.317,0,0,0,3.256,2.664.834.834,0,0,1,.834.834v1.668a.834.834,0,0,1-.834.834,6.636,6.636,0,0,1-3.335-.893v6.73a5.836,5.836,0,1,1-5.836-5.836.834.834,0,0,1,.834.834v1.667a.834.834,0,0,1-.834.834,2.5,2.5,0,1,0,2.5,2.5Z" transform="translate(-8.164 -6.997)" fill="#fe2c55" fill-rule="evenodd"/>
      <path id="Path_2252" data-name="Path 2252" d="M20.339,10.834A.834.834,0,0,1,21.172,10h1.763a.834.834,0,0,1,.817.671,3.317,3.317,0,0,0,3.256,2.664.834.834,0,0,1,.834.834v1.668a.834.834,0,0,1-.834.834,6.635,6.635,0,0,1-3.335-.893v6.73a5.836,5.836,0,1,1-5.836-5.836.834.834,0,0,1,.834.834v1.667a.834.834,0,0,1-.834.834,2.5,2.5,0,1,0,2.5,2.5Z" transform="translate(-6.998 -5.831)" fill="#25f4ee" fill-rule="evenodd"/>
      <path id="Path_2253" data-name="Path 2253" d="M17.7,25.809a2.5,2.5,0,0,0,4.637-1.3V12.834A.834.834,0,0,1,23.172,12h1.783a3.309,3.309,0,0,0,1.323,1.908,3.318,3.318,0,0,0,2.73,1.427V17a.834.834,0,0,1-.834.834,6.635,6.635,0,0,1-3.335-.893v6.73A5.836,5.836,0,0,1,15.314,28.2a5.837,5.837,0,0,1,4.523-9.525v1.668a.834.834,0,0,1-.834.834,2.5,2.5,0,0,0-1.3,4.637Z" transform="translate(-8.164 -6.997)" fill="#fff" fill-rule="evenodd"/>
    </g>
  </g>
</svg>
