<svg xmlns="http://www.w3.org/2000/svg" width="85" height="31" viewBox="0 0 85 31">
  <g id="Tong_star" transform="translate(-20.074 -22.074)">
    <g id="Polygon_9" data-name="Polygon 9" transform="translate(90.074 39.074)" fill="#fc7400">
      <path d="M 11.69229412078857 13.39916515350342 L 7.639920234680176 10.66232967376709 L 7.5 10.56783962249756 L 7.360079765319824 10.66232967376709 L 3.307706117630005 13.39916515350342 L 4.705480098724365 8.778779983520508 L 4.756060123443604 8.611579895019531 L 4.61644983291626 8.506589889526367 L 0.7242855429649353 5.57942533493042 L 5.631269931793213 5.456309795379639 L 5.802259922027588 5.452020168304443 L 5.860209941864014 5.291100025177002 L 7.5 0.7378273010253906 L 9.139789581298828 5.291100025177002 L 9.197739601135254 5.452020168304443 L 9.368729591369629 5.456309795379639 L 14.27571487426758 5.57942533493042 L 10.38354969024658 8.506589889526367 L 10.24394035339355 8.611579895019531 L 10.29452037811279 8.778779983520508 L 11.69229412078857 13.39916515350342 Z" stroke="none"/>
      <path d="M 7.5 1.475654602050781 L 5.979519844055176 5.697649955749512 L 1.448580741882324 5.81132984161377 L 5.045929908752441 8.516769409179688 L 3.750658988952637 12.79833984375 L 7.5 10.26614952087402 L 11.24934005737305 12.79833984375 L 9.954070091247559 8.516769409179688 L 13.55141925811768 5.81132984161377 L 9.020480155944824 5.697649955749512 L 7.5 1.475654602050781 M 7.5 0 L 9.375 5.206390380859375 L 15 5.347519874572754 L 10.53380966186523 8.706390380859375 L 12.13525009155273 14 L 7.5 10.86950016021729 L 2.864749908447266 14 L 4.466190338134766 8.706390380859375 L 0 5.347519874572754 L 5.625 5.206390380859375 L 7.5 0 Z" stroke="none" fill="#fc7400"/>
    </g>
    <g id="Polygon_10" data-name="Polygon 10" transform="translate(20.074 39.074)" fill="#fc7400">
      <path d="M 11.69229412078857 13.39916515350342 L 7.639920234680176 10.66232967376709 L 7.5 10.56783962249756 L 7.360079765319824 10.66232967376709 L 3.307706117630005 13.39916515350342 L 4.705480098724365 8.778779983520508 L 4.756060123443604 8.611579895019531 L 4.61644983291626 8.506589889526367 L 0.7242855429649353 5.57942533493042 L 5.631269931793213 5.456309795379639 L 5.802259922027588 5.452020168304443 L 5.860209941864014 5.291100025177002 L 7.5 0.7378273010253906 L 9.139789581298828 5.291100025177002 L 9.197739601135254 5.452020168304443 L 9.368729591369629 5.456309795379639 L 14.27571487426758 5.57942533493042 L 10.38354969024658 8.506589889526367 L 10.24394035339355 8.611579895019531 L 10.29452037811279 8.778779983520508 L 11.69229412078857 13.39916515350342 Z" stroke="none"/>
      <path d="M 7.5 1.475654602050781 L 5.979519844055176 5.697649955749512 L 1.448580741882324 5.81132984161377 L 5.045929908752441 8.516769409179688 L 3.750658988952637 12.79833984375 L 7.5 10.26614952087402 L 11.24934005737305 12.79833984375 L 9.954070091247559 8.516769409179688 L 13.55141925811768 5.81132984161377 L 9.020480155944824 5.697649955749512 L 7.5 1.475654602050781 M 7.5 0 L 9.375 5.206390380859375 L 15 5.347519874572754 L 10.53380966186523 8.706390380859375 L 12.13525009155273 14 L 7.5 10.86950016021729 L 2.864749908447266 14 L 4.466190338134766 8.706390380859375 L 0 5.347519874572754 L 5.625 5.206390380859375 L 7.5 0 Z" stroke="none" fill="#fc7400"/>
    </g>
    <g id="Polygon_12" data-name="Polygon 12" transform="translate(35.074 27.074)" fill="#fc7400">
      <path d="M 11.69229412078857 13.39916515350342 L 7.639920234680176 10.66232967376709 L 7.5 10.56783962249756 L 7.360079765319824 10.66232967376709 L 3.307706117630005 13.39916515350342 L 4.705480098724365 8.778779983520508 L 4.756060123443604 8.611579895019531 L 4.61644983291626 8.506589889526367 L 0.7242855429649353 5.57942533493042 L 5.631269931793213 5.456309795379639 L 5.802259922027588 5.452020168304443 L 5.860209941864014 5.291100025177002 L 7.5 0.7378273010253906 L 9.139789581298828 5.291100025177002 L 9.197739601135254 5.452020168304443 L 9.368729591369629 5.456309795379639 L 14.27571487426758 5.57942533493042 L 10.38354969024658 8.506589889526367 L 10.24394035339355 8.611579895019531 L 10.29452037811279 8.778779983520508 L 11.69229412078857 13.39916515350342 Z" stroke="none"/>
      <path d="M 7.5 1.475654602050781 L 5.979519844055176 5.697649955749512 L 1.448580741882324 5.81132984161377 L 5.045929908752441 8.516769409179688 L 3.750658988952637 12.79833984375 L 7.5 10.26614952087402 L 11.24934005737305 12.79833984375 L 9.954070091247559 8.516769409179688 L 13.55141925811768 5.81132984161377 L 9.020480155944824 5.697649955749512 L 7.5 1.475654602050781 M 7.5 0 L 9.375 5.206390380859375 L 15 5.347519874572754 L 10.53380966186523 8.706390380859375 L 12.13525009155273 14 L 7.5 10.86950016021729 L 2.864749908447266 14 L 4.466190338134766 8.706390380859375 L 0 5.347519874572754 L 5.625 5.206390380859375 L 7.5 0 Z" stroke="none" fill="#fc7400"/>
    </g>
    <g id="Polygon_13" data-name="Polygon 13" transform="translate(75.074 27.074)" fill="#fc7400">
      <path d="M 11.69229412078857 13.39916515350342 L 7.639920234680176 10.66232967376709 L 7.5 10.56783962249756 L 7.360079765319824 10.66232967376709 L 3.307706117630005 13.39916515350342 L 4.705480098724365 8.778779983520508 L 4.756060123443604 8.611579895019531 L 4.61644983291626 8.506589889526367 L 0.7242855429649353 5.57942533493042 L 5.631269931793213 5.456309795379639 L 5.802259922027588 5.452020168304443 L 5.860209941864014 5.291100025177002 L 7.5 0.7378273010253906 L 9.139789581298828 5.291100025177002 L 9.197739601135254 5.452020168304443 L 9.368729591369629 5.456309795379639 L 14.27571487426758 5.57942533493042 L 10.38354969024658 8.506589889526367 L 10.24394035339355 8.611579895019531 L 10.29452037811279 8.778779983520508 L 11.69229412078857 13.39916515350342 Z" stroke="none"/>
      <path d="M 7.5 1.475654602050781 L 5.979519844055176 5.697649955749512 L 1.448580741882324 5.81132984161377 L 5.045929908752441 8.516769409179688 L 3.750658988952637 12.79833984375 L 7.5 10.26614952087402 L 11.24934005737305 12.79833984375 L 9.954070091247559 8.516769409179688 L 13.55141925811768 5.81132984161377 L 9.020480155944824 5.697649955749512 L 7.5 1.475654602050781 M 7.5 0 L 9.375 5.206390380859375 L 15 5.347519874572754 L 10.53380966186523 8.706390380859375 L 12.13525009155273 14 L 7.5 10.86950016021729 L 2.864749908447266 14 L 4.466190338134766 8.706390380859375 L 0 5.347519874572754 L 5.625 5.206390380859375 L 7.5 0 Z" stroke="none" fill="#fc7400"/>
    </g>
    <g id="Polygon_11" data-name="Polygon 11" transform="translate(55.074 22.074)" fill="#fc7400">
      <path d="M 11.69229412078857 13.39916515350342 L 7.639920234680176 10.66232967376709 L 7.5 10.56783962249756 L 7.360079765319824 10.66232967376709 L 3.307706117630005 13.39916515350342 L 4.705480098724365 8.778779983520508 L 4.756060123443604 8.611579895019531 L 4.61644983291626 8.506589889526367 L 0.7242855429649353 5.57942533493042 L 5.631269931793213 5.456309795379639 L 5.802259922027588 5.452020168304443 L 5.860209941864014 5.291100025177002 L 7.5 0.7378273010253906 L 9.139789581298828 5.291100025177002 L 9.197739601135254 5.452020168304443 L 9.368729591369629 5.456309795379639 L 14.27571487426758 5.57942533493042 L 10.38354969024658 8.506589889526367 L 10.24394035339355 8.611579895019531 L 10.29452037811279 8.778779983520508 L 11.69229412078857 13.39916515350342 Z" stroke="none"/>
      <path d="M 7.5 1.475654602050781 L 5.979519844055176 5.697649955749512 L 1.448580741882324 5.81132984161377 L 5.045929908752441 8.516769409179688 L 3.750658988952637 12.79833984375 L 7.5 10.26614952087402 L 11.24934005737305 12.79833984375 L 9.954070091247559 8.516769409179688 L 13.55141925811768 5.81132984161377 L 9.020480155944824 5.697649955749512 L 7.5 1.475654602050781 M 7.5 0 L 9.375 5.206390380859375 L 15 5.347519874572754 L 10.53380966186523 8.706390380859375 L 12.13525009155273 14 L 7.5 10.86950016021729 L 2.864749908447266 14 L 4.466190338134766 8.706390380859375 L 0 5.347519874572754 L 5.625 5.206390380859375 L 7.5 0 Z" stroke="none" fill="#fc7400"/>
    </g>
  </g>
</svg>
