<svg xmlns="http://www.w3.org/2000/svg" width="24" height="24" viewBox="0 0 24 24">
  <g id="viewmore" transform="translate(-857 -3772)">
    <g id="Group_2028" data-name="Group 2028">
      <g id="Ellipse_18" data-name="Ellipse 18" transform="translate(857 3772)" fill="none" stroke="#fff" stroke-width="1">
        <circle cx="12" cy="12" r="12" stroke="none"/>
        <circle cx="12" cy="12" r="11.5" fill="none"/>
      </g>
      <path id="Path_2236" data-name="Path 2236" d="M5.1,0a.792.792,0,0,0-.5.174L.209,3.817a.526.526,0,0,0,0,.839.82.82,0,0,0,1.01,0L5.1,1.433,8.975,4.657a.82.82,0,0,0,1.009,0,.525.525,0,0,0,0-.839L5.6.174A.792.792,0,0,0,5.1,0Z" transform="translate(871.78 3779.236) rotate(90)" fill="#fff"/>
    </g>
  </g>
</svg>
